<svg width="179" height="158" viewBox="0 0 179 158" fill="none" xmlns="http://www.w3.org/2000/svg">
<g id="Group 1535">
<g id="Group 1534">
<circle id="Ellipse 111" cx="94.8405" cy="81.0065" r="37.6101" fill="#3085FE"/>
<path id="Ellipse 112" d="M132.45 81.0063C132.45 101.778 115.612 118.616 94.8403 118.616" stroke="#A3D139" stroke-width="4" stroke-linecap="round" stroke-linejoin="round"/>
<path id="Vector 7" d="M113.79 73.6291L93.6188 93.8006C92.0567 95.3627 89.524 95.3627 87.9619 93.8006L79.3627 85.2014C77.8448 83.6835 77.8448 81.2225 79.3627 79.7045C80.8806 78.1866 83.3416 78.1866 84.8595 79.7045L87.9619 82.8069C89.524 84.369 92.0567 84.369 93.6188 82.8069L108.294 68.1322C109.811 66.6143 112.272 66.6143 113.79 68.1322C115.308 69.6501 115.308 72.1112 113.79 73.6291Z" fill="white"/>
</g>
<path id="Vector 8" d="M146.916 33.5557C152.459 33.6911 163.544 30.4691 163.544 16.4982C163.544 2.52735 172.517 1.47141 177.004 2.6898" stroke="#3085FE" stroke-width="3" stroke-linecap="round"/>
<path id="Vector 9" d="M141.708 131.346C145.433 132.414 152.962 137.034 153.281 146.968" stroke="#10B981" stroke-width="3" stroke-linecap="round"/>
<path id="Vector 10" d="M2.00391 112.536C5.20183 112.536 8.35327 112.662 11.221 110.977C16.0287 108.151 20.3364 103.389 23.0956 98.5705C24.0962 96.8233 27.2866 90.8758 24.6767 89.0116C23.0139 87.8238 20.3793 89.083 19.2776 90.4522C17.5947 92.5436 15.8907 95.7265 16.6201 98.5196C17.2138 100.793 20.6384 102.109 22.5574 102.858C26.4541 104.38 30.946 104.827 35.0039 105.824" stroke="#A3D139" stroke-width="3" stroke-linecap="round"/>
<circle id="Ellipse 112_2" cx="34.9534" cy="55.8362" r="4.33962" fill="#3085FE"/>
<circle id="Ellipse 113" cx="83.8467" cy="6.9434" r="6.9434" fill="#3085FE"/>
<circle id="Ellipse 115" cx="163.985" cy="74.9309" r="6.65409" fill="#A3D139"/>
<circle id="Ellipse 114" cx="100.626" cy="15.6226" r="4.62893" fill="#10B981"/>
<circle id="Ellipse 116" cx="115.96" cy="153.622" r="4.33962" fill="#3085FE"/>
<circle id="Ellipse 118" cx="48.5508" cy="138.289" r="4.62893" fill="#10B981"/>
<ellipse id="Ellipse 117" cx="99.7586" cy="146.39" rx="3.76101" ry="3.4717" fill="#10B981"/>
</g>
</svg>
