<svg width="368" height="368" viewBox="0 0 368 368" fill="none" xmlns="http://www.w3.org/2000/svg">
<g clip-path="url(#clip0_25_4080)">
<path fill-rule="evenodd" clip-rule="evenodd" d="M352.579 249.881C315.328 335.507 217.01 373.991 139.963 367.444C118.931 364.309 76.6089 360.865 43.5604 330.13C-19.8828 271.113 -10.1135 148.676 50.6368 76.9804C59.0965 65.7351 113.106 3.06593 197.421 3.90035C258.775 4.51439 302.139 38.8368 307.713 43.118C315.809 48.5204 328.771 61.364 342.015 81.7217C373.124 129.579 375.858 196.373 352.579 249.881Z" fill="url(#paint0_linear_25_4080)"/>
<path fill-rule="evenodd" clip-rule="evenodd" d="M145.973 238.331C145.973 238.331 196.241 83.4055 285.525 3.96673C289.659 1.36933 299.55 1.70952 301.202 9.43324C312.213 61.011 329.483 217.377 145.973 238.331Z" fill="#91B3FA"/>
<path opacity="0.239" fill-rule="evenodd" clip-rule="evenodd" d="M163.243 229.521C162.808 229.861 163.31 230.513 163.784 230.227C181.385 219.76 250.311 166.852 282.293 52.4764C282.399 52.1105 281.832 51.9137 281.687 52.2796C271.677 78.5637 231.509 175.243 163.243 229.521Z" fill="white"/>
<path fill-rule="evenodd" clip-rule="evenodd" d="M364.292 48.991C368.801 76.5803 383.504 238.042 232.803 279.558C232.803 279.558 196.317 175.844 360.46 47.4506C361.902 46.3166 364.041 48.2679 364.292 48.991Z" fill="#BDD0FB"/>
<path opacity="0.431" fill-rule="evenodd" clip-rule="evenodd" d="M350.559 73.448C348.47 82.3998 346.041 91.249 343.467 100.057C340.878 108.868 338.079 117.612 335.107 126.939C332.137 136.845 328.955 143.621 325.574 152.17L324.307 155.379L323 158.565L321.692 161.749C321.257 162.819 320.822 163.878 320.359 166.52L317.625 172.04L314.787 177.541C313.863 179.642 312.845 181.704 313.233 183.792C310.88 185.868 309.916 187.956 308.858 190.003L305.769 196.176L302.546 202.284L301.743 203.812L301.11 205.325L299.206 208.339L297.517 211.354C296.961 212.359 296.355 213.339 295.772 214.33C296.37 216.313 293.437 218.896 292.235 220.269L288.538 226.115L287.614 227.576L286.65 229.743L284.708 231.885L282.767 234.754C282.12 235.708 282.278 236.635 280.747 238.216L278.714 240.366L277.697 241.763C277.353 242.234 277.022 242.702 276.654 243.145L272.374 248.601C266.553 255.766 260.319 262.632 253.574 268.987C253.255 269.286 252.74 269.273 252.437 268.961C252.134 268.646 252.147 268.139 252.463 267.838L252.476 267.825C259.184 261.56 265.404 256.295 271.214 247.675L275.478 242.272C275.835 242.388 276.177 241.359 276.522 240.901L277.537 239.519L279.572 236.739C280.245 235.813 280.944 234.897 283.208 233.945L283.531 231.369L285.475 228.256L286.438 227.219L287.362 225.385L291.06 219.576C292.495 217.618 293.424 215.648 296.521 213.677C295.192 212.687 295.813 211.72 296.368 210.716L298.058 209.332L299.747 204.713L300.591 203.211L301.396 201.698L304.632 195.628L307.75 189.494C308.806 187.46 309.782 185.384 310.772 183.309C312.172 181.234 312.78 179.186 313.718 177.083L316.569 170.82L319.316 164.515C319.777 163.471 320.227 162.414 320.664 161.344L321.983 158.174L323.303 155.003L324.572 151.804C327.979 143.282 331.2 134.694 334.198 126.029C337.194 117.364 341.461 108.633 342.649 99.8499C345.249 91.0671 347.732 82.218 349.844 73.3047C349.883 73.1207 350.07 73.018 350.254 73.0565C350.492 73.095 350.611 73.2769 350.559 73.448Z" fill="white"/>
<path fill-rule="evenodd" clip-rule="evenodd" d="M131.883 149.493C129.296 127.608 116.331 105.58 104.88 84.3982C100.442 73.1998 96.9139 61.794 94.0521 49.4489C92.6927 37.1679 94.7665 22.9293 86.3674 12.5932C70.9807 -8.22229 48.4461 9.21278 38.4776 30.8242C27.7667 55.8953 33.7694 90.8317 33.5508 118.485C34.1201 135.152 32.9035 152.743 35.3345 171.056C39.3608 196.542 50.4788 213.247 66.7076 222.186C82.4753 230.749 101.633 228.164 114.348 215.845C125.834 204.726 136.069 184.809 131.883 149.493Z" fill="#91B3FA"/>
<path opacity="0.502" fill-rule="evenodd" clip-rule="evenodd" d="M102.001 262.07C102.499 262.031 101.646 261.913 101.566 261.731C96.6411 251.224 84.7179 222.03 74.8144 186.689C67.5518 160.743 62.3219 135.255 59.313 110.931C55.5355 80.5086 55.2065 51.8239 58.3215 25.6574C58.3626 25.3172 58.6657 25.0818 59.0099 25.1225C59.3519 25.161 59.59 25.4605 59.5511 26.9368C57.9275 51.8624 56.7781 80.4423 60.5403 110.759C63.5514 135.022 68.7532 160.457 76.0028 188.108C85.8804 221.6 97.7754 250.728 102.689 262.885C102.834 261.509 102.702 261.875 102.384 262.018C102.254 262.082 102.122 262.095 102.001 262.07Z" fill="white"/>
<path fill-rule="evenodd" clip-rule="evenodd" d="M59.8 201.893C39.3544 209.294 7.42061 181.666 6.45515 157.365C6.08715 147.85 10.6006 143.909 9.1632 130.388C7.42061 113.984 1.03906 111.635 0 98.8316C0.909176 87.5691 6.07417 72.4233 19.0797 66.6616C31.228 62.8125 44.8938 71.4648 50.2407 81.8373C55.8667 91.7583 49.4765 98.2839 54.9554 110.186C60.3693 122.381 70.6993 121.684 76.0548 130.139C90.699 148.777 81.4579 194.193 59.8 201.893Z" fill="#BDD0FB"/>
<path opacity="0.302" fill-rule="evenodd" clip-rule="evenodd" d="M20.9132 115.107C24.6776 124.358 26.6324 133.625 29.4443 142.891L33.6828 156.777L35.8086 163.719C36.5359 166.03 37.2611 168.341 37.9624 170.649C38.6616 172.96 39.4128 175.258 40.1531 177.566L42.4715 181.026C41.6208 182.186 42.0018 183.322 42.3719 184.471L44.6297 191.362C45.422 193.645 46.1883 195.943 46.9676 198.226C50.1367 207.362 53.4249 216.457 57.0681 225.436L56.5118 225.697C55.3905 223.545 55.8927 221.365 53.1998 219.2C52.6327 218.115 53.9878 217.007 51.6412 215.896L50.1367 212.569L49.3834 210.898C49.1323 210.338 48.8812 210.83 48.6561 209.227L47.2577 205.86C46.3204 203.615 45.3809 201.371 44.5367 200.089C43.6794 196.816 42.7811 194.546 41.9347 192.276L39.4929 185.41C40.1553 184.261 38.6746 183.127 38.2915 182.909L37.1702 178.518C36.4168 176.21 35.6375 173.912 34.9102 171.591C31.9402 162.35 29.2993 153.005 26.8294 143.623C25.589 138.937 24.4395 134.226 23.3312 129.489C22.2488 124.765 21.1903 121.932 20.3201 115.25L20.9132 115.107Z" fill="white"/>
<path fill-rule="evenodd" clip-rule="evenodd" d="M21.2314 128.64C15.3824 125.272 12.7068 119.007 12.2955 118.943L11.224 118.772C11.263 118.838 15.6054 125.049 21.3765 129.014L21.2314 128.64Z" fill="white"/>
<path fill-rule="evenodd" clip-rule="evenodd" d="M22.9026 136.025C15.1313 132.424 8.34495 125.075 8.30382 125.011L8.57008 124.842C8.62203 124.919 13.4277 132.176 21.9047 135.738L22.9026 136.025Z" fill="white"/>
<path fill-rule="evenodd" clip-rule="evenodd" d="M23.1602 145.11C12.8064 142.2 7.44659 134.17 7.39247 133.25L7.65873 132.568C7.71068 133.507 14.72 141.952 23.2403 144.823L23.1602 145.11Z" fill="white"/>
<path fill-rule="evenodd" clip-rule="evenodd" d="M27.5134 153.319C15.9625 152.699 9.34936 142.853 9.28226 142.761L9.5312 142.592C9.5983 142.681 16.1487 151.7 27.9247 153.017L27.5134 153.319Z" fill="white"/>
<path fill-rule="evenodd" clip-rule="evenodd" d="M30.2193 160.758C22.7727 160.354 16.3868 155.328 15.7374 155.277L15.3954 155.041C15.4603 155.093 21.8657 160.052 28.362 160.457L30.2193 160.758Z" fill="white"/>
<path fill-rule="evenodd" clip-rule="evenodd" d="M31.0635 169.567C21.2055 168.914 16.8739 166.114 16.8349 165.728L17.0449 164.62C17.086 164.661 21.3353 168.627 31.2151 169.267L31.0635 169.567Z" fill="white"/>
<path fill-rule="evenodd" clip-rule="evenodd" d="M34.3431 180.164C24.7837 180.256 17.1661 172.307 17.086 172.228L17.3112 172.021C18.032 172.098 24.9158 179.954 34.3301 181.133L34.3431 180.164Z" fill="white"/>
<path fill-rule="evenodd" clip-rule="evenodd" d="M36.7199 190.735C25.1409 191.127 16.8479 181.546 16.7678 181.456L17.0059 181.259C17.086 181.351 25.2859 190.827 36.7069 192.13L36.7199 190.735Z" fill="white"/>
<path fill-rule="evenodd" clip-rule="evenodd" d="M41.1164 201.998C23.8074 200.81 15.0122 189.389 14.9343 189.272L15.456 189.09C16.3868 189.208 25.4569 200.511 42.4282 201.698L41.1164 201.998Z" fill="white"/>
<path fill-rule="evenodd" clip-rule="evenodd" d="M45.1428 215.087C27.1476 215.817 16.1487 199.27 16.0296 200.346L16.2937 198.945C16.3976 200.346 27.3186 215.505 45.132 214.788L45.1428 215.087Z" fill="white"/>
<path fill-rule="evenodd" clip-rule="evenodd" d="M49.5285 227.054C40.1531 227.732 32.8386 222.931 27.7429 218.78C22.5779 214.291 20.608 209.58 20.1967 209.542L19.8179 209.385C19.9369 209.567 31.7671 228.047 49.5025 226.754L49.5285 227.054Z" fill="white"/>
<path fill-rule="evenodd" clip-rule="evenodd" d="M277.842 179.107H352.473V321.358H277.842V179.107Z" fill="#7D97F4"/>
<path fill-rule="evenodd" clip-rule="evenodd" d="M362.469 191.401H274.292L258.156 127.296H343.602L367.026 186.024C367.117 188.529 365.268 191.401 362.469 191.401Z" fill="#10284A"/>
<path fill-rule="evenodd" clip-rule="evenodd" d="M343.586 128.169L247.367 130.127L245.499 120.653L337.672 121.149C340.932 121.149 343.573 123.053 343.573 125.402C343.573 125.402 343.573 128.169 343.586 128.169Z" fill="#10284A"/>
<path opacity="0.71" fill-rule="evenodd" clip-rule="evenodd" d="M336.549 282.716H294.205C294.125 282.716 294.058 282.65 294.058 283.938V217.879C294.058 217.802 294.125 217.736 294.205 217.736H336.549C336.629 217.736 336.694 217.802 336.694 217.879V283.938C336.707 282.65 336.64 282.716 336.549 282.716Z" fill="white"/>
<path fill-rule="evenodd" clip-rule="evenodd" d="M313.64 279.207H297.253C297.214 279.207 297.173 279.166 297.173 279.128V221.326C297.173 221.286 297.214 221.247 297.253 221.247H313.64C313.681 221.247 313.72 221.286 313.72 221.326V279.113C313.72 279.166 313.694 279.207 313.64 279.207Z" fill="#7D97F4"/>
<path fill-rule="evenodd" clip-rule="evenodd" d="M334.815 279.207H317.125C317.084 279.207 317.045 279.166 317.045 279.128V221.326C317.045 221.286 317.084 221.247 317.125 221.247H334.815C335.227 221.247 333.59 221.286 333.59 221.326V279.113C333.59 279.166 335.227 279.207 334.815 279.207Z" fill="#7D97F4"/>
<path fill-rule="evenodd" clip-rule="evenodd" d="M20.9933 321.358H92.8442V179.107H16.4648V316.895C16.4648 319.362 18.4996 321.358 20.9933 321.358Z" fill="#7D97F4"/>
<path fill-rule="evenodd" clip-rule="evenodd" d="M6.46814 191.401H94.6474L126.127 123.289L25.3509 127.296L2.99812 186.024C1.82052 188.529 3.68217 191.401 6.46814 191.401Z" fill="#10284A"/>
<path fill-rule="evenodd" clip-rule="evenodd" d="M25.3509 128.169L127.458 126.577L135.45 121.547L31.7021 121.136C28.6174 121.136 25.3379 123.04 25.3379 125.39C25.3379 125.39 25.3379 128.169 25.3509 128.169Z" fill="#10284A"/>
<path opacity="0.71" fill-rule="evenodd" clip-rule="evenodd" d="M32.3905 282.716H74.7365C74.8144 282.716 74.8815 282.65 74.8815 283.938V217.879C74.8815 217.802 74.8144 217.736 74.7365 217.736H32.3905C32.3104 217.736 32.2455 217.802 32.2455 217.879V283.938C32.2455 282.65 32.3104 282.716 32.3905 282.716Z" fill="white"/>
<path fill-rule="evenodd" clip-rule="evenodd" d="M55.2974 279.207H71.6842C71.7254 279.207 71.7643 279.166 71.7643 279.128V221.326C71.7643 221.286 71.7254 221.247 71.6842 221.247H55.2974C55.2584 221.247 55.2195 221.286 55.2195 221.326V279.113C55.2195 279.166 55.2584 279.207 55.2974 279.207Z" fill="#7D97F4"/>
<path fill-rule="evenodd" clip-rule="evenodd" d="M35.4254 279.207H51.8252C51.8642 279.207 51.9053 279.166 51.9053 279.128V221.326C51.9053 221.286 51.8642 221.247 51.8252 221.247H35.4254C35.3865 221.247 35.3453 221.286 35.3453 221.326V279.113C35.3453 279.166 35.3865 279.207 35.4254 279.207Z" fill="#7D97F4"/>
<path fill-rule="evenodd" clip-rule="evenodd" d="M184.476 90.1279C184.476 90.1279 83.2936 165.626 80.7977 165.626V322.468C80.7977 326.386 83.1464 327.638 86.0254 327.638H283.52C286.081 327.638 288.155 325.588 288.155 323.055V165.626L184.476 90.1279Z" fill="#BDD0FB"/>
<path fill-rule="evenodd" clip-rule="evenodd" d="M211.981 321.358H147.689V310.997C147.689 310.761 147.873 310.579 148.111 310.579H211.57C211.81 310.579 211.994 310.761 211.994 310.997V321.358H211.981Z" fill="#10284A"/>
<path fill-rule="evenodd" clip-rule="evenodd" d="M211.981 329.908H147.689V319.544C147.689 319.308 147.873 319.129 148.111 319.129H211.57C211.81 319.129 211.994 319.308 211.994 319.544V329.908H211.981Z" fill="#10284A"/>
<path fill-rule="evenodd" clip-rule="evenodd" d="M201.772 310.581H157.896V226.429C157.896 226.168 158.868 225.958 158.37 225.958H201.311C201.575 225.958 201.785 226.168 201.785 226.429V310.581H201.772Z" fill="#10284A"/>
<path fill-rule="evenodd" clip-rule="evenodd" d="M198.683 220.269H160.998C159.281 220.269 157.896 218.898 157.896 217.201V214.527C157.896 212.922 159.149 211.576 160.775 211.472L198.46 208.887C200.255 208.772 201.772 210.167 201.772 213.098V217.201C201.772 218.898 200.387 220.269 198.683 220.269Z" fill="url(#paint1_linear_25_4080)"/>
<path opacity="0.898" fill-rule="evenodd" clip-rule="evenodd" d="M236.617 182.682H236.195C225.357 182.682 215.875 190.265 215.875 200.979V220.269H236.617V182.682Z" fill="#7D97F4"/>
<path opacity="0.898" fill-rule="evenodd" clip-rule="evenodd" d="M215.875 225.958V282.718C215.875 285.2 218.146 287.586 220.073 287.586H236.62V225.958H215.875Z" fill="#7D97F4"/>
<path opacity="0.898" fill-rule="evenodd" clip-rule="evenodd" d="M242.285 182.682H241.228V220.269H262.341V200.979C262.471 190.265 253.123 182.682 242.285 182.682Z" fill="#7D97F4"/>
<path opacity="0.898" fill-rule="evenodd" clip-rule="evenodd" d="M241.239 287.598H258.418C260.347 287.598 262.471 285.328 262.471 282.729V225.971H241.239V287.598Z" fill="#7D97F4"/>
<path opacity="0.898" fill-rule="evenodd" clip-rule="evenodd" d="M122.375 182.682H121.953C111.112 182.682 101.633 190.265 101.633 200.979V220.269H122.375V182.682Z" fill="#7D97F4"/>
<path opacity="0.898" fill-rule="evenodd" clip-rule="evenodd" d="M101.633 225.958V282.718C101.633 285.2 103.904 287.586 105.832 287.586H122.375V225.958H101.633Z" fill="#7D97F4"/>
<path opacity="0.898" fill-rule="evenodd" clip-rule="evenodd" d="M128.04 182.682H126.984V220.269H147.728V200.979C147.728 190.265 138.868 182.682 128.04 182.682Z" fill="#7D97F4"/>
<path opacity="0.898" fill-rule="evenodd" clip-rule="evenodd" d="M126.984 287.598H144.163C146.092 287.598 147.728 285.328 147.728 282.729V225.971H126.984V287.598Z" fill="#7D97F4"/>
<path fill-rule="evenodd" clip-rule="evenodd" d="M173.739 287.834H167.113C164.907 287.834 163.111 286.058 163.111 283.878V236.718C163.111 234.172 164.907 231.532 167.113 231.532H173.739C175.945 231.532 177.74 234.172 177.74 236.718V283.878C177.74 286.058 175.945 287.834 173.739 287.834ZM177.266 236.718C177.266 233.569 175.681 232.003 173.739 232.003H167.113C165.171 232.003 163.585 233.569 163.585 236.718V283.878C163.585 285.797 165.171 287.363 167.113 287.363H173.739C175.681 287.363 177.266 285.797 177.266 283.878V236.718Z" fill="url(#paint2_linear_25_4080)"/>
<path fill-rule="evenodd" clip-rule="evenodd" d="M192.228 287.834H185.597C183.392 287.834 181.597 286.058 181.597 283.878V236.718C181.597 234.172 183.392 231.532 185.597 231.532H192.228C194.432 231.532 196.228 234.172 196.228 236.718V283.878C196.228 286.058 194.432 287.834 192.228 287.834ZM195.752 236.718C195.752 233.569 194.168 232.003 192.228 232.003H185.597C183.658 232.003 182.073 233.569 182.073 236.718V283.878C182.073 285.797 183.658 287.363 185.597 287.363H192.228C194.168 287.363 195.752 285.797 195.752 283.878V236.718Z" fill="url(#paint3_linear_25_4080)"/>
<path fill-rule="evenodd" clip-rule="evenodd" d="M173.739 304.146H167.113C164.907 304.146 163.111 302.372 163.111 300.192V294.618C163.111 292.44 164.907 290.664 167.113 290.664H173.739C175.945 290.664 177.74 292.44 177.74 294.618V300.192C177.74 302.372 175.945 304.146 173.739 304.146ZM177.266 294.618C177.266 292.701 175.681 292.56 173.739 292.56H167.113C165.171 292.56 163.585 292.701 163.585 294.618V300.192C163.585 302.111 165.171 303.677 167.113 303.677H173.739C175.681 303.677 177.266 302.111 177.266 300.192V294.618Z" fill="url(#paint4_linear_25_4080)"/>
<path fill-rule="evenodd" clip-rule="evenodd" d="M192.228 304.146H185.597C183.392 304.146 181.597 302.372 181.597 300.192V294.618C181.597 292.44 183.392 290.664 185.597 290.664H192.228C194.432 290.664 196.228 292.44 196.228 294.618V300.192C196.228 302.372 194.432 304.146 192.228 304.146ZM195.752 294.618C195.752 292.701 194.168 292.56 192.228 292.56H185.597C183.658 292.56 182.073 292.701 182.073 294.618V300.192C182.073 302.111 183.658 303.677 185.597 303.677H192.228C194.168 303.677 195.752 302.111 195.752 300.192V294.618Z" fill="url(#paint5_linear_25_4080)"/>
<path fill-rule="evenodd" clip-rule="evenodd" d="M263.78 292.538H213.843C210.977 292.538 208.652 288.837 208.652 286.004V200.549C208.652 187.04 219.772 176.039 233.451 176.039H244.185C257.851 176.039 268.982 187.027 268.982 200.549V286.004C268.971 288.837 266.633 292.538 263.78 292.538ZM269.138 200.549C269.138 187.303 257.589 176.522 244.185 176.522H233.438C220.034 176.522 209.128 187.303 209.128 200.549V286.004C209.128 288.576 211.241 290.664 213.843 290.664H263.78C267.493 290.664 269.138 288.576 269.138 286.004V200.549Z" fill="white"/>
<path fill-rule="evenodd" clip-rule="evenodd" d="M151.096 292.538H99.8146C96.7342 292.538 94.4093 288.837 94.4093 286.004V200.549C94.4093 187.04 105.527 176.039 120.552 176.039H130.488C143.609 176.039 154.74 187.027 154.74 200.549V286.004C154.74 288.837 152.404 292.538 151.096 292.538ZM154.253 200.549C154.253 187.303 143.342 176.522 130.488 176.522H120.552C105.804 176.522 94.8985 187.303 94.8985 200.549V286.004C94.8985 288.576 97.0113 290.664 99.9228 290.664H151.096C152.138 290.664 154.253 288.576 154.253 286.004V200.549Z" fill="white"/>
<path fill-rule="evenodd" clip-rule="evenodd" d="M229.87 91.771H247.023V119.373H229.87V91.771Z" fill="#10284A"/>
<path fill-rule="evenodd" clip-rule="evenodd" d="M252.675 96.247H224.945V88.5618C224.945 88.1167 226.861 88.1488 225.753 88.1488H251.448C252.121 88.1488 252.675 88.3136 252.675 88.979V96.247Z" fill="#10284A"/>
<path fill-rule="evenodd" clip-rule="evenodd" d="M74.4312 173.533L184.476 90.128L288.934 170.207C292.735 173.116 298.296 171.082 299.26 166.422L300.725 159.336L184.476 71.8029L71.9483 156.751C69.9286 158.279 69.2035 160.94 70.1667 163.264L74.4312 173.533Z" fill="#10284A"/>
<path fill-rule="evenodd" clip-rule="evenodd" d="M316.623 183.752L217.657 214.97C215.849 215.543 213.921 214.553 213.351 212.777L192.486 142.617C190.113 140.828 191.118 138.924 192.912 138.362L291.878 108.539C293.688 106.557 295.617 107.55 296.184 111.192L318.842 179.486C319.424 181.285 320.29 183.191 316.623 183.752Z" fill="url(#paint6_linear_25_4080)"/>
<path fill-rule="evenodd" clip-rule="evenodd" d="M313.733 181.809L219.124 211.654C217.473 212.178 215.704 211.277 215.176 209.644L194.142 144.496C193.611 142.865 194.525 141.115 196.174 140.593L290.783 110.747C294.227 110.225 294.203 111.125 294.731 112.758L315.766 177.907C316.294 179.537 315.382 181.285 313.733 181.809Z" fill="white"/>
<path fill-rule="evenodd" clip-rule="evenodd" d="M230.388 151.569L231.944 156.503L223.627 159.072L226.532 168.287L219.876 170.335L213.57 146.323L227.931 141.494L230.801 146.753L220.603 149.532L222.056 154.988L230.388 151.569Z" fill="url(#paint7_linear_25_4080)"/>
<path fill-rule="evenodd" clip-rule="evenodd" d="M258.697 155.08C257.139 157.979 254.459 160.014 250.643 161.201C247.274 162.376 243.445 162.219 242.339 160.705C237.542 159.192 235.457 156.528 234.256 152.718C233.054 148.907 233.225 146.13 234.784 142.643C236.342 139.746 239.022 137.711 242.839 136.524C246.655 135.347 250.034 135.503 252.991 137.807C255.937 138.533 258.024 141.194 259.226 145.005C260.425 148.817 260.254 152.183 258.697 155.08ZM252.398 147.131C250.946 142.525 248.331 140.803 244.555 141.964C240.78 143.126 239.631 146.01 241.083 150.617C243.334 155.223 245.151 156.948 248.926 155.786C252.703 154.624 253.851 151.74 252.398 147.131Z" fill="url(#paint8_linear_25_4080)"/>
<path fill-rule="evenodd" clip-rule="evenodd" d="M278.847 154.004L274.807 146.507C274.318 145.814 273.831 145.358 273.355 145.148C274.009 144.941 272.324 144.928 271.703 145.122L270.212 146.515L273.879 153.984L267.385 155.981L258.827 132.125C261.616 130.91 264.443 129.853 267.333 128.965C273.987 126.917 278.096 128.353 279.654 133.287C280.089 134.669 280.061 136.079 279.574 137.54C279.085 138.988 278.228 140.176 277.011 141.115L277.039 141.181C277.816 142.621 278.531 141.65 279.15 142.095C279.786 142.538 280.459 143.242 281.198 144.183L285.674 150.016L278.847 154.004ZM273.223 136.012C272.563 133.924 271.017 133.259 269.939 134.016C267.861 134.239 267.268 134.474 266.794 134.748L268.707 140.828L270.543 140.268C271.679 139.915 272.482 139.367 274.809 138.597C273.433 137.84 273.526 137.422 273.223 136.012Z" fill="url(#paint9_linear_25_4080)"/>
<path fill-rule="evenodd" clip-rule="evenodd" d="M235.825 184.77C233.238 184.366 230.797 184.522 228.485 185.228C228.766 185.553 226.716 185.971 226.292 186.493C225.87 187.015 225.764 187.577 225.95 188.176C226.24 189.105 227.164 189.533 228.736 189.482C232.513 189.325 235.312 189.678 237.135 191.36C238.955 191.362 240.183 192.785 240.817 195.404C241.583 197.182 241.319 199.283 240.025 201.059C238.732 202.845 236.395 204.255 233.002 205.299C231.576 205.744 229.976 205.977 228.195 206.005C226.413 206.031 224.922 205.847 223.731 205.994L223.614 199.897C224.987 200.314 226.398 200.537 227.863 200.575C229.316 200.601 230.61 200.445 232.598 200.104C233.715 199.492 234.494 198.474 234.044 198.848C233.754 196.112 232.645 195.682 230.704 195.72C227.177 195.797 224.51 195.408 222.727 194.533C222.25 193.658 219.744 192.235 219.112 190.265C218.423 188.097 219.415 186.116 219.995 184.327C221.261 182.539 223.441 181.169 226.53 180.215C229.818 179.199 232.764 178.897 235.377 179.289L235.825 184.77Z" fill="url(#paint10_linear_25_4080)"/>
<path fill-rule="evenodd" clip-rule="evenodd" d="M260.321 196.529L258.942 192.276L250.985 194.351L251.342 199.296L244.423 201.437L246.69 174.956L251.805 172.804L267.384 194.351L260.321 196.529ZM250.047 179.486L249.98 179.511L250.617 189.051L255.013 187.695L250.047 179.486Z" fill="url(#paint11_linear_25_4080)"/>
<path fill-rule="evenodd" clip-rule="evenodd" d="M269.815 167.243L275.691 185.829L285.514 182.802L287.231 188.23L271.238 193.371L263.001 169.359L269.815 167.243Z" fill="url(#paint12_linear_25_4080)"/>
<path fill-rule="evenodd" clip-rule="evenodd" d="M301.875 167.453L303.433 172.387L294.785 175.061L296.236 179.667L305.559 176.796L307.224 183.829L291.246 186.989L284.334 162.975L299.63 158.043L301.295 163.302L291.971 166.173L293.214 170.114L301.875 167.453Z" fill="url(#paint13_linear_25_4080)"/>
<path fill-rule="evenodd" clip-rule="evenodd" d="M213.812 142.168C213.033 142.938 211.773 142.938 210.994 142.168C210.215 143.092 210.215 140.15 210.994 139.38C211.773 138.61 213.033 138.61 213.812 139.38C214.592 140.15 214.592 143.092 213.812 142.168Z" fill="#91B3FA"/>
<path fill-rule="evenodd" clip-rule="evenodd" d="M275.645 121.93C275.392 122.991 274.32 123.646 273.246 123.395C272.173 123.143 271.51 123.259 271.764 121.025C272.017 121.312 273.091 119.309 274.162 119.559C275.236 119.81 275.898 120.869 275.645 121.93Z" fill="#91B3FA"/>
<path fill-rule="evenodd" clip-rule="evenodd" d="M212.403 140.987C213.7 140.987 212.769 140.972 212.1 140.933C211.637 140.764 211.401 140.268 211.572 139.812C212.693 136.719 213.763 133.717 214.78 130.805C219.627 117.024 223.454 106.127 228.896 103.543C229.331 103.335 229.872 103.517 230.082 103.947C230.294 104.379 230.11 105.608 229.675 105.122C224.896 107.394 222.662 118.513 216.458 131.38C215.425 134.29 214.955 137.305 213.25 140.399C213.105 140.764 212.76 140.987 212.403 140.987Z" fill="#7D97F4"/>
<path fill-rule="evenodd" clip-rule="evenodd" d="M273.474 121.671C273.316 121.671 273.156 121.63 273.011 121.538L271.201 120.456C254.948 110.734 254.63 110.55 247.313 108.464C247.404 108.333 246.575 107.837 246.709 107.379C247.404 106.91 247.342 106.647 247.805 106.78C255.344 108.932 255.977 111.063 272.114 118.956L273.922 120.039C274.344 120.287 274.476 120.835 274.225 121.239C274.065 121.528 273.764 121.671 273.474 121.671Z" fill="#7D97F4"/>
<path fill-rule="evenodd" clip-rule="evenodd" d="M321.167 216.014C321.167 216.014 324.559 217.646 325.18 219.525C325.682 221.027 329.432 221.222 329.8 224.185C329.999 225.71 331.135 228.246 332.681 227.174C336.51 227.76 342.424 229.718 343.374 236.307C344.102 241.331 341.5 243.237 338.794 243.89C336.8 244.373 335.467 246.293 335.876 249.213C336.259 250.193 337.153 252.412 332.337 254.162C325.897 258.075 317.335 244.883 317.335 244.883L315.807 221.848L321.167 216.014Z" fill="url(#paint14_linear_25_4080)"/>
<path fill-rule="evenodd" clip-rule="evenodd" d="M280.312 210.545C280.312 210.545 295.298 233.986 313.122 238.5C313.122 238.5 310.549 249.085 306.972 249.397C306.972 249.397 285.04 231.309 280.914 213.874L280.312 210.545Z" fill="url(#paint15_linear_25_4080)"/>
<path fill-rule="evenodd" clip-rule="evenodd" d="M352.024 360.432L352.514 364.373C352.605 365.118 353.2 365.719 353.966 365.798C355.245 366.673 358.475 366.085 359.313 367.358C360.198 365.785 360.768 364.898 360.501 364.061C360.014 362.533 359.116 360.25 357.821 358.907H353.384C352.553 358.92 351.92 361.282 352.024 360.432Z" fill="#10284A"/>
<path fill-rule="evenodd" clip-rule="evenodd" d="M317.324 314.195L316.571 318.54C316.571 318.54 319.08 343.612 319.517 353.633C319.582 355.527 319.173 356.765 319.489 358.096L314.9 365.08L325.048 358.618L325.273 357.287L323.463 354.821L325.84 326.737C325.985 325.092 325.63 323.434 326.156 321.972L322.779 317.719L317.324 314.195Z" fill="url(#paint16_linear_25_4080)"/>
<path fill-rule="evenodd" clip-rule="evenodd" d="M313.257 366.098H316.781C317.441 366.098 318.06 365.798 318.472 365.276C319.567 365.176 321.851 361.1 322.948 361.034C324.414 360.944 324.23 366.098 324.23 366.098H325.048L326.091 359.69C326.353 358.072 325.537 356.481 324.07 355.723C324.07 355.723 323.741 358.177 321.918 359.26C320.097 360.343 314.51 364.232 314.51 364.232C314.51 364.232 313.824 364.14 313.073 364.273C311.975 364.468 312.133 366.098 313.257 366.098Z" fill="#10284A"/>
<path fill-rule="evenodd" clip-rule="evenodd" d="M332.482 316.255C332.482 316.255 347.152 343.753 349.49 350.043C351.825 356.322 352.633 361.568 352.672 362.065C352.724 362.833 353.702 363.577 356.38 363.577C357.768 363.577 358.454 363.03 358.785 362.495C359.075 362.037 359.088 361.476 358.839 360.993C357.993 359.296 355.3 353.868 354.295 351.414C353.107 348.479 350.546 335.167 349.132 330.532C347.732 325.9 346.137 320.889 341.482 316.255C341.482 316.255 335.822 312.184 332.482 316.255Z" fill="url(#paint17_linear_25_4080)"/>
<path fill-rule="evenodd" clip-rule="evenodd" d="M323.212 271.193C319.422 255.349 329.009 246.382 329.009 246.382C322.963 240.64 311.938 238.032 311.938 238.032C311.938 238.032 301.427 245.625 302.667 251.577C303.392 255.06 310.062 272.459 310.062 272.459C310.062 272.459 317.865 275.328 323.212 271.193Z" fill="#E8CBB3"/>
<path fill-rule="evenodd" clip-rule="evenodd" d="M331.596 279.034C330.053 274.455 323.212 271.193 323.212 271.193C317.865 275.341 310.075 272.457 310.075 272.457C310.075 272.457 308.687 277.678 310.549 283.424C310.603 287.376 316.584 318.541 316.584 318.541C326.011 320.432 340.497 316.647 340.497 316.647C334.488 307.451 333.142 283.617 331.596 279.034Z" fill="url(#paint18_linear_25_4080)"/>
<path fill-rule="evenodd" clip-rule="evenodd" d="M318.816 227.552L321.892 241.215C322.184 242.416 321.074 242.221 319.846 241.999C317.824 241.62 315.238 240.85 314.365 239.296C314.272 239.14 314.235 238.958 314.207 238.787L312.887 229.313C312.783 228.556 313.19 227.839 314.748 227.527L316.439 226.403C317.428 225.971 318.563 226.521 318.816 227.552Z" fill="url(#paint19_linear_25_4080)"/>
<path fill-rule="evenodd" clip-rule="evenodd" d="M329.007 246.37C329.007 246.37 350.479 261.547 331.756 277.508C331.756 277.508 331.042 279.787 329.641 278.721C328.929 278.931 326.832 280.497 325.773 281.319C325.431 281.58 324.942 281.49 324.704 281.122C324.52 280.837 324.505 282.333 324.652 280.185L327.306 274.624C328.046 274.716 330.356 274.181 329.975 274.507C330.475 274.898 331.46 274.729 331.503 274.166C332.958 271.257 337.153 262.683 324.492 253C324.069 254.155 323.966 252.033 324.227 251.536C325.007 250.062 326.803 247.099 329.007 246.37Z" fill="url(#paint20_linear_25_4080)"/>
<path fill-rule="evenodd" clip-rule="evenodd" d="M312.928 215.1C312.928 215.1 310.549 217.293 308.239 222.88C306.825 228.464 309.124 230.462 311.46 230.345C313.811 230.227 317.205 229.508 320.149 225.503C323.108 221.483 317.218 212.426 312.928 215.1Z" fill="url(#paint21_linear_25_4080)"/>
<path fill-rule="evenodd" clip-rule="evenodd" d="M317.19 223.243C317.19 223.243 320.03 215.244 311.672 216.47L310.313 217.867C310.313 217.867 307.024 214.212 310.668 211.446C314.313 208.68 319.357 209.383 322.143 214.42C324.942 219.459 325.946 222.995 323.61 226.127C321.273 229.26 319.502 226.572 319.502 226.572C319.502 226.572 322.325 223.857 319.686 224.352C318.803 221.534 317.64 223.374 317.64 223.374L317.19 223.243Z" fill="url(#paint22_linear_25_4080)"/>
<path fill-rule="evenodd" clip-rule="evenodd" d="M318.104 223.924C318.104 223.924 318.697 219.812 320.823 220.986C322.95 222.161 320.056 226.384 318.896 225.736L318.104 223.924Z" fill="url(#paint23_linear_25_4080)"/>
<path fill-rule="evenodd" clip-rule="evenodd" d="M280.418 215.374C280.377 215.858 282.187 217.141 282.769 215.772C282.611 213.235 282.334 209.319 281.632 208.718C277.935 206.273 271.346 201.829 271.346 201.829C272.536 202.937 271.571 203.669 271.571 203.669L274.859 205.86C274.515 206.983 274.015 207.973 273.961 209.268C273.92 210.233 274.277 211.185 275.134 212.969C275.599 212.672 276.47 213.626 279.009 214.345C278.769 215.714 280.418 215.374 280.418 215.374Z" fill="url(#paint24_linear_25_4080)"/>
<path fill-rule="evenodd" clip-rule="evenodd" d="M278.624 213.782L279.124 213.575C279.059 213.419 277.474 209.619 276.721 208.836C276.431 208.536 276.286 208.275 276.299 208.081C276.314 207.963 276.364 207.858 276.472 209.589L279.137 209.15L280.312 210.965L280.775 210.676L279.52 208.733L276.405 207.088L276.26 207.205C275.941 207.466 275.783 209.589 275.757 208.042C275.731 208.406 275.915 208.784 276.327 209.202C276.907 210.958 278.186 212.713 278.624 213.782Z" fill="url(#paint25_linear_25_4080)"/>
<path fill-rule="evenodd" clip-rule="evenodd" d="M116.844 294.421C109.859 285.234 111.63 279.962 116.721 275.174L118.139 291.46L116.844 294.421Z" fill="url(#paint26_linear_25_4080)"/>
<path fill-rule="evenodd" clip-rule="evenodd" d="M116.842 294.421C113.714 287.218 113.067 281.201 116.721 275.174C108.036 277.495 103.705 281.541 103.295 288.249L116.842 294.421Z" fill="url(#paint27_linear_25_4080)"/>
<path fill-rule="evenodd" clip-rule="evenodd" d="M109.664 364.112H115.959C116.725 364.112 117.347 363.498 117.347 362.743V348.988C117.347 348.231 116.725 347.617 115.959 347.617H109.664C107.614 347.617 106.993 348.231 106.993 348.988V362.743C107.006 363.486 107.627 364.112 109.664 364.112Z" fill="url(#paint28_linear_25_4080)"/>
<path fill-rule="evenodd" clip-rule="evenodd" d="M62.5081 365.55H70.0889C70.853 365.55 71.825 364.936 71.825 364.179V350.424C71.825 349.666 70.853 349.052 70.0889 349.052H62.5081C61.7418 349.052 61.1227 349.666 61.1227 350.424V364.179C61.1227 364.936 61.7418 365.55 62.5081 365.55Z" fill="url(#paint29_linear_25_4080)"/>
<path fill-rule="evenodd" clip-rule="evenodd" d="M86.8047 283.212C112.381 283.212 133.573 297.19 137.403 315.449H141.113C143.676 315.449 145.748 317.496 145.748 320.027V329.946C145.748 332.479 143.676 334.527 141.113 334.527H134.894C127.698 349.131 108.88 360.49 86.8047 360.49C59.1831 360.49 35.5856 343.566 35.5856 321.371C35.5856 300.294 59.1831 283.212 86.8047 283.212Z" fill="url(#paint30_linear_25_4080)"/>
<path fill-rule="evenodd" clip-rule="evenodd" d="M116.844 313.607C115.543 313.607 114.493 314.341 114.493 311.283C114.493 309.999 115.543 308.962 116.844 308.962C118.143 308.962 120.401 309.999 120.401 311.283C120.401 314.341 118.143 313.607 116.844 313.607Z" fill="url(#paint31_linear_25_4080)"/>
<path fill-rule="evenodd" clip-rule="evenodd" d="M63.4194 290.012C72.9398 286.959 78.3797 286.071 86.9627 286.163C87.2398 286.163 87.4758 285.953 87.4758 285.679C87.4909 285.392 87.2528 285.157 86.9627 285.144C78.2476 285.052 72.7146 285.953 63.0882 290.784C62.993 289.124 62.6531 289.438 62.7722 289.725V289.74C63.9238 289.973 63.1683 290.091 63.4194 290.012Z" fill="url(#paint32_linear_25_4080)"/>
<path fill-rule="evenodd" clip-rule="evenodd" d="M108.088 291.552C98.6608 280.733 101.053 273.619 105.501 267.147L109.846 289.137L108.088 291.552Z" fill="url(#paint33_linear_25_4080)"/>
<path fill-rule="evenodd" clip-rule="evenodd" d="M108.09 291.552C103.85 283.42 102.992 275.277 105.501 267.147C96.1801 270.277 90.3419 275.748 89.7877 284.804L108.09 291.552Z" fill="url(#paint34_linear_25_4080)"/>
<path fill-rule="evenodd" clip-rule="evenodd" d="M42.1901 315.603C42.1901 315.603 42.0602 315.447 41.6706 315.147C41.5407 315.068 41.5407 314.991 41.3892 314.899C41.1294 314.768 41.1034 315.517 41.0775 314.454C41.0385 314.298 41.0104 314.129 40.9736 313.947C40.9324 313.763 40.8653 313.607 40.8134 313.423C40.6012 312.706 40.2181 311.871 39.6379 311.022C39.8955 310.175 38.2525 309.313 37.1961 308.609C36.1528 307.905 34.8713 307.368 33.4599 307.145C33.1027 307.094 32.7455 307.068 32.3753 307.042C32.1913 307.042 32.0052 307.042 31.8212 307.042H31.5441C31.5571 307.042 31.3579 307.055 31.438 307.042H31.425H31.3991H31.3449L31.241 307.055L31.0159 307.081C30.9358 307.094 30.8839 307.094 30.7648 307.119C30.5527 307.16 30.544 307.199 30.1176 307.25C29.7214 307.368 29.3513 307.473 28.9811 307.642C29.1586 307.956 27.5437 308.399 26.9506 308.947C26.3401 309.494 25.8271 310.147 25.431 310.866C25.0348 311.585 24.7577 312.366 24.6235 313.174C24.5716 313.581 24.5326 313.985 24.5456 314.402V316.416V314.794V314.807V314.833L24.5586 314.899L24.5716 315.017L24.5997 315.265L24.6647 315.616C24.6906 315.733 24.7166 315.864 24.7448 315.956L24.8357 316.255C24.8898 316.465 24.9937 316.647 25.0738 318.577C25.1539 317.038 25.2708 317.22 25.379 317.404C25.4829 317.586 25.615 317.757 25.734 317.926C26.2492 318.592 26.8965 319.139 27.6217 319.531C30.2193 319.922 29.1543 320.158 29.9465 320.224C30.1435 320.25 30.6522 320.237 30.5418 320.237H30.6869H30.7258H30.7388C30.7388 320.237 30.8579 320.237 30.8189 320.237L30.8709 320.224L31.109 320.196C31.1761 320.196 31.306 320.171 31.4121 320.145C31.5181 320.117 31.635 320.106 31.7433 320.066C31.9402 320.002 32.1372 319.948 32.3234 319.871C33.83 319.27 34.8583 317.926 35.1353 316.544C35.1765 316.373 35.2003 316.191 35.2133 316.02C35.2284 315.928 35.2284 315.851 35.2414 315.759V315.5V315.367V315.342V315.265V315.211L35.2133 315.017C35.1895 314.871 35.1483 315.646 35.0964 314.467C35.0033 314.141 34.8583 313.829 35.1548 313.54C34.5011 313.269 34.3041 313.005 34.079 312.798C33.1676 311.91 31.9013 311.649 30.951 311.805C29.8275 312.002 29.1413 312.654 28.7841 313.281C28.6001 313.592 28.494 313.906 28.4421 314.18C28.388 314.454 28.388 316.287 28.388 314.886C28.4009 315.083 28.4269 315.237 28.4551 315.342C28.4789 315.447 28.494 315.5 28.494 315.5C28.6001 315.8 28.9291 315.969 29.2344 315.864C29.5114 315.774 29.6825 315.485 29.6283 315.211V315.186C29.6283 315.186 29.6283 315.16 29.6153 315.106C29.6045 315.055 29.6045 314.976 29.6045 314.871C29.6153 315.902 29.6695 314.31 29.9054 313.972C30.0266 313.801 30.1847 313.645 31.2151 313.517C32.2541 313.45 30.6068 313.397 30.7388 313.358C30.8579 313.307 31.0029 313.294 31.096 313.281C31.122 313.281 31.1869 313.281 31.2281 313.269H31.306H31.3449C31.267 313.269 31.332 313.269 31.319 313.269H31.332H31.3449C31.425 313.281 31.5051 313.281 31.5831 313.294C31.7433 313.32 31.9013 313.358 32.0463 313.41C32.3494 313.527 34.1591 313.711 32.8646 313.985C32.9836 314.116 33.0745 314.259 33.1546 314.415C33.2347 315.111 33.2867 314.743 33.3278 314.925C33.3386 314.976 33.3386 315.002 33.3386 315.042L33.3516 315.094V315.119V315.173L33.3668 315.367V315.421C33.3668 315.329 33.3668 315.393 33.3668 315.38V315.393V315.408L33.3516 315.485L33.3386 315.641C33.3386 315.693 33.3278 315.746 33.3127 315.785C33.2997 315.889 33.2737 315.981 33.2477 316.086C33.0226 316.869 32.3624 317.548 31.5441 317.796C31.451 317.834 31.332 317.847 31.241 317.873C31.1869 317.888 31.1609 317.888 31.109 317.888C31.0549 317.888 31.0419 317.898 30.951 317.898L30.7107 317.913H30.6587C30.6068 317.913 30.7258 317.913 30.7107 317.913H30.6977H30.6739L30.5786 317.898C31.8645 317.888 30.6522 317.888 30.2366 317.86C29.7734 317.783 29.3383 317.614 28.9573 317.353C28.572 317.09 29.0287 317.785 27.9918 316.373C27.9399 316.268 27.8728 316.176 27.8338 316.073C27.7948 315.969 27.7277 315.877 27.7017 315.759C27.6758 315.656 27.6217 315.551 27.6087 315.434L27.5697 315.278C27.5545 315.224 27.5545 315.186 27.5545 315.147C27.5545 315.106 27.5437 315.068 27.5437 315.017L27.5307 314.781V316.031V315.367V315.111V314.982C27.5307 314.726 27.5437 316.287 27.5307 315.646L27.5437 314.443C27.5545 314.206 27.6087 313.972 27.6476 313.737C27.7537 313.281 27.9658 312.849 28.8988 313.356C28.4789 312.092 28.7971 311.754 29.1543 311.478C29.5114 311.204 29.9054 311.009 31.3882 310.879C32.384 310.8 30.7258 310.774 30.9228 310.722C31.0029 310.722 31.0809 310.71 31.1609 310.697C31.1869 310.684 31.28 310.684 31.3449 310.684L31.5701 310.669H31.6761H31.7281H31.7562H31.7671C31.8601 310.669 31.6632 310.669 31.6891 310.669L31.8472 310.684C31.9532 310.697 32.0571 310.697 32.1654 310.71C32.3753 310.735 33.6395 310.774 32.7845 310.827C33.5919 311.022 34.276 311.401 36.4753 311.844C35.3605 312.289 35.7696 312.798 36.0337 313.281C36.2978 313.763 36.4688 314.218 36.5489 315.367C36.5619 316.287 36.6009 314.794 36.6009 314.858C36.6009 314.925 36.616 314.991 36.616 315.042C36.6268 315.094 36.6268 315.147 36.6398 315.198C36.6398 315.288 36.6398 315.382 36.6528 315.447C36.668 315.746 36.668 315.917 36.668 315.917C36.7069 317.182 37.7763 318.162 39.8955 318.121C40.3393 318.082 43.1209 317.026 42.7096 315.759C42.32 315.733 42.1901 315.656 42.1901 315.603Z" fill="url(#paint35_linear_25_4080)"/>
<path opacity="0.698" fill-rule="evenodd" clip-rule="evenodd" d="M50.2688 342.593C50.1757 342.593 50.0697 342.567 51.8231 344.08C46 338.951 42.0667 334.854 39.757 330.325C39.6509 330.104 39.731 329.843 39.9562 329.739C40.1661 330.943 40.4432 329.711 40.5493 329.933C42.8071 334.345 46.1732 338.337 50.5589 341.823C50.7429 341.979 50.7818 342.253 50.6238 343.438C50.5178 344.358 50.3987 342.593 50.2688 342.593Z" fill="white"/>
<path opacity="0.698" fill-rule="evenodd" clip-rule="evenodd" d="M89.8807 356.446C78.7498 356.446 68.1449 352.537 57.9384 347.642C57.7284 347.524 57.6375 347.263 57.7544 347.043C57.8734 346.833 58.1375 347.974 58.3626 346.859C68.0021 351.949 80.3755 354.677 91.6623 354.377C103.666 354.05 113.913 350.554 120.5 345.043C120.687 344.354 120.964 344.367 121.135 345.299C122.046 344.732 121.916 345.006 121.109 345.175C114.348 351.35 103.904 354.938 91.6904 356.19C92.6927 356.446 90.4869 356.446 89.8807 356.446Z" fill="white"/>
<path fill-rule="evenodd" clip-rule="evenodd" d="M20.4392 225.58C13.8325 225.58 7.11539 219.694 7.11539 212.413C7.11539 205.13 13.8325 199.244 20.4392 199.244C27.8078 199.244 33.7629 205.13 33.7629 212.413C33.7629 219.694 27.8078 225.58 20.4392 225.58Z" fill="url(#paint36_linear_25_4080)"/>
<path fill-rule="evenodd" clip-rule="evenodd" d="M20.4391 225.137C13.3216 225.137 7.56564 219.448 7.56564 212.413C7.56564 205.376 13.3216 199.687 20.4391 199.687C27.5589 199.687 33.3148 205.376 33.3148 212.413C33.3148 219.448 27.5589 225.137 20.4391 225.137Z" fill="url(#paint37_linear_25_4080)"/>
<path opacity="0.698" fill-rule="evenodd" clip-rule="evenodd" d="M9.82127 208.797C9.74334 208.797 9.65242 208.669 9.58531 208.284C9.32122 207.479 9.21515 207.152 9.34719 206.891C11.4729 202.73 15.7266 200.132 20.4521 200.132C21.2055 200.132 21.9588 200.196 22.6969 200.327C22.987 200.38 23.1862 200.654 23.132 200.954C23.0801 202.357 22.803 201.437 22.4999 201.384C23.4221 202.614 21.1383 201.972 20.4521 201.972C16.1487 201.972 12.2652 203.564 10.3105 207.375C10.2066 207.749 10.0204 208.797 9.82127 208.797Z" fill="white"/>
<path opacity="0.78" fill-rule="evenodd" clip-rule="evenodd" d="M28.4204 220.312C24.1603 224.521 17.2743 224.521 13.248 220.312C9.63293 216.949 9.63293 209.296 13.248 205.085C17.2743 200.874 24.1603 200.874 28.4204 205.085C34.5703 209.296 34.5703 216.949 28.4204 220.312Z" fill="white"/>
<path fill-rule="evenodd" clip-rule="evenodd" d="M21.1275 220.699V219.525C18.4043 219.473 17.1899 219.185 16.3197 218.808C16.0167 218.675 15.8565 219.153 15.9366 218.01L16.2396 216.915C16.3457 216.51 16.796 218.168 17.177 216.472C18.0363 216.823 19.1057 217.111 20.253 217.111C21.4436 217.111 22.3268 216.707 22.3268 215.896C22.3268 215.154 21.6406 214.722 19.9889 214.279C17.6272 213.639 15.9366 212.621 15.9366 210.573C15.9366 208.718 17.3112 207.295 21.5172 206.919V205.744C21.5172 205.365 19.9889 205.064 20.3742 205.064H21.0734C21.4566 205.064 22.7727 205.365 22.7727 205.744V206.801C22.9069 206.84 23.7403 207.036 24.4006 207.27C24.7448 207.387 24.9288 207.753 24.8357 208.093L24.5586 209.097C24.4547 209.488 24.0304 209.91 23.6473 209.555C23.0411 209.332 22.1818 209.084 21.0604 209.084C21.1275 209.084 19.2378 209.659 19.2378 210.181C19.2378 210.819 20.0842 211.264 21.9177 211.812C24.5456 212.595 25.628 213.665 25.628 215.597C25.628 217.37 24.2945 218.964 22.3831 219.369V220.687C22.3831 221.065 21.4154 221.365 21.0345 221.365H20.3331C19.9629 221.39 21.1275 221.078 21.1275 220.699Z" fill="url(#paint38_linear_25_4080)"/>
<path fill-rule="evenodd" clip-rule="evenodd" d="M58.3496 219.72C46.1299 219.72 35.1613 209.475 35.1613 196.803C35.1613 185.305 46.1299 173.886 58.3496 173.886C71.1712 173.886 81.5358 185.305 81.5358 196.803C81.5358 209.475 71.1712 219.72 58.3496 219.72Z" fill="url(#paint39_linear_25_4080)"/>
<path fill-rule="evenodd" clip-rule="evenodd" d="M58.3496 218.964C45.9502 218.964 35.9276 209.058 35.9276 196.803C35.9276 184.548 45.9502 174.644 58.3496 174.644C70.7469 174.644 80.7695 184.548 80.7695 196.803C80.7695 209.058 70.7469 218.964 58.3496 218.964Z" fill="url(#paint40_linear_25_4080)"/>
<path opacity="0.698" fill-rule="evenodd" clip-rule="evenodd" d="M39.8631 188.138C39.783 188.138 39.692 188.125 39.6249 188.087C39.3608 187.954 39.2548 187.629 39.3868 187.368C43.0192 180.243 50.2926 175.831 58.3497 175.831C59.6312 175.831 60.9235 175.947 62.1769 176.169C62.4691 176.223 62.6661 176.497 62.6141 176.796C62.5622 177.083 62.2851 177.28 61.9799 177.226C62.4085 177.019 59.5641 176.901 58.3497 176.901C50.6909 176.901 43.7963 181.103 40.3501 187.851C40.2592 188.033 40.06 188.138 39.8631 188.138Z" fill="white"/>
<path opacity="0.78" fill-rule="evenodd" clip-rule="evenodd" d="M72.2514 210.552C64.8329 217.884 52.8383 217.884 45.4177 210.552C37.9993 203.217 37.9993 191.362 45.4177 184.278C52.8383 176.696 64.8329 176.696 72.2514 184.278C79.672 191.362 79.672 203.217 72.2514 210.552Z" fill="white"/>
<path fill-rule="evenodd" clip-rule="evenodd" d="M56.9751 211.223V209.189C54.8234 209.097 52.6976 208.6 51.178 207.948C50.6368 209.311 50.3597 207.113 50.5178 206.553L51.0459 204.647C51.2451 203.955 52.5158 203.59 52.6846 203.863C54.832 204.49 56.0378 204.972 58.0315 204.972C60.1052 204.972 61.6508 204.281 61.6508 202.858C61.6508 201.578 60.4602 200.81 57.5704 200.053C53.4639 198.943 50.5048 197.169 50.5048 193.592C50.5048 190.369 52.8946 187.903 57.0422 187.237V185.2C57.0422 184.548 57.5834 185.284 58.2436 185.284H59.458C60.1182 185.284 61.088 184.548 61.088 185.2V187.027C62.6531 187.107 64.1056 187.445 65.2551 187.838C65.8482 188.046 66.1643 188.673 66.0084 189.259L65.5192 191.022C65.333 191.7 64.5927 192.066 63.9346 191.818C63.7723 191.426 61.3716 191.007 59.432 191.007C56.9751 191.007 56.2759 192.013 56.2759 192.913C56.2759 194.024 57.7544 195.639 60.9495 195.759C65.5192 197.115 67.4198 199.619 67.4198 202.349C67.4198 205.866 66.4781 208.222 60.6074 208.915V211.198C60.6074 212.178 60.0663 212.385 59.406 212.385H58.1895C57.5163 212.411 56.9751 212.563 56.9751 211.223Z" fill="url(#paint41_linear_25_4080)"/>
<path fill-rule="evenodd" clip-rule="evenodd" d="M74.3533 271.584C61.1572 271.584 50.4917 262.949 50.4917 248.002C50.4917 234.959 61.1572 224.418 74.3533 224.418C87.5472 224.418 98.2105 234.959 98.2105 248.002C98.2105 262.949 87.5472 271.584 74.3533 271.584Z" fill="url(#paint42_linear_25_4080)"/>
<path fill-rule="evenodd" clip-rule="evenodd" d="M74.3533 270.801C61.5967 270.801 51.284 260.61 51.284 248.002C51.284 235.798 61.5967 225.201 74.3533 225.201C87.1078 225.201 98.2776 235.798 98.2776 248.002C98.2776 260.61 87.1078 270.801 74.3533 270.801Z" fill="url(#paint43_linear_25_4080)"/>
<path opacity="0.698" fill-rule="evenodd" clip-rule="evenodd" d="M55.3256 239.059C55.2455 239.059 55.1524 239.048 55.0853 239.01C54.8233 238.877 54.7173 238.552 54.8493 238.291C59.8325 230.969 66.0603 226.427 74.3512 226.427C75.6716 226.427 76.9921 226.545 78.2866 226.78C78.5767 227.197 78.7758 227.105 78.7239 227.407C78.6698 227.694 78.3927 227.89 79.5313 227.837C76.8622 227.617 75.6067 227.51 74.3382 227.51C66.4543 227.51 59.3519 231.829 55.7996 238.785C55.7087 238.956 55.5225 239.059 55.3256 239.059Z" fill="white"/>
<path opacity="0.78" fill-rule="evenodd" clip-rule="evenodd" d="M88.662 262.14C81.0271 270.63 68.6796 270.63 61.0447 262.14C53.4076 254.592 53.4076 242.39 61.0447 234.842C68.6796 227.296 81.0271 227.296 88.662 234.842C96.2991 242.39 96.2991 254.592 88.662 262.14Z" fill="white"/>
<path fill-rule="evenodd" clip-rule="evenodd" d="M72.9397 262.84V260.739C70.7209 260.647 68.5281 260.138 66.9846 259.459C66.4305 259.224 66.1404 258.597 66.3092 258.024L66.8526 256.066C67.0496 255.349 67.8418 254.983 68.5281 255.27C70.0758 255.91 71.9764 256.419 74.0351 256.419C76.1738 256.419 77.7584 255.7 77.7584 254.241C77.7584 252.921 76.531 252.125 73.561 251.342C69.92 250.193 66.2984 250.133 66.2984 244.699C66.2984 241.37 68.7532 238.838 73.0198 238.16V236.059C73.0198 235.67 73.574 234.833 74.2602 234.833H75.5157C76.1998 234.833 76.7539 235.67 76.7539 236.059V237.94C78.8039 238.017 82.1072 238.37 81.4816 238.774C82.0899 238.984 83.8607 240.27 82.248 240.248L81.7479 242.063C81.5617 242.756 80.7954 243.145 80.3755 242.884C79.0269 242.48 77.4943 242.05 75.4876 242.05C72.9527 242.05 72.2405 243.081 72.2405 245.041C72.2405 245.169 75.1802 245.952 77.0462 246.945C81.7479 249.727 83.7005 250.272 83.7005 253.73C83.7005 258.456 81.3106 259.774 76.689 260.478V262.827C76.689 263.505 76.1348 264.053 75.4486 264.053H74.1931C73.4939 264.068 72.9397 263.518 72.9397 262.84Z" fill="url(#paint44_linear_25_4080)"/>
<path fill-rule="evenodd" clip-rule="evenodd" d="M104.96 233.149C95.7016 233.149 87.4757 225.426 87.4757 215.87C87.4757 206.315 95.7016 198.592 104.96 198.592C114.628 198.592 122.442 206.315 122.442 215.87C122.442 225.426 114.628 233.149 104.96 233.149Z" fill="url(#paint45_linear_25_4080)"/>
<path fill-rule="evenodd" clip-rule="evenodd" d="M104.96 232.576C95.6129 232.576 88.058 225.109 88.058 215.87C88.058 206.632 95.6129 200.859 104.96 200.859C114.307 200.859 121.862 206.632 121.862 215.87C121.862 225.109 114.307 232.576 104.96 232.576Z" fill="url(#paint46_linear_25_4080)"/>
<path opacity="0.698" fill-rule="evenodd" clip-rule="evenodd" d="M91.8918 209.463C92.8659 209.463 90.844 209.45 90.7769 209.411C90.515 209.281 90.4089 208.953 90.541 208.692C93.301 203.47 98.834 199.922 104.96 199.922C105.936 199.922 106.915 200.014 107.878 200.183C108.168 200.235 109.534 200.511 109.015 200.81C108.495 201.097 107.984 202.892 107.679 202.357C106.783 201.084 105.869 200.994 104.96 200.994C99.2431 200.994 94.0781 204.124 91.5043 209.176C91.4112 209.358 91.2142 209.463 91.8918 209.463Z" fill="white"/>
<path opacity="0.78" fill-rule="evenodd" clip-rule="evenodd" d="M115.437 226.226C109.846 231.752 100.806 231.752 95.2146 226.226C89.6232 220.699 89.6232 211.765 95.2146 206.238C100.806 200.71 109.846 200.71 115.437 206.238C121.029 211.765 121.029 220.699 115.437 226.226Z" fill="white"/>
<path fill-rule="evenodd" clip-rule="evenodd" d="M104.988 226.741V225.201C102.291 225.137 100.696 225.721 99.5462 224.262C99.1371 224.093 98.9249 223.635 99.044 223.205L99.4401 221.769C100.442 221.247 100.167 220.973 100.668 221.181C102.369 221.652 103.192 222.017 104.696 222.017C107.911 222.017 107.428 221.495 107.428 220.907C107.428 219.458 106.532 218.885 104.352 219.024C101.25 217.475 99.031 216.606 99.031 213.442C99.031 211.003 100.828 209.148 104.404 208.654V207.113C104.404 206.617 104.365 206.213 104.867 206.213H105.778C108.17 206.213 106.69 206.617 106.69 207.113V208.496C108.196 208.562 109.279 208.81 110.149 209.11C112.37 209.268 110.837 210.295 110.716 210.179L110.348 211.512C110.203 213.868 109.66 212.308 109.157 212.111C109.534 211.812 107.231 211.497 105.765 211.497C104.988 211.497 103.376 212.255 103.376 212.933C103.376 213.769 104.486 214.343 106.902 215.075C110.348 216.093 111.775 217.514 111.775 220.047C111.775 222.383 110.03 224.471 106.638 224.993V226.716C106.638 227.212 107.629 227.617 105.724 227.617H104.815C104.326 227.642 104.988 227.238 104.988 226.741Z" fill="url(#paint47_linear_25_4080)"/>
</g>
<defs>
<linearGradient id="paint0_linear_25_4080" x1="24989.3" y1="26724.5" x2="251.456" y2="-226.627" gradientUnits="userSpaceOnUse">
<stop stop-color="#DAE3FE"/>
<stop offset="1" stop-color="#E9EFFD"/>
</linearGradient>
<linearGradient id="paint1_linear_25_4080" x1="157.896" y1="208.88" x2="4545.54" y2="208.88" gradientUnits="userSpaceOnUse">
<stop stop-color="#DAE3FE"/>
<stop offset="1" stop-color="#E9EFFD"/>
</linearGradient>
<linearGradient id="paint2_linear_25_4080" x1="163.111" y1="231.532" x2="1626.02" y2="231.532" gradientUnits="userSpaceOnUse">
<stop stop-color="#DAE3FE"/>
<stop offset="1" stop-color="#E9EFFD"/>
</linearGradient>
<linearGradient id="paint3_linear_25_4080" x1="181.597" y1="231.532" x2="1644.72" y2="231.532" gradientUnits="userSpaceOnUse">
<stop stop-color="#DAE3FE"/>
<stop offset="1" stop-color="#E9EFFD"/>
</linearGradient>
<linearGradient id="paint4_linear_25_4080" x1="163.111" y1="290.664" x2="1626.02" y2="290.664" gradientUnits="userSpaceOnUse">
<stop stop-color="#DAE3FE"/>
<stop offset="1" stop-color="#E9EFFD"/>
</linearGradient>
<linearGradient id="paint5_linear_25_4080" x1="181.597" y1="290.664" x2="1644.72" y2="290.664" gradientUnits="userSpaceOnUse">
<stop stop-color="#DAE3FE"/>
<stop offset="1" stop-color="#E9EFFD"/>
</linearGradient>
<linearGradient id="paint6_linear_25_4080" x1="11061.1" y1="107.536" x2="1345.33" y2="7365.73" gradientUnits="userSpaceOnUse">
<stop stop-color="#FF928E"/>
<stop offset="1" stop-color="#FE7062"/>
</linearGradient>
<linearGradient id="paint7_linear_25_4080" x1="1804.43" y1="1584.58" x2="-64.4109" y2="896.525" gradientUnits="userSpaceOnUse">
<stop stop-color="#FF928E"/>
<stop offset="1" stop-color="#FE7062"/>
</linearGradient>
<linearGradient id="paint8_linear_25_4080" x1="2531.59" y1="1445.47" x2="249.756" y2="108.015" gradientUnits="userSpaceOnUse">
<stop stop-color="#FF928E"/>
<stop offset="1" stop-color="#FE7062"/>
</linearGradient>
<linearGradient id="paint9_linear_25_4080" x1="2583.27" y1="1524.98" x2="214.17" y2="208.422" gradientUnits="userSpaceOnUse">
<stop stop-color="#FF928E"/>
<stop offset="1" stop-color="#FE7062"/>
</linearGradient>
<linearGradient id="paint10_linear_25_4080" x1="2155.43" y1="1524.39" x2="57.1592" y2="515.444" gradientUnits="userSpaceOnUse">
<stop stop-color="#FF928E"/>
<stop offset="1" stop-color="#FE7062"/>
</linearGradient>
<linearGradient id="paint11_linear_25_4080" x1="2232.39" y1="1605.59" x2="49.2993" y2="593.823" gradientUnits="userSpaceOnUse">
<stop stop-color="#FF928E"/>
<stop offset="1" stop-color="#FE7062"/>
</linearGradient>
<linearGradient id="paint12_linear_25_4080" x1="2360.82" y1="1474.64" x2="186.773" y2="309.476" gradientUnits="userSpaceOnUse">
<stop stop-color="#FF928E"/>
<stop offset="1" stop-color="#FE7062"/>
</linearGradient>
<linearGradient id="paint13_linear_25_4080" x1="2266.14" y1="1606.43" x2="79.1735" y2="606.958" gradientUnits="userSpaceOnUse">
<stop stop-color="#FF928E"/>
<stop offset="1" stop-color="#FE7062"/>
</linearGradient>
<linearGradient id="paint14_linear_25_4080" x1="315.807" y1="216.014" x2="2099.2" y2="3402.82" gradientUnits="userSpaceOnUse">
<stop stop-color="#09005D"/>
<stop offset="1" stop-color="#1A0F91"/>
</linearGradient>
<linearGradient id="paint15_linear_25_4080" x1="280.312" y1="210.545" x2="2018.2" y2="3549.98" gradientUnits="userSpaceOnUse">
<stop stop-color="#FEBBBA"/>
<stop offset="1" stop-color="#FF928E"/>
</linearGradient>
<linearGradient id="paint16_linear_25_4080" x1="314.9" y1="5384.13" x2="2033" y2="941.532" gradientUnits="userSpaceOnUse">
<stop stop-color="#FEBBBA"/>
<stop offset="1" stop-color="#FF928E"/>
</linearGradient>
<linearGradient id="paint17_linear_25_4080" x1="332.482" y1="5209.74" x2="1094.7" y2="399.375" gradientUnits="userSpaceOnUse">
<stop stop-color="#FEBBBA"/>
<stop offset="1" stop-color="#FF928E"/>
</linearGradient>
<linearGradient id="paint18_linear_25_4080" x1="1416.32" y1="271.193" x2="-834.249" y2="4062.74" gradientUnits="userSpaceOnUse">
<stop stop-color="#09005D"/>
<stop offset="1" stop-color="#1A0F91"/>
</linearGradient>
<linearGradient id="paint19_linear_25_4080" x1="312.871" y1="1802.6" x2="677.13" y2="284.171" gradientUnits="userSpaceOnUse">
<stop stop-color="#FEBBBA"/>
<stop offset="1" stop-color="#FF928E"/>
</linearGradient>
<linearGradient id="paint20_linear_25_4080" x1="324.085" y1="246.37" x2="1857.63" y2="246.37" gradientUnits="userSpaceOnUse">
<stop stop-color="#FEBBBA"/>
<stop offset="1" stop-color="#FF928E"/>
</linearGradient>
<linearGradient id="paint21_linear_25_4080" x1="307.805" y1="1586.39" x2="1143.64" y2="343.755" gradientUnits="userSpaceOnUse">
<stop stop-color="#FEBBBA"/>
<stop offset="1" stop-color="#FF928E"/>
</linearGradient>
<linearGradient id="paint22_linear_25_4080" x1="308.951" y1="209.843" x2="1020.52" y2="1809.89" gradientUnits="userSpaceOnUse">
<stop stop-color="#09005D"/>
<stop offset="1" stop-color="#1A0F91"/>
</linearGradient>
<linearGradient id="paint23_linear_25_4080" x1="318.104" y1="659.109" x2="600.35" y2="311.58" gradientUnits="userSpaceOnUse">
<stop stop-color="#FEBBBA"/>
<stop offset="1" stop-color="#FF928E"/>
</linearGradient>
<linearGradient id="paint24_linear_25_4080" x1="271.346" y1="201.829" x2="949.248" y2="1412.17" gradientUnits="userSpaceOnUse">
<stop stop-color="#FEBBBA"/>
<stop offset="1" stop-color="#FF928E"/>
</linearGradient>
<linearGradient id="paint25_linear_25_4080" x1="275.755" y1="207.088" x2="777.773" y2="207.088" gradientUnits="userSpaceOnUse">
<stop stop-color="#FEBBBA"/>
<stop offset="1" stop-color="#FF928E"/>
</linearGradient>
<linearGradient id="paint26_linear_25_4080" x1="614.002" y1="275.174" x2="-56.7936" y2="402.948" gradientUnits="userSpaceOnUse">
<stop stop-color="#FF928E"/>
<stop offset="1" stop-color="#FE7062"/>
</linearGradient>
<linearGradient id="paint27_linear_25_4080" x1="174.524" y1="275.174" x2="31.1396" y2="2191.85" gradientUnits="userSpaceOnUse">
<stop stop-color="#FF928E"/>
<stop offset="1" stop-color="#FE7062"/>
</linearGradient>
<linearGradient id="paint28_linear_25_4080" x1="278.358" y1="347.617" x2="-139.035" y2="1908.67" gradientUnits="userSpaceOnUse">
<stop stop-color="#FF928E"/>
<stop offset="1" stop-color="#FE7062"/>
</linearGradient>
<linearGradient id="paint29_linear_25_4080" x1="238.257" y1="349.052" x2="-167.377" y2="1916.98" gradientUnits="userSpaceOnUse">
<stop stop-color="#FF928E"/>
<stop offset="1" stop-color="#FE7062"/>
</linearGradient>
<linearGradient id="paint30_linear_25_4080" x1="6302.15" y1="283.212" x2="2611.91" y2="7888.87" gradientUnits="userSpaceOnUse">
<stop stop-color="#FF928E"/>
<stop offset="1" stop-color="#FE7062"/>
</linearGradient>
<linearGradient id="paint31_linear_25_4080" x1="639.302" y1="525.759" x2="170.348" y2="222.569" gradientUnits="userSpaceOnUse">
<stop stop-color="#2B3582"/>
<stop offset="0.65" stop-color="#150E42"/>
</linearGradient>
<linearGradient id="paint32_linear_25_4080" x1="62.7472" y1="285.138" x2="2535.68" y2="285.138" gradientUnits="userSpaceOnUse">
<stop stop-color="#E1473D"/>
<stop offset="1" stop-color="#E9605A"/>
</linearGradient>
<linearGradient id="paint33_linear_25_4080" x1="663.612" y1="267.147" x2="-407.088" y2="656.74" gradientUnits="userSpaceOnUse">
<stop stop-color="#FF928E"/>
<stop offset="1" stop-color="#FE7062"/>
</linearGradient>
<linearGradient id="paint34_linear_25_4080" x1="830.109" y1="267.147" x2="-337.6" y2="2247.08" gradientUnits="userSpaceOnUse">
<stop stop-color="#FF928E"/>
<stop offset="1" stop-color="#FE7062"/>
</linearGradient>
<linearGradient id="paint35_linear_25_4080" x1="24.5431" y1="307.042" x2="82.0286" y2="1626.69" gradientUnits="userSpaceOnUse">
<stop stop-color="#FF928E"/>
<stop offset="1" stop-color="#FE7062"/>
</linearGradient>
<linearGradient id="paint36_linear_25_4080" x1="7.11539" y1="2194.42" x2="1722.98" y2="179.257" gradientUnits="userSpaceOnUse">
<stop stop-color="#FF928E"/>
<stop offset="1" stop-color="#FE7062"/>
</linearGradient>
<linearGradient id="paint37_linear_25_4080" x1="1428.84" y1="199.687" x2="30.5766" y2="2336.92" gradientUnits="userSpaceOnUse">
<stop stop-color="#FF928E"/>
<stop offset="1" stop-color="#FE7062"/>
</linearGradient>
<linearGradient id="paint38_linear_25_4080" x1="622.617" y1="205.064" x2="-377.48" y2="949.79" gradientUnits="userSpaceOnUse">
<stop stop-color="#FF928E"/>
<stop offset="1" stop-color="#FE7062"/>
</linearGradient>
<linearGradient id="paint39_linear_25_4080" x1="35.1613" y1="3646.2" x2="3021.39" y2="139.204" gradientUnits="userSpaceOnUse">
<stop stop-color="#FF928E"/>
<stop offset="1" stop-color="#FE7062"/>
</linearGradient>
<linearGradient id="paint40_linear_25_4080" x1="2511.07" y1="174.644" x2="76.0023" y2="3896.61" gradientUnits="userSpaceOnUse">
<stop stop-color="#FF928E"/>
<stop offset="1" stop-color="#FE7062"/>
</linearGradient>
<linearGradient id="paint41_linear_25_4080" x1="610.29" y1="184.93" x2="-639.048" y2="2386.74" gradientUnits="userSpaceOnUse">
<stop stop-color="#FF928E"/>
<stop offset="1" stop-color="#FE7062"/>
</linearGradient>
<linearGradient id="paint42_linear_25_4080" x1="50.4918" y1="3797.76" x2="3123.56" y2="189.008" gradientUnits="userSpaceOnUse">
<stop stop-color="#FF928E"/>
<stop offset="1" stop-color="#FE7062"/>
</linearGradient>
<linearGradient id="paint43_linear_25_4080" x1="2645.19" y1="225.201" x2="158.592" y2="4096.56" gradientUnits="userSpaceOnUse">
<stop stop-color="#FF928E"/>
<stop offset="1" stop-color="#FE7062"/>
</linearGradient>
<linearGradient id="paint44_linear_25_4080" x1="994.825" y1="234.833" x2="-728.804" y2="1870.16" gradientUnits="userSpaceOnUse">
<stop stop-color="#FF928E"/>
<stop offset="1" stop-color="#FE7062"/>
</linearGradient>
<linearGradient id="paint45_linear_25_4080" x1="87.4758" y1="2816.72" x2="2339.02" y2="172.409" gradientUnits="userSpaceOnUse">
<stop stop-color="#FF928E"/>
<stop offset="1" stop-color="#FE7062"/>
</linearGradient>
<linearGradient id="paint46_linear_25_4080" x1="1953.94" y1="200.859" x2="249.229" y2="2945.7" gradientUnits="userSpaceOnUse">
<stop stop-color="#FF928E"/>
<stop offset="1" stop-color="#FE7062"/>
</linearGradient>
<linearGradient id="paint47_linear_25_4080" x1="779.091" y1="206.213" x2="-483.776" y2="1402.15" gradientUnits="userSpaceOnUse">
<stop stop-color="#FF928E"/>
<stop offset="1" stop-color="#FE7062"/>
</linearGradient>
<clipPath id="clip0_25_4080">
<rect width="368" height="368" fill="white"/>
</clipPath>
</defs>
</svg>
