<svg width="464" height="464" viewBox="0 0 464 464" fill="none" xmlns="http://www.w3.org/2000/svg">
<path fill-rule="evenodd" clip-rule="evenodd" d="M390.81 293.307C355.427 376.072 262.04 410.946 188.876 404.917C168.902 403.267 128.706 399.965 97.3139 370.424C37.0432 313.706 46.3232 195.129 104.017 125.329C111.447 116.336 162.887 56.1164 243.03 56.9168C302.702 57.5055 342.896 90.4974 347.912 94.5994C354.239 99.7904 368.197 112.123 380.767 131.695C410.32 177.683 412.921 241.879 390.81 293.307Z" fill="url(#paint0_linear_25_4248)"/>
<path fill-rule="evenodd" clip-rule="evenodd" d="M57.4432 318.558C91.2848 429.481 358.379 438.435 406.582 332.604C409.882 325.35 404.054 317.383 395.324 317.221L63.945 311.105C60.5085 311.018 56.2789 315.723 57.4432 318.558Z" fill="#BDD0FB"/>
<path fill-rule="evenodd" clip-rule="evenodd" d="M288.154 317.145C288.154 317.145 300.048 158.423 364.208 63.1083C368.523 56.7052 379.233 57.4055 381.841 64.3713C403.965 110.947 455.619 254.587 288.154 317.145Z" fill="#BDD0FB"/>
<path opacity="0.502" fill-rule="evenodd" clip-rule="evenodd" d="M302.374 304.876C302.048 305.3 302.661 305.801 303.049 305.427C317.206 291.885 369.936 225.608 373.874 109.595C373.888 109.22 373.311 109.171 373.262 109.533C370.852 136.797 354.176 238.076 302.374 304.876Z" fill="white"/>
<path fill-rule="evenodd" clip-rule="evenodd" d="M108.308 156.547C111.196 150.53 113.26 144.239 113.735 137.398C114.949 120.138 104.918 104.244 97.5386 89.3854C90.7599 75.7279 85.7327 55.3786 108.582 57.1925C126.792 58.6309 148.205 76.7777 150.642 97.0052C153.532 118.113 142.625 146.353 155.557 166.701C173.642 195.167 186.686 189.878 186.686 236.676C186.686 257.2 175.318 268.518 162.299 274.759C141.751 284.603 117.237 280.626 100.865 264.779C86.3954 250.785 77.8027 231.652 80.7056 210.45C83.6563 190.719 99.6658 174.544 108.308 156.547Z" fill="#BDD0FB"/>
<path fill-rule="evenodd" clip-rule="evenodd" d="M123.578 310.967C123.865 310.967 124.127 310.779 124.191 310.48C135.521 265.254 141.688 224.27 142.525 189.892C143.188 160.111 140.463 135.691 134.409 113.811C124.066 77.7534 107.844 66.1592 107.157 65.685C106.868 65.4849 106.469 65.5603 106.269 65.8474C106.069 66.1345 106.143 66.5347 106.43 67.048C106.594 66.8479 123.027 78.6292 133.233 114.348C142.663 147.366 148.528 208.136 122.964 310.178C122.877 310.516 123.091 310.867 123.427 310.954C123.478 310.967 123.528 310.967 123.578 310.967Z" fill="#7D97F4"/>
<path fill-rule="evenodd" clip-rule="evenodd" d="M90.1595 106.532C91.0353 105.68 92.0111 105.607 93.0363 105.718C99.8614 106.369 101.078 112.385 102.743 117.075C104.18 121.103 106.024 125.98 105.018 130.332C104.106 135.047 99.1031 138.887 95.4636 134.109C91.3354 128.669 85.1439 120.327 85.1062 113.332C85.0946 109.546 88.0874 106.745 90.1595 106.532Z" fill="#BDD0FB"/>
<path fill-rule="evenodd" clip-rule="evenodd" d="M58.2813 265.892C55.7786 249.396 61.77 230.449 64.77 213.002C66.3592 203.772 67.0857 194.616 65.6081 185.325C64.1335 176.082 59.7936 166.089 63.7956 156.884C71.862 138.336 91.0353 146.778 102.029 160.736C114.773 177.35 118.262 203.422 123.102 223.808C126.017 236.101 130.419 248.708 132.675 261.228C134.509 281.976 129.82 296.383 119.887 306.114C110.37 315.445 95.8754 317.383 85.289 310.892C73.689 305.038 62.3195 292.519 58.2813 265.892Z" fill="#91B3FA"/>
<path fill-rule="evenodd" clip-rule="evenodd" d="M102.154 342.447C102.116 342.447 102.079 342.447 102.054 342.433C101.703 342.371 101.478 342.046 101.906 341.708C102.283 341.458 105.73 316.383 105.844 281.764C106.778 249.834 102.516 203.87 86.623 161.311C85.5311 161.313 86.8695 160.624 86.0082 160.486C86.333 160.36 86.6955 160.511 86.8332 160.835C103.779 202.733 107.219 249.747 107.119 281.802C107.006 316.521 102.841 341.684 102.804 341.933C102.73 342.534 102.454 342.447 102.154 342.447Z" fill="#7D97F4"/>
<path fill-rule="evenodd" clip-rule="evenodd" d="M383.351 358.443H318.182V228.772H385.419V355.878C385.419 357.292 384.438 358.443 383.351 358.443Z" fill="#7D97F4"/>
<path opacity="0.671" fill-rule="evenodd" clip-rule="evenodd" d="M371.061 323.224H332.929C332.852 323.224 332.791 323.16 332.791 323.086V264.142C332.791 264.067 332.852 264.944 332.929 264.944H371.061C371.136 264.944 371.198 264.067 371.198 264.142V323.086C372.36 323.16 371.148 323.224 371.061 323.224Z" fill="white"/>
<path fill-rule="evenodd" clip-rule="evenodd" d="M368.518 320.022H353.565C353.526 320.022 353.488 319.984 353.488 319.947V267.268C353.488 267.231 353.526 267.193 353.565 267.193H368.518C368.895 267.193 369.272 267.231 369.272 267.268V319.934C369.388 319.984 369.025 320.022 368.518 320.022Z" fill="#7D97F4"/>
<path fill-rule="evenodd" clip-rule="evenodd" d="M350.426 320.022H335.668C335.63 320.022 335.592 319.984 335.592 319.947V267.268C335.592 267.231 335.63 267.193 335.668 267.193H350.426C350.464 267.193 350.5 267.231 350.5 267.268V319.934C350.513 319.984 350.475 320.022 350.426 320.022Z" fill="#7D97F4"/>
<path fill-rule="evenodd" clip-rule="evenodd" d="M398.076 239.015H314.994L311.605 179.208L380.291 177.908L401.353 233.888C402.452 236.276 400.715 239.015 398.076 239.015Z" fill="#214F8E"/>
<path fill-rule="evenodd" clip-rule="evenodd" d="M380.567 180.66L314.544 181.018L314.956 173.243L376.665 173.719C379.053 173.868 380.867 175.794 380.729 178.033L380.567 180.66Z" fill="#214F8E"/>
<path fill-rule="evenodd" clip-rule="evenodd" d="M84.9208 357.992H149.51V228.323H82.131V355.204C82.131 357.106 83.3809 357.992 84.9208 357.992Z" fill="#7D97F4"/>
<path opacity="0.671" fill-rule="evenodd" clip-rule="evenodd" d="M96.4758 322.773H134.609C134.683 322.773 134.747 322.711 134.747 322.635V263.691C134.747 263.616 134.683 263.553 134.609 263.553H96.4758C96.4004 263.553 96.338 263.616 96.338 263.691V322.635C96.338 322.711 96.4004 322.773 96.4758 322.773Z" fill="white"/>
<path fill-rule="evenodd" clip-rule="evenodd" d="M99.2148 319.571H113.973C114.009 319.571 114.048 319.534 114.048 319.496V267.105C114.048 266.793 114.009 266.755 113.973 266.755H99.2148C99.1771 266.755 99.1394 266.793 99.1394 267.105V319.496C99.1394 319.534 99.1771 319.571 99.2148 319.571Z" fill="#7D97F4"/>
<path fill-rule="evenodd" clip-rule="evenodd" d="M117.124 319.571H131.883C131.921 319.571 132.675 319.534 132.675 319.496V267.105C132.675 266.793 131.921 266.755 131.883 266.755H117.124C117.086 266.755 117.05 266.793 117.05 267.105V319.496C117.037 319.534 117.075 319.571 117.124 319.571Z" fill="#7D97F4"/>
<path fill-rule="evenodd" clip-rule="evenodd" d="M69.4738 238.566H152.556L155.945 178.757L87.2581 177.457L66.1968 233.437C65.0963 235.827 68.0485 238.566 69.4738 238.566Z" fill="#214F8E"/>
<path fill-rule="evenodd" clip-rule="evenodd" d="M86.9826 180.209L153.005 179.471L152.592 172.792L90.8845 173.268C88.914 173.417 86.6824 175.344 86.8202 177.582L86.9826 180.209Z" fill="#214F8E"/>
<path fill-rule="evenodd" clip-rule="evenodd" d="M140.074 221.212V353.176C140.074 359.005 144.801 363.719 150.617 363.719H323.511C325.374 363.719 326.888 362.207 326.888 360.344V221.212H140.074Z" fill="#91B3FA"/>
<path fill-rule="evenodd" clip-rule="evenodd" d="M251.197 354.39H213.076V280.463C213.076 280.213 214.411 280.012 213.526 280.012H250.759C251.01 280.012 251.208 280.213 251.208 280.463C251.208 280.463 251.208 354.39 251.197 354.39Z" fill="#7D97F4"/>
<path fill-rule="evenodd" clip-rule="evenodd" d="M249.758 351.589H214.501V283.265C214.501 283.015 215.615 283.388 214.952 283.388H249.309C249.558 283.388 249.758 283.015 249.758 283.265V351.589Z" fill="#214F8E"/>
<path fill-rule="evenodd" clip-rule="evenodd" d="M248.508 275.01H215.764C214.277 275.01 213.076 273.809 213.076 272.322V269.97C213.076 268.556 214.177 267.38 215.577 267.282L248.32 265.004C249.871 264.892 251.197 266.13 251.197 267.693V272.322C251.197 273.809 249.983 275.01 248.508 275.01Z" fill="#BDD0FB"/>
<path fill-rule="evenodd" clip-rule="evenodd" d="M251.691 359.006H213.776C212.087 359.006 210.724 357.641 210.724 355.953V353.29C210.724 351.689 211.951 347.249 213.552 347.136L250.734 347.661C252.497 347.536 253.998 348.937 253.998 350.713V355.966C253.998 357.63 252.622 359.006 251.691 359.006Z" fill="#BDD0FB"/>
<path fill-rule="evenodd" clip-rule="evenodd" d="M251.034 364.808H213.876C212.189 364.808 210.824 363.445 210.824 361.758V359.092C210.824 357.492 211.175 354.515 212.774 354.403L250.834 353.465C252.597 353.34 254.098 354.741 254.098 356.516V361.769C254.098 363.445 252.722 364.808 251.034 364.808Z" fill="#7D97F4"/>
<path fill-rule="evenodd" clip-rule="evenodd" d="M316.97 347.561H263.366C263.153 347.561 262.978 347.385 262.978 347.173V260.901C262.978 260.69 263.153 260.514 263.366 260.514H316.97C317.182 260.514 317.359 260.69 317.359 260.901V347.173C317.359 347.385 317.182 347.561 316.97 347.561Z" fill="white"/>
<path fill-rule="evenodd" clip-rule="evenodd" d="M313.868 344.347H266.342C266.143 344.347 265.979 344.184 265.979 343.985V264.529C265.979 264.329 266.143 264.167 266.342 264.167H313.868C314.068 264.167 314.231 264.329 314.231 264.529V343.985C314.231 344.184 314.067 344.347 313.868 344.347Z" fill="#7D97F4"/>
<path fill-rule="evenodd" clip-rule="evenodd" d="M287.729 263.066H290.493V347.561H287.729V263.066Z" fill="white"/>
<path fill-rule="evenodd" clip-rule="evenodd" d="M203.37 347.561H149.766C149.554 347.561 149.64 347.385 149.64 347.173V260.901C149.64 260.69 149.554 260.514 149.766 260.514H203.37C203.584 260.514 203.758 260.69 203.758 260.901V347.173C203.758 347.385 203.584 347.561 203.37 347.561Z" fill="white"/>
<path fill-rule="evenodd" clip-rule="evenodd" d="M200.268 344.347H152.743C152.544 344.347 153.555 344.184 153.555 343.985V264.529C153.555 264.329 152.544 264.167 152.743 264.167H200.268C200.47 264.167 200.632 264.329 200.632 264.529V343.985C200.632 344.184 200.47 344.347 200.268 344.347Z" fill="#7D97F4"/>
<path fill-rule="evenodd" clip-rule="evenodd" d="M175.305 263.066H176.894V347.561H175.305V263.066Z" fill="white"/>
<path fill-rule="evenodd" clip-rule="evenodd" d="M329.076 140.363L327.488 139.162V137.486H325.274L233.827 68.1108L140.896 137.486V221.212H327.488V148.916L329.076 140.363Z" fill="#91B3FA"/>
<path fill-rule="evenodd" clip-rule="evenodd" d="M274.459 76.1772H289.917V101.341H274.459V76.1772Z" fill="#7D97F4"/>
<path fill-rule="evenodd" clip-rule="evenodd" d="M295.008 80.2546H270.032V73.2888C270.032 72.8639 270.37 72.761 270.795 72.761H293.844C295.684 72.761 295.008 73.051 295.008 73.689V80.2546Z" fill="#214F8E"/>
<path fill-rule="evenodd" clip-rule="evenodd" d="M134.421 150.706L234.567 74.6765L327.662 147.667C331.077 150.317 336.104 148.467 336.967 144.214L338.294 138.765L234.567 57.9797L132.195 135.41C130.383 136.797 129.718 139.447 131.443 141.337L134.421 150.706Z" fill="#214F8E"/>
<path fill-rule="evenodd" clip-rule="evenodd" d="M213.689 208.174H251.822C251.897 208.174 251.959 208.111 251.959 208.036V149.092C251.959 149.016 251.897 148.954 251.822 148.954H213.689C213.614 148.954 213.552 149.016 213.552 149.092V208.036C213.539 208.111 213.601 208.174 213.689 208.174Z" fill="white"/>
<path fill-rule="evenodd" clip-rule="evenodd" d="M216.427 204.972H231.185C231.224 204.972 231.261 204.934 231.261 204.897V152.231C231.261 152.193 231.224 152.156 231.185 152.156H216.427C216.391 152.156 216.353 152.193 216.353 152.231V204.897C216.34 204.947 216.378 204.972 216.427 204.972Z" fill="#7D97F4"/>
<path fill-rule="evenodd" clip-rule="evenodd" d="M234.326 204.972H249.083C249.12 204.972 249.158 204.934 249.158 204.897V152.231C249.158 152.193 249.12 152.156 249.083 152.156H234.326C234.288 152.156 234.25 152.193 234.25 152.231V204.897C234.25 204.947 234.275 204.972 234.326 204.972Z" fill="#7D97F4"/>
<path fill-rule="evenodd" clip-rule="evenodd" d="M159.773 208.6H197.905C197.981 208.6 198.042 208.536 198.042 208.461V149.517C198.042 150.264 197.981 149.64 197.905 149.64H159.773C159.697 149.64 160.848 150.264 160.848 149.517V208.461C160.718 208.536 159.686 208.6 159.773 208.6Z" fill="white"/>
<path fill-rule="evenodd" clip-rule="evenodd" d="M163.516 205.398H177.268C177.307 205.398 177.345 205.359 177.345 205.323V152.656C177.345 152.62 177.307 152.581 177.268 152.581H163.516C163.139 152.581 162.762 152.62 162.762 152.656V205.323C162.632 205.359 163.009 205.398 163.516 205.398Z" fill="#7D97F4"/>
<path fill-rule="evenodd" clip-rule="evenodd" d="M180.409 205.398H195.167C195.205 205.398 195.241 205.359 195.241 205.323V152.656C195.241 152.62 195.205 152.581 195.167 152.581H180.409C180.371 152.581 180.334 152.62 180.334 152.656V205.323C180.334 205.359 180.358 205.398 180.409 205.398Z" fill="#7D97F4"/>
<path fill-rule="evenodd" clip-rule="evenodd" d="M265.266 209.136H303.399C303.475 209.136 303.537 209.074 303.537 208.999V150.055C303.537 149.979 303.475 149.917 303.399 149.917H265.266C265.192 149.917 265.13 149.979 265.13 150.055V208.987C265.13 209.074 265.192 209.136 265.266 209.136Z" fill="white"/>
<path fill-rule="evenodd" clip-rule="evenodd" d="M268.006 206.248H284.055C283.258 206.248 283.635 205.897 283.635 205.859V153.194C283.635 153.156 283.258 153.118 284.055 153.118H268.006C267.969 153.118 267.931 153.156 267.931 153.194V205.859C267.931 205.897 267.956 206.248 268.006 206.248Z" fill="#7D97F4"/>
<path fill-rule="evenodd" clip-rule="evenodd" d="M285.902 206.248H300.662C300.698 206.248 300.736 205.897 300.736 205.859V153.194C300.736 153.156 300.698 153.118 300.662 153.118H285.902C285.865 153.118 285.828 153.156 285.828 153.194V205.859C285.828 205.897 285.865 206.248 285.902 206.248Z" fill="#7D97F4"/>
<path fill-rule="evenodd" clip-rule="evenodd" d="M331.215 229.473H135.746C135.197 229.473 134.759 229.035 134.759 228.485V219.768C134.759 219.218 135.197 218.779 135.746 218.779H331.215C331.764 218.779 332.202 219.218 332.202 219.768V228.485C332.202 229.022 331.764 229.473 331.215 229.473Z" fill="#7D97F4"/>
<path fill-rule="evenodd" clip-rule="evenodd" d="M330.295 404.38C330.295 404.267 330.295 404.167 329.302 404.054C330.915 397.651 338.932 393.662 338.932 393.662L342.107 393.911C343.934 399.552 344.114 403.016 343.409 404.985C343.396 404.97 343.383 405.478 343.37 405.855C340.744 404.918 335.355 405.068 330.295 404.38Z" fill="#10284A"/>
<path fill-rule="evenodd" clip-rule="evenodd" d="M343.372 405.971C343.234 405.205 342.847 405.606 342.358 405.706C338.632 406.493 332.703 405.855 330.215 405.53C329.665 405.455 330.296 404.955 330.165 404.379C335.355 405.066 340.744 404.918 343.372 405.971Z" fill="#7D97F4"/>
<path fill-rule="evenodd" clip-rule="evenodd" d="M343.383 389.185L342.033 395.662C341.933 396.137 341.571 396.488 341.133 396.537C340.595 396.588 339.82 396.613 339.043 396.5C338.356 396.4 338.038 395.688 339.285 394.937L338.932 389.185H343.383Z" fill="url(#paint1_linear_25_4248)"/>
<path fill-rule="evenodd" clip-rule="evenodd" d="M315.507 405.101C319.203 404.505 320.834 404.092 321.772 403.705C321.772 404.054 321.772 404.405 321.759 404.779C321.746 405.168 321.459 405.492 321.097 405.479L301.836 405.355C301.224 405.355 300.861 405.478 301.123 404.08C303.65 404.292 310.078 404.754 315.507 405.101Z" fill="#7D97F4"/>
<path fill-rule="evenodd" clip-rule="evenodd" d="M301.123 404.079C301.148 404.029 301.161 403.979 301.198 403.929C302.899 401.553 307.226 396.813 315.794 394.761L319.896 394.636C319.896 394.636 321.722 397.813 321.759 403.703C320.821 404.092 319.725 404.505 315.494 405.101C310.078 404.754 303.65 404.292 301.123 404.079Z" fill="#10284A"/>
<path fill-rule="evenodd" clip-rule="evenodd" d="M320.847 389.47C320.783 388.909 319.921 393.524 319.596 395.312C319.522 395.737 319.184 396.05 318.796 396.075C318.095 396.114 316.957 396.125 315.981 395.85C315.456 395.712 315.107 395.174 315.143 394.574L315.607 388.484L320.847 389.47Z" fill="url(#paint2_linear_25_4248)"/>
<path fill-rule="evenodd" clip-rule="evenodd" d="M323.962 303.512C323.962 303.512 318.308 343.534 314.23 388.546C314.156 389.409 314.843 391.137 315.681 390.334C316.932 390.598 318.758 390.91 320.27 390.86C321.084 390.834 321.759 390.234 321.897 389.434C323.285 381.292 333.204 337.569 335.804 327.951C335.804 327.951 338.794 368.823 337.843 390.034C337.818 390.56 338.205 391.023 338.73 391.085C339.532 391.172 341.2 391.248 342.42 391.072C343.034 391.01 343.534 390.547 343.621 389.934C344.61 383.044 350.3 341.995 350.063 312.443C350.05 310.778 349.117 297.072 349.117 297.072L323.962 303.512Z" fill="#10284A"/>
<path fill-rule="evenodd" clip-rule="evenodd" d="M321.771 238.215L321.023 258.538C318.871 259.276 316.832 259.852 314.881 260.276C313.667 256.35 310.979 251.534 308.778 248.675C316.844 245.615 321.771 238.215 321.771 238.215Z" fill="url(#paint3_linear_25_4248)"/>
<path fill-rule="evenodd" clip-rule="evenodd" d="M348.95 305.751C350.19 305.538 349.937 305.013 350 304.4C350.751 297.109 354.39 251.91 331.415 233.312C331.415 233.312 330.101 229.86 319.271 238.339C308.44 246.807 314.243 255.687 316.832 267.944C319.972 282.895 325.474 294.882 323.034 304.001C322.873 305.761 323.198 305.289 323.811 305.513C332.228 308.615 340.607 308.715 348.95 305.751Z" fill="url(#paint4_linear_25_4248)"/>
<path fill-rule="evenodd" clip-rule="evenodd" d="M322.46 219.78C322.471 220.574 331.639 233.45 331.639 233.45C331.639 233.45 329.989 236.689 322.135 240.033L315.356 225.384L322.46 219.78Z" fill="url(#paint5_linear_25_4248)"/>
<path fill-rule="evenodd" clip-rule="evenodd" d="M327 264.354C327.062 264.354 327.111 264.342 327.164 264.305C334.492 259.351 338.662 251.359 339.039 251.285C338.03 251.134 338.909 251.938 337.807 251.314C337.656 250.834 337.48 251.314 337.418 251.06C337.38 251.134 334.003 258.976 326.824 263.816C326.688 264.335 326.65 264.091 326.75 264.229C326.813 264.305 326.901 264.354 327 264.354Z" fill="url(#paint6_linear_25_4248)"/>
<path fill-rule="evenodd" clip-rule="evenodd" d="M316.081 253.273C316.912 253.273 316.27 253.224 316.332 253.135C316.358 253.098 318.595 249.622 322.86 241.98C324.174 239.629 325.9 238.141 327.975 237.565C331.426 236.602 334.767 238.453 334.792 238.466C334.93 238.54 335.117 238.503 335.192 238.353C335.267 238.215 335.23 238.028 336.24 237.952C334.941 238.453 331.515 235.951 328.831 236.99C325.563 237.614 323.723 239.204 322.322 241.692C318.07 249.309 315.843 252.773 315.819 252.811C315.732 252.948 315.769 253.135 315.907 253.224C315.981 253.26 316.032 253.273 316.081 253.273Z" fill="url(#paint7_linear_25_4248)"/>
<path fill-rule="evenodd" clip-rule="evenodd" d="M315.23 212.313C315.23 212.313 311.966 219.805 312.185 223.745C311.528 227.998 310.69 230.235 315.23 231.024C319.783 231.811 323.61 229.548 325.686 225.633C325.686 225.633 328.938 219.592 328.212 217.116C327.488 214.991 315.23 212.313 315.23 212.313Z" fill="url(#paint8_linear_25_4248)"/>
<path fill-rule="evenodd" clip-rule="evenodd" d="M324.136 222.807L323.872 222.694C323.549 222.545 323.843 222.156 323.573 221.831C324.211 220.593 325.461 217.754 323.849 217.091C321.771 216.241 313.518 214.552 311.743 211.626C310.027 209.96 311.541 205.185 313.831 204.147C313.98 204.072 314.169 204.134 314.243 204.285L314.431 204.647C314.556 204.897 314.918 204.86 315.007 205.799C315.081 204.322 315.419 204.285 315.569 205.045C316.289 205.385 318 206.811 321.548 207.536C327.162 208.574 330.864 210.837 330.964 215.876C330.964 214.977 331.226 215.115 331.44 214.977C331.853 215.876 332.516 214.89 333.403 215.353C334.941 216.653 334.316 220.006 330.939 222.782C330.777 222.919 330.777 223.17 330.952 223.283C331.564 223.683 332.478 224.633 330.114 225.896C327.662 227.209 325.837 227.096 325.135 226.985C324.961 226.958 325.293 226.784 325.656 226.609L325.637 223.194C325.674 223.007 325.537 222.819 325.337 222.819C325.337 222.819 324.136 222.819 324.136 222.807Z" fill="#10284A"/>
<path fill-rule="evenodd" clip-rule="evenodd" d="M323.998 223.532C323.998 223.532 325.25 218.743 327.388 220.081C329.539 221.419 326.497 225.446 324.549 225.621L323.998 223.532Z" fill="url(#paint9_linear_25_4248)"/>
<path fill-rule="evenodd" clip-rule="evenodd" d="M281.738 236.689C281.738 236.689 283.376 233.788 283.263 232.374C283.163 230.96 284.039 228.897 283.101 229.048C282.163 230.072 281.974 229.073 281.725 230.76C281.475 232.461 279.647 239.853 281.738 236.689Z" fill="url(#paint10_linear_25_4248)"/>
<path fill-rule="evenodd" clip-rule="evenodd" d="M282.678 232.74L281.475 238.453C292.545 249.821 301.512 250.521 308.778 248.675C310.979 251.534 313.655 256.35 314.881 260.276C285.315 266.793 278.349 239.615 278.349 239.615C274.346 237.952 273.534 236.989 273.709 235.901L282.678 232.74Z" fill="url(#paint11_linear_25_4248)"/>
<path fill-rule="evenodd" clip-rule="evenodd" d="M272.92 227.534C273.872 225.946 275.71 222.418 276.073 223.583C276.435 224.744 275.922 227.534 276.073 226.822C276.224 227.309 279.647 232.987 278.062 234.25C277.723 235.164 275.897 236.161 276.733 236.514C275.848 237.001 275.135 237.365 274.672 237.365C274.208 237.365 273.821 237.014 273.722 236.514C273.696 236.314 271.971 226.709 272.92 227.534Z" fill="url(#paint12_linear_25_4248)"/>
<path fill-rule="evenodd" clip-rule="evenodd" d="M281.213 249.822L280.913 307.314C280.924 308.264 280.45 309.166 279.65 309.691L274.772 312.904C274.685 312.968 274.597 313.006 274.51 313.055C274.483 313.068 274.459 313.081 274.434 313.093C274.37 313.13 274.309 313.155 274.234 313.18C274.208 313.193 275.384 313.193 275.152 313.78C274.253 313.504 273.983 313.751 273.896 313.997C272.933 313.506 271.882 313.374 271.469 312.442L263.767 304.313C263.316 303.813 263.053 304.05 263.04 302.474L262.953 296.722L265.968 296.671L265.892 291.718L262.878 291.769L262.804 287.506L265.58 287.091L266.64 281.075L262.702 281.126L262.666 278.886L264.091 278.863L265.06 273.821L263.856 273.847L263.233 269.932L265.541 269.883L266.771 267.08L262.725 267.131L262.44 264.703L266.394 264.654L265.64 259.802L262.366 259.852L262.253 253.035L262.202 250.109C249.934 246.688 240.891 235.276 240.678 221.831C240.416 205.285 253.611 191.652 270.144 191.39C286.69 191.127 300.322 204.321 300.586 220.868C300.811 234.313 292.131 245.832 281.213 249.822ZM270.332 201.846C266.98 201.895 264.304 204.659 264.367 208.011C264.416 211.364 267.18 214.027 270.532 213.976C273.885 213.927 276.548 211.163 276.498 207.811C276.447 205.32 273.685 201.795 270.332 201.846Z" fill="#E8CBB3"/>
<path fill-rule="evenodd" clip-rule="evenodd" d="M260.127 232.763L260.565 260.014L263.578 259.965L263.654 264.816L260.639 264.867L260.677 267.293L263.69 267.244L263.741 270.045L260.726 270.094L260.79 274.009L262.215 273.985L262.289 279.025L260.864 279.05L260.902 281.288L263.678 281.238L263.778 287.254L261.145 287.304L261.769 291.931L264.092 291.882L264.167 296.834L261.152 296.885L261.239 302.637C261.252 303.312 261.515 303.975 261.966 304.475L269.381 312.606C270.306 313.618 271.832 313.806 272.97 313.055L277.848 309.842C278.65 309.315 279.124 308.415 279.111 308.053L277.998 238.065L260.127 232.763Z" fill="url(#paint13_linear_25_4248)"/>
<path fill-rule="evenodd" clip-rule="evenodd" d="M269.332 251.472C252.784 251.735 239.153 238.541 238.89 223.286C238.628 205.448 251.821 191.816 269.439 191.552C284.915 191.29 298.548 204.798 299.802 221.031C299.073 237.578 285.878 251.21 269.332 251.472ZM268.531 202.008C265.179 202.058 263.102 204.823 263.595 208.174C262.615 211.526 265.64 214.19 268.73 214.14C272.082 214.078 274.759 211.326 274.697 207.974C274.646 204.623 271.882 201.959 268.531 202.008Z" fill="url(#paint14_linear_25_4248)"/>
<path fill-rule="evenodd" clip-rule="evenodd" d="M278.211 249.984L279.137 308.169C279.148 308.428 278.674 309.329 277.872 309.854L272.996 313.068C272.258 313.555 271.37 313.644 270.582 313.381C268.069 306.952 270.019 258.489 267.155 255.693C266.13 254.098 264.241 253.061 260.463 253.198L260.414 250.272C248.144 246.683 239.103 235.438 238.89 223.286C238.628 205.448 251.821 191.816 269.439 191.552C284.915 191.29 298.548 204.798 299.802 221.031C299.022 234.475 290.342 245.994 278.211 249.984ZM268.531 202.008C265.192 202.058 263.102 204.823 263.595 208.174C262.615 211.526 265.64 214.19 268.73 214.14C272.082 214.09 274.747 211.326 274.697 207.974C274.646 204.623 271.884 201.958 268.531 202.008Z" fill="url(#paint15_linear_25_4248)"/>
<path fill-rule="evenodd" clip-rule="evenodd" d="M269.243 245.582C255.95 245.794 244.993 235.189 244.78 222.285C244.569 208.6 255.174 197.644 268.467 197.431C281.762 197.374 292.719 207.824 293.219 221.118C293.144 234.413 282.538 245.369 269.243 245.582ZM268.531 202.008C265.179 202.058 263.102 204.823 263.595 208.174C262.615 211.526 265.64 214.19 268.73 214.14C272.082 214.077 274.759 211.326 274.697 207.974C274.646 204.623 271.882 201.958 268.531 202.008Z" fill="url(#paint16_linear_25_4248)"/>
<path fill-rule="evenodd" clip-rule="evenodd" d="M327 264.354C327 264.354 299.541 273.796 283.002 261.778C282.025 261.275 280.787 260.703 279.575 260.903L273.545 261.89C271.02 262.303 268.605 260.665 268.054 258.738C267.743 257.52 267.593 255.174 267.905 254.489L279.286 253.135L278.961 251.659C278.961 251.659 283.99 252.886 284.09 256.825C284.09 256.825 296.757 264.554 317.42 252.561C317.431 252.561 325.812 259.113 327 264.354Z" fill="url(#paint17_linear_25_4248)"/>
<path fill-rule="evenodd" clip-rule="evenodd" d="M352.214 248.321C353.378 245.882 356.657 244.281 356.616 241.905C358.585 238.903 358.701 236.205 357.205 231.574C356.367 228.797 354.877 226.396 354.026 223.619C352.876 219.892 352.865 218.292 353.378 214.539C354.206 211.237 354.84 207.736 357.329 205.835C360.406 203.496 364.171 203.464 367.697 203.896C371.363 204.772 374.901 206.748 377.577 210.038C380.254 213.327 381.992 217.942 381.955 222.682C381.93 225.884 381.117 229.956 381.917 232.225C382.542 234.588 384.181 237.495 386.081 237.027C388.196 237.652 390.41 236.739 392.585 236.776C394.75 236.814 396.888 238.076 398.527 239.604C399.99 241.179 401.066 243.38 401.315 245.782C401.565 248.195 400.902 250.785 399.439 252.909C398.44 253.435 397.039 254.162 396.675 255.763C396.262 257.55 397.476 259.34 399.388 260.065C400.164 260.79 401.94 260.852 403.041 261.502C407.059 262.953 407.969 267.344 407.731 271.495C407.885 275.648 405.43 279.399 402.716 281.739C400.003 284.077 396.726 285.128 393.461 285.466C390.197 285.804 386.921 285.477 383.656 285.277C380.06 285.053 376.103 284.99 372.562 283.465C368.973 281.926 365.884 278.974 362.995 275.86C361.632 274.385 360.244 272.771 359.905 270.632C359.18 269.082 359.18 267.355 358.668 265.83C357.567 263.61 354.515 261.177 352.752 258.426C351.654 255.636 350.751 251.397 352.214 248.321Z" fill="#10284A"/>
<path fill-rule="evenodd" clip-rule="evenodd" d="M392.773 254.186C392.785 254.186 392.785 254.186 392.798 254.186C394.349 254.475 395.712 253.155 396.275 250.521C396.838 248.658 396.588 246.432 395.625 244.844C394.199 242.492 391.697 241.879 389.245 241.467L384.807 241.135C382.306 240.278 379.742 239.653 378.302 237.301C376.764 234.788 377.769 231.361 377.364 228.047C377.403 227.868 377.428 227.296 377.466 226.922C377.853 222.182 377.466 218.067 376.301 215.499C374.889 210.563 372.261 207.523 369.26 206.573C369.198 206.548 369.135 206.597 369.124 206.673C369.111 206.748 369.148 206.822 369.211 206.848C372.137 207.786 374.713 210.763 376.089 214.803C377.228 218.141 377.615 222.207 377.228 226.896C377.202 227.272 377.164 227.647 378.276 228.023C376.828 231.398 376.514 234.875 378.104 237.477C379.591 239.916 382.204 240.554 384.756 240.991L389.196 241.754C392.472 242.324 394.061 242.768 395.424 245.031C396.339 246.819 396.575 248.658 396.05 250.434C395.512 252.21 394.223 253.573 392.747 253.924C392.686 253.936 392.648 254.011 392.66 254.085C392.673 254.136 392.722 254.186 392.773 254.186Z" fill="#BDD0FB"/>
<path fill-rule="evenodd" clip-rule="evenodd" d="M391.372 252.448C391.423 252.448 391.484 253.533 391.732 253.025C392.06 251.723 392.673 250.996 393.936 250.071C393.373 249.233 393.549 248.284 393.559 246.994C392.662 246.356 392.097 245.982 391.979 245.682C390.196 244.944 388.771 244.418 387.32 244.118C386.37 243.919 385.407 243.818 384.468 244.775C383.255 243.593 382.005 243.455 380.816 243.119C379.391 242.717 376.828 241.618 375.702 238.766C374.8 237.365 375.14 233.888 375.488 231.162C375.776 228.948 376.076 226.671 376.681 224.495C376.435 224.345 375.514 224.245 375.389 224.283C375.264 224.321 375.189 224.47 375.227 224.633C376.188 226.696 375.327 228.923 375.038 231.073C374.689 233.763 374.326 236.552 375.289 239.028C376.488 242.092 379.203 243.268 380.703 244.528C381.93 244.044 383.193 244.168 384.418 244.306C385.343 244.406 386.306 244.506 387.977 244.693C389.064 244.993 390.034 245.494 391.359 246.22C391.822 246.47 392.335 246.781 392.635 247.319C393.313 248.82 393.313 248.946 392.635 249.822C392.311 250.66 391.747 251.323 391.21 251.961C391.123 252.072 391.11 252.248 391.197 252.895C391.261 253.533 391.31 252.448 391.372 252.448Z" fill="#BDD0FB"/>
<path fill-rule="evenodd" clip-rule="evenodd" d="M356.491 243.481C359.13 242.643 366.834 241.054 374.289 247.708C375.695 248.833 376.089 250.572 376.812 252.223C373.826 259.514 368.961 281.064 373.675 290.28C373.675 290.28 365.771 299.286 356.878 292.269C356.878 292.269 352.665 275.172 347.387 267.718C344.622 263.726 352.752 248.095 355.027 244.593C356.541 244.068 355.891 244.281 356.491 243.481Z" fill="url(#paint18_linear_25_4248)"/>
<path fill-rule="evenodd" clip-rule="evenodd" d="M363.582 228.923C363.582 228.923 367.684 239.953 368.059 244.844C368.059 244.844 363.757 246.883 359.774 243.788C359.774 243.788 359.006 232.538 358.354 231.71L363.582 228.923Z" fill="url(#paint19_linear_25_4248)"/>
<path fill-rule="evenodd" clip-rule="evenodd" d="M357.892 213.876C357.892 213.876 347.861 228.41 354.064 232.474C360.268 236.552 367.41 226.417 367.41 226.417C367.41 226.417 369.661 218.316 367.134 215.69C364.595 213.076 357.892 213.876 357.892 213.876Z" fill="url(#paint20_linear_25_4248)"/>
<path fill-rule="evenodd" clip-rule="evenodd" d="M363.442 211.497C363.442 211.497 357.892 211.564 357.265 213.714C356.64 215.853 364.646 217.716 366.083 217.778L367.885 226.358C367.885 226.358 373.81 218.179 370.636 213.539C368.609 209.67 363.442 211.497 363.442 211.497Z" fill="#10284A"/>
<path fill-rule="evenodd" clip-rule="evenodd" d="M365.396 225.208C365.396 225.208 369.311 221.575 370.949 223.507C372.588 226.496 367.434 228.848 365.622 227.396L365.396 225.208Z" fill="url(#paint21_linear_25_4248)"/>
<path fill-rule="evenodd" clip-rule="evenodd" d="M347.211 328.476C347.249 330.165 345.986 335.454 345.297 338.769C345.022 340.094 345.248 341.484 345.948 342.658L372.437 385.645C373.781 386.17 373 386.732 373.139 387.319C373.638 389.347 374.702 394.324 374.264 400.011L372.975 401.809L378.729 400.838L379.729 384.757L378.078 383.781C376.652 384.235 375.54 381.68 374.876 380.154C372.45 374.525 366.434 360.206 364.82 353.201C362.995 345.248 354.028 338.907 354.028 338.907L355.529 335.205L347.211 328.476Z" fill="url(#paint22_linear_25_4248)"/>
<path fill-rule="evenodd" clip-rule="evenodd" d="M385.043 394.825C385.043 394.825 381.855 389.934 382.394 388.021C381.054 386.107 380.683 382.73 378.077 383.782C378.077 383.782 377.328 393.137 377.69 396.777C378.064 400.415 373.626 400.378 373.626 400.378C373.626 400.378 372.399 400.565 371.525 401.479C370.911 402.104 371.374 403.767 372.248 404.275C373.7 403.291 376.014 403.28 378.427 402.767C379.265 402.591 379.891 401.853 380.19 401.003L380.39 390.247L384.405 395.15L385.043 394.825Z" fill="#10284A"/>
<path fill-rule="evenodd" clip-rule="evenodd" d="M362.732 335.143C362.732 335.143 364.271 373.951 364.484 379.453C364.695 384.969 363.895 397.201 358.43 400.939L360.869 402.679C360.869 402.679 363.833 400.078 366.683 395.112C369.898 389.534 370.874 388.509 370.874 388.509L369.747 386.283C369.248 385.307 369.098 384.206 369.298 383.131C370.398 377.328 374.075 358.041 375.089 354.568C376.29 348.974 376.277 342.446 371.724 337.044C367.172 331.666 362.732 335.143 362.732 335.143Z" fill="url(#paint23_linear_25_4248)"/>
<path fill-rule="evenodd" clip-rule="evenodd" d="M368.948 404.305C369.124 404.305 369.26 404.18 369.286 404.005C369.447 402.704 370.136 397.5 370.736 396.15C371.423 394.6 373.675 388.084 370.598 387.582C370.598 387.582 363.157 399.519 361.719 400.352C360.28 401.879 358.417 400.928 358.417 400.928C358.417 400.928 357.003 401.366 355.953 402.767C355.453 403.429 355.942 404.381 357.483 404.381L361.907 404.343C363.395 404.33 364.72 403.405 365.258 402.016C366.121 399.752 367.622 396.413 369.411 394.912L368.609 403.917C368.586 404.13 368.747 404.305 368.948 404.305Z" fill="#10284A"/>
<path fill-rule="evenodd" clip-rule="evenodd" d="M355.602 288.105C355.602 288.105 357.86 291.769 355.14 297.872L344.748 337.575C344.585 337.131 344.922 337.757 345.509 338.909C348.824 339.083 360.658 342.795 374.475 340.995C375.212 340.933 375.838 340.395 375.989 339.67C376.888 335.268 380.683 320.247 380.616 317.17C383.03 305.414 386.135 292.733 372.812 285.303C367.807 287.916 361.456 289.493 355.602 288.105Z" fill="#E8CBB3"/>
<path fill-rule="evenodd" clip-rule="evenodd" d="M375.363 249.146C375.363 249.146 388.069 259.364 391.409 273.547C394.748 287.729 373.35 289.592 373.35 289.592C373.35 289.592 370.385 286.391 367.938 287.604C363.519 288.817 366.596 281.939 370.635 281.889C374.674 281.838 372.86 285.066 379.233 282.389C384.056 279.774 387.37 271.921 372.973 260.327C372.135 260.565 371.474 258.789 371.061 257.8C368.184 251.314 370.298 246.307 375.363 249.146Z" fill="url(#paint24_linear_25_4248)"/>
<path fill-rule="evenodd" clip-rule="evenodd" d="M280.05 313.043C280.05 313.043 287.252 332.44 298.197 330.064C298.197 330.064 299.322 336.668 297.483 337.443C297.483 337.443 281.051 338.532 279.424 315.356L280.05 313.043Z" fill="url(#paint25_linear_25_4248)"/>
<path fill-rule="evenodd" clip-rule="evenodd" d="M280.35 317.999C280.324 317.933 281.577 318.157 281.963 316.732C281.851 316.825 281.663 313.381 281.188 312.955C278.649 310.704 274.645 308.166 274.645 308.166C273.596 309.749 274.272 309.453 274.272 309.453L276.535 310.98C276.298 311.924 275.96 312.456 275.909 314.635C275.884 314.019 276.135 314.954 276.573 315.194C277.675 315.707 277.623 316.37 278.174 316.883C279.225 317.82 280.35 317.999 280.35 317.999Z" fill="url(#paint26_linear_25_4248)"/>
<path fill-rule="evenodd" clip-rule="evenodd" d="M279.099 316.483C278.799 315.745 277.91 313.718 277.523 314.259C277.236 313.006 277.111 312.743 277.124 312.48C277.136 312.255 277.249 312.068 277.472 313.041L277.585 312.171L279.75 312.955L280.613 314.307L280.26 314.531L279.461 313.882L277.647 312.306C277.585 312.379 277.56 312.443 277.549 312.506C277.536 312.643 277.636 312.819 277.823 313.019C278.348 313.555 279.374 316.045 279.486 316.321L279.099 316.483Z" fill="url(#paint27_linear_25_4248)"/>
<path fill-rule="evenodd" clip-rule="evenodd" d="M298.097 304.938C298.097 304.938 301.574 301.8 297.109 298.397C293.625 295.195 289.843 299.486 291.231 302.251C291.33 302.45 291.218 302.687 291.006 302.725C290.642 302.801 290.318 304.297 290.905 304.464C290.956 305.254 290.944 304.7 290.869 304.802C290.355 305.489 289.348 308.253 293.819 308.677C293.906 308.69 294.006 308.654 294.07 308.59L298.097 304.938Z" fill="#10284A"/>
<path fill-rule="evenodd" clip-rule="evenodd" d="M316.357 309.542C316.357 309.542 316.694 305.54 318.832 304.226C320.983 302.925 325.136 301.812 326.888 306.165C327.946 308.241 327.437 309.229 326.926 309.704C326.45 310.129 326.399 310.792 326.711 311.343C327.062 311.968 327.113 312.756 326.05 313.455C325.737 313.668 325.523 313.969 325.461 314.319C325.186 315.769 323.698 319.26 315.743 315.445L316.357 309.542Z" fill="#10284A"/>
<path fill-rule="evenodd" clip-rule="evenodd" d="M307.177 302.336C308.74 302.223 312.054 300.987 314.63 305.489C314.805 305.802 315.069 307.095 315.394 306.24C316.932 307.09 321.372 310.166 317.332 315.72C317.144 315.969 317.019 316.269 316.981 316.583C316.844 317.519 316.394 319.609 315.056 320.121C315.23 320.271 314.318 321.537 314.093 320.921C313.193 322.41 310.604 325.536 306.278 322.273C306.95 322.11 305.801 322.755 305.525 322.132L299.535 320.596C299.222 321.16 298.884 321.291 298.572 320.634C297.834 320.847 296.358 321.034 296.525 319.309C295.695 318.958 295.484 318.646 295.208 318.408C294.208 318.275 292.068 315.244 293.681 311.992C293.857 311.63 293.932 311.216 293.868 310.816C293.681 309.602 293.581 306.903 296.107 305.738C296.484 305.564 296.808 305.276 296.996 304.913C297.834 303.288 300.585 299.148 305.413 302.187C305.925 302.525 306.589 302.587 307.177 302.336Z" fill="#10284A"/>
<path fill-rule="evenodd" clip-rule="evenodd" d="M299.035 397.564L299.911 398.576L299.31 400.766C299.148 401.341 298.686 402.81 298.097 401.879C296.147 402.242 291.731 402.88 289.468 401.904C289.468 401.904 288.754 397.164 296.584 398.576L299.035 397.564Z" fill="#E8CBB3"/>
<path fill-rule="evenodd" clip-rule="evenodd" d="M312.679 400.077L313.142 401.215L312.955 405.317C312.93 405.893 312.468 406.38 312.663 406.48C310.992 406.618 309.74 406.743 308.564 406.656C307.652 406.58 307.077 405.717 307.675 404.955L308.804 401.991C309.015 401.553 309.391 401.204 309.852 401.053L312.679 400.077Z" fill="#E8CBB3"/>
<path fill-rule="evenodd" clip-rule="evenodd" d="M308.715 320.085L309.603 328.914C309.603 328.914 304.8 330.539 302.093 328.7L302.5 319.834L308.715 320.085Z" fill="url(#paint28_linear_25_4248)"/>
<path fill-rule="evenodd" clip-rule="evenodd" d="M316.407 369.533C316.407 369.533 314.131 393.824 312.63 401.591C312.63 401.591 311.503 402.416 309.816 401.353L307.777 367.46L316.407 369.533Z" fill="url(#paint29_linear_25_4248)"/>
<path fill-rule="evenodd" clip-rule="evenodd" d="M306.288 369.935L300.047 398.376C300.047 398.376 298.346 400.139 296.145 398.376L297.221 368.472L306.288 369.935Z" fill="url(#paint30_linear_25_4248)"/>
<path fill-rule="evenodd" clip-rule="evenodd" d="M314.18 329.576L315.743 329.752C318.771 332.991 324.31 355.409 326.873 360.006L334.454 358.679C334.779 358.617 335.747 358.93 334.905 359.23C334.541 360.117 333.191 362.656 327.9 362.656C325.436 362.656 330.542 364.57 328.816 365.233C328.816 365.233 324.574 365.139 324.561 362.007C324.561 362.007 315.256 341.446 313.355 338.594C311.441 336.368 314.18 329.576 314.18 329.576Z" fill="url(#paint31_linear_25_4248)"/>
<path fill-rule="evenodd" clip-rule="evenodd" d="M315.743 329.752C315.743 329.752 308.168 326.688 297.147 329.865C297.147 329.865 295.983 337.682 296.584 341.408L314.38 342.058L315.743 329.752Z" fill="url(#paint32_linear_25_4248)"/>
<path fill-rule="evenodd" clip-rule="evenodd" d="M296.821 343.834C296.821 343.834 291.131 362.094 290.293 374.251C290.255 374.876 290.719 375.414 291.343 375.464C292.532 375.695 294.608 375.84 297.447 376.79C302.05 378.315 305.851 377.816 309.291 376.827C311.992 376.052 318.733 375.377 321.51 375.113C322.173 375.051 322.635 374.439 322.524 373.788C321.71 369.286 318.646 353.314 313.993 342.458L296.821 343.834Z" fill="url(#paint33_linear_25_4248)"/>
<path fill-rule="evenodd" clip-rule="evenodd" d="M296.521 340.97L296.821 343.834C296.821 343.834 302.299 343.859 314.38 343.447L314.443 341.371C314.443 341.382 301.062 341.645 296.521 340.97Z" fill="#E8CBB3"/>
<path fill-rule="evenodd" clip-rule="evenodd" d="M296.558 311.517C295.182 316.819 295.582 322.924 301.836 324.298C306.163 325.249 310.703 320.846 312.066 315.532C313.442 310.229 311.092 306.176 306.801 305.076C302.524 303.963 297.933 306.214 296.558 311.517Z" fill="url(#paint34_linear_25_4248)"/>
<path fill-rule="evenodd" clip-rule="evenodd" d="M297.034 313.155C297.034 313.155 296.834 309.942 295.233 310.942C293.632 311.93 296.264 315.782 296.847 316.007C297.847 317.42 297.034 313.155 297.034 313.155Z" fill="url(#paint35_linear_25_4248)"/>
<path fill-rule="evenodd" clip-rule="evenodd" d="M310.729 316.857C310.729 316.857 311.205 314.406 312.942 315.545C314.969 316.67 311.366 320.672 309.329 319.784L310.729 316.857Z" fill="url(#paint36_linear_25_4248)"/>
<path fill-rule="evenodd" clip-rule="evenodd" d="M314.128 314.905C314.128 314.905 308.327 320.283 305.751 309.128C305.751 309.128 304.297 312.455 301.999 309.516C301.999 309.516 296.872 311.267 296.309 309.115C295.746 306.964 303.237 301.111 309.265 305.313C315.294 309.503 314.128 314.905 314.128 314.905Z" fill="#10284A"/>
<path fill-rule="evenodd" clip-rule="evenodd" d="M144.252 404.03C144.252 403.93 144.252 403.829 144.276 403.729C145.803 397.7 152.018 394.612 152.018 394.612L155.008 394.85C157.934 400.165 157.834 402.754 157.558 404.217C157.545 404.254 157.534 404.292 157.534 404.33C155.07 404.543 149.979 405.971 144.252 404.03Z" fill="#10284A"/>
<path fill-rule="evenodd" clip-rule="evenodd" d="M157.534 404.317C157.396 404.805 157.047 405.179 156.584 405.279C153.069 406.174 147.491 405.43 145.151 405.117C144.639 405.055 144.252 404.71 144.252 404.03C149.979 405.971 155.07 404.543 157.534 404.317Z" fill="#7D97F4"/>
<path fill-rule="evenodd" clip-rule="evenodd" d="M149.554 389.947L151.481 396.25C150.968 396.713 151.318 397.062 151.742 397.1C152.438 397.151 153.019 397.175 154.396 397.062C154.444 396.964 154.921 396.275 154.795 395.537L153.881 389.934H149.554V389.947Z" fill="url(#paint37_linear_25_4248)"/>
<path fill-rule="evenodd" clip-rule="evenodd" d="M182.948 404.267C179.758 404.18 178.095 403.805 177.245 403.454C177.245 403.767 177.245 404.092 177.257 404.429C177.268 404.792 177.532 405.066 177.857 405.066L195.403 404.954C195.966 404.954 196.292 404.305 196.055 403.791C193.753 403.979 187.888 404.405 182.948 404.267Z" fill="#7D97F4"/>
<path fill-rule="evenodd" clip-rule="evenodd" d="M196.055 403.792C196.03 403.741 196.017 403.705 195.979 403.654C195.576 401.491 190.488 397.175 182.684 395.312L178.945 395.2C178.945 395.2 177.281 398.089 177.245 403.454C178.095 403.805 179.746 404.179 182.948 404.267C187.888 404.405 193.753 403.979 196.055 403.792Z" fill="#10284A"/>
<path fill-rule="evenodd" clip-rule="evenodd" d="M178.257 389.534C178.295 389.809 178.807 394.049 179.008 395.699C179.057 396.088 179.333 396.388 179.695 396.437C180.333 396.513 182.337 396.588 182.259 396.4C183.164 396.301 183.097 395.837 183.097 395.287V388.934L178.257 389.534Z" fill="url(#paint38_linear_25_4248)"/>
<path fill-rule="evenodd" clip-rule="evenodd" d="M152.056 307.152C152.056 307.152 146.066 360.355 149.771 393.611C149.771 393.611 153.381 393.611 155.382 392.948C155.382 392.948 161.598 340.919 163.612 326.037C163.686 325.474 164.488 325.449 164.6 326.012C167.089 338.531 176.832 387.646 177.995 392.286C177.995 392.286 181.961 393.611 183.986 392.286C183.986 392.286 178.669 321.123 174.68 308.49L152.056 307.152Z" fill="#E8CBB3"/>
<path fill-rule="evenodd" clip-rule="evenodd" d="M140.086 245.294C140.086 245.294 165.923 241.305 185.311 247.703L183.986 267.244C183.986 267.244 178.669 296.264 174.68 308.479C174.68 308.479 159.385 311.142 152.067 307.152C152.067 307.152 146.077 271.976 142.763 265.917C142.738 265.917 139.41 251.948 140.086 245.294Z" fill="#10284A"/>
<path fill-rule="evenodd" clip-rule="evenodd" d="M157.634 227.122L155.12 244.144C155.12 244.144 162.148 247.37 167.076 244.006L166.013 231.987L157.634 227.122Z" fill="url(#paint39_linear_25_4248)"/>
<path fill-rule="evenodd" clip-rule="evenodd" d="M168.477 216.028C168.552 217.326 170.078 225.475 171.003 230.073C171.391 232.274 170.926 234.313 167.552 234.439L165.513 234.564C161.774 234.788 158.47 233.247 157.908 228.41L156.433 218.78C156.433 218.792 166.551 212.538 168.477 216.028Z" fill="url(#paint40_linear_25_4248)"/>
<path fill-rule="evenodd" clip-rule="evenodd" d="M154.232 218.805C153.456 217.829 152.769 216.266 154.432 214.745C156.12 212.94 158.034 213.365 159.235 213.914C159.773 214.165 160.435 214.052 160.811 213.601C161.298 213.401 161.236 214.295 161.611 213.302C162.311 213.376 162.949 212.914 163.023 212.213C163.161 211 163.811 209.587 165.951 209.174C169.865 208.411 171.816 212.338 171.754 215.09C171.678 217.841 167.389 218.429 164.962 217.967C163.174 218.791 161.624 219.205 160.935 220.055C160.686 220.368 160.585 220.781 160.686 221.169L161.298 223.832C160.872 224.657 160.447 225.508 159.848 227.07C159.41 226.721 158.934 226.996 158.434 227.122C157.709 225.758 155.657 225.533 154.719 225.495C154.357 225.484 154.019 225.321 154.512 225.046C153.069 224.219 151.943 222.394 154.094 220.593C154.606 220.155 154.67 219.355 154.232 218.805Z" fill="#10284A"/>
<path fill-rule="evenodd" clip-rule="evenodd" d="M159.135 229.973C159.135 229.973 159.046 225.17 157.107 224.721C155.338 224.27 153.069 225.671 154.732 228.548C156.796 233.247 159.135 229.973 159.135 229.973Z" fill="url(#paint41_linear_25_4248)"/>
<path fill-rule="evenodd" clip-rule="evenodd" d="M140.086 245.294C140.086 245.294 100.84 287.854 147.066 304.151V300.824C147.066 300.824 129.768 286.191 143.076 266.243C143.076 266.243 141.413 247.295 140.086 245.294Z" fill="#10284A"/>
<path fill-rule="evenodd" clip-rule="evenodd" d="M147.403 301.161C147.403 301.161 153.394 297.172 156.046 298.497C158.71 299.824 158.71 301.825 158.71 301.825C158.71 301.825 157.383 304.488 155.382 303.826C153.381 304.181 148.729 304.488 146.74 303.826C146.727 303.826 146.066 301.161 147.403 301.161Z" fill="url(#paint42_linear_25_4248)"/>
<path fill-rule="evenodd" clip-rule="evenodd" d="M215.902 260.327C203.233 262.228 196.117 253.573 190.095 248.733C181.834 242.33 174.38 246.107 174.38 246.107L182.372 264.767C195.305 277.965 209.248 272.133 218.544 268.182C217.741 264.979 216.891 262.304 215.902 260.327Z" fill="#10284A"/>
<path fill-rule="evenodd" clip-rule="evenodd" d="M233.712 252.773L229.51 255.036C224.47 258.245 219.966 259.727 215.902 260.34C216.878 262.315 217.741 264.992 218.53 268.182C222.932 265.668 226.911 262.641 226.911 262.641C235.787 256.963 233.712 252.773 233.712 252.773Z" fill="url(#paint43_linear_25_4248)"/>
<path fill-rule="evenodd" clip-rule="evenodd" d="M246.094 258.689C245.818 257.788 246.108 257.063 244.28 257.143L235.751 253.273C235.751 253.273 235.625 252.186 237.552 251.434C239.478 250.696 239.027 248.533 239.027 248.533C239.027 248.533 236.741 249.734 232.523 251.648C230.309 252.735 229.072 254.662 228.423 256.112L231.275 259.002C235.876 260.577 241.192 260.877 247.065 260.252L246.094 258.689Z" fill="url(#paint44_linear_25_4248)"/>
<defs>
<linearGradient id="paint0_linear_25_4248" x1="23790.7" y1="25633.7" x2="96.8358" y2="19.3444" gradientUnits="userSpaceOnUse">
<stop stop-color="#DAE3FE"/>
<stop offset="1" stop-color="#E9EFFD"/>
</linearGradient>
<linearGradient id="paint1_linear_25_4248" x1="394.711" y1="389.185" x2="270.8" y2="1112.35" gradientUnits="userSpaceOnUse">
<stop stop-color="#A22B25"/>
<stop offset="1" stop-color="#C0423C"/>
</linearGradient>
<linearGradient id="paint2_linear_25_4248" x1="380.09" y1="388.484" x2="265.707" y2="1137.14" gradientUnits="userSpaceOnUse">
<stop stop-color="#A22B25"/>
<stop offset="1" stop-color="#C0423C"/>
</linearGradient>
<linearGradient id="paint3_linear_25_4248" x1="1308.57" y1="238.215" x2="-54.3516" y2="904.509" gradientUnits="userSpaceOnUse">
<stop stop-color="#FF928E"/>
<stop offset="1" stop-color="#FE7062"/>
</linearGradient>
<linearGradient id="paint4_linear_25_4248" x1="1047.44" y1="232.617" x2="-1581.68" y2="6866.87" gradientUnits="userSpaceOnUse">
<stop stop-color="#FEBBBA"/>
<stop offset="1" stop-color="#FF928E"/>
</linearGradient>
<linearGradient id="paint5_linear_25_4248" x1="315.356" y1="2206.92" x2="792.65" y2="259.601" gradientUnits="userSpaceOnUse">
<stop stop-color="#A22B25"/>
<stop offset="1" stop-color="#C0423C"/>
</linearGradient>
<linearGradient id="paint6_linear_25_4248" x1="654.276" y1="251.06" x2="278.654" y2="1518.53" gradientUnits="userSpaceOnUse">
<stop stop-color="#FF928E"/>
<stop offset="1" stop-color="#FE7062"/>
</linearGradient>
<linearGradient id="paint7_linear_25_4248" x1="858.942" y1="236.735" x2="495.442" y2="1871.25" gradientUnits="userSpaceOnUse">
<stop stop-color="#FF928E"/>
<stop offset="1" stop-color="#FE7062"/>
</linearGradient>
<linearGradient id="paint8_linear_25_4248" x1="919.669" y1="212.313" x2="167.859" y2="1904.87" gradientUnits="userSpaceOnUse">
<stop stop-color="#A22B25"/>
<stop offset="1" stop-color="#C0423C"/>
</linearGradient>
<linearGradient id="paint9_linear_25_4248" x1="474.711" y1="219.845" x2="213.022" y2="696.721" gradientUnits="userSpaceOnUse">
<stop stop-color="#A22B25"/>
<stop offset="1" stop-color="#C0423C"/>
</linearGradient>
<linearGradient id="paint10_linear_25_4248" x1="280.747" y1="229.04" x2="621.792" y2="326.659" gradientUnits="userSpaceOnUse">
<stop stop-color="#A22B25"/>
<stop offset="1" stop-color="#C0423C"/>
</linearGradient>
<linearGradient id="paint11_linear_25_4248" x1="780.489" y1="232.74" x2="535.184" y2="3088.11" gradientUnits="userSpaceOnUse">
<stop stop-color="#A22B25"/>
<stop offset="1" stop-color="#C0423C"/>
</linearGradient>
<linearGradient id="paint12_linear_25_4248" x1="272.635" y1="223.351" x2="956.254" y2="469.673" gradientUnits="userSpaceOnUse">
<stop stop-color="#A22B25"/>
<stop offset="1" stop-color="#C0423C"/>
</linearGradient>
<linearGradient id="paint13_linear_25_4248" x1="1112.63" y1="232.763" x2="-2355.85" y2="1855.15" gradientUnits="userSpaceOnUse">
<stop stop-color="#FF928E"/>
<stop offset="1" stop-color="#FE7062"/>
</linearGradient>
<linearGradient id="paint14_linear_25_4248" x1="238.886" y1="191.549" x2="2562.56" y2="5731.57" gradientUnits="userSpaceOnUse">
<stop stop-color="#FF9085"/>
<stop offset="1" stop-color="#FB6FBB"/>
</linearGradient>
<linearGradient id="paint15_linear_25_4248" x1="238.886" y1="191.549" x2="5557.12" y2="9930.63" gradientUnits="userSpaceOnUse">
<stop stop-color="#FEBBBA"/>
<stop offset="1" stop-color="#FF928E"/>
</linearGradient>
<linearGradient id="paint16_linear_25_4248" x1="987.197" y1="197.43" x2="253.341" y2="4957.38" gradientUnits="userSpaceOnUse">
<stop stop-color="#FF928E"/>
<stop offset="1" stop-color="#FE7062"/>
</linearGradient>
<linearGradient id="paint17_linear_25_4248" x1="4933.4" y1="251.659" x2="4114.3" y2="2595.94" gradientUnits="userSpaceOnUse">
<stop stop-color="#A22B25"/>
<stop offset="1" stop-color="#C0423C"/>
</linearGradient>
<linearGradient id="paint18_linear_25_4248" x1="2654.5" y1="242.69" x2="-522.201" y2="1756.22" gradientUnits="userSpaceOnUse">
<stop stop-color="#FF928E"/>
<stop offset="1" stop-color="#FE7062"/>
</linearGradient>
<linearGradient id="paint19_linear_25_4248" x1="358.355" y1="1870.72" x2="739.198" y2="287.994" gradientUnits="userSpaceOnUse">
<stop stop-color="#FEBBBA"/>
<stop offset="1" stop-color="#FF928E"/>
</linearGradient>
<linearGradient id="paint20_linear_25_4248" x1="352.039" y1="213.761" x2="1654.67" y2="1453.57" gradientUnits="userSpaceOnUse">
<stop stop-color="#FEBBBA"/>
<stop offset="1" stop-color="#FF928E"/>
</linearGradient>
<linearGradient id="paint21_linear_25_4248" x1="365.396" y1="222.941" x2="673.851" y2="648.087" gradientUnits="userSpaceOnUse">
<stop stop-color="#FEBBBA"/>
<stop offset="1" stop-color="#FF928E"/>
</linearGradient>
<linearGradient id="paint22_linear_25_4248" x1="345.183" y1="6709.17" x2="4488.65" y2="3263.54" gradientUnits="userSpaceOnUse">
<stop stop-color="#FEBBBA"/>
<stop offset="1" stop-color="#FF928E"/>
</linearGradient>
<linearGradient id="paint23_linear_25_4248" x1="2009.29" y1="334.037" x2="201.418" y2="480.004" gradientUnits="userSpaceOnUse">
<stop stop-color="#FEBBBA"/>
<stop offset="1" stop-color="#FF928E"/>
</linearGradient>
<linearGradient id="paint24_linear_25_4248" x1="365.773" y1="3354.71" x2="2965.05" y2="1481.7" gradientUnits="userSpaceOnUse">
<stop stop-color="#FEBBBA"/>
<stop offset="1" stop-color="#FF928E"/>
</linearGradient>
<linearGradient id="paint25_linear_25_4248" x1="279.424" y1="313.043" x2="1417.32" y2="2340.46" gradientUnits="userSpaceOnUse">
<stop stop-color="#FEBBBA"/>
<stop offset="1" stop-color="#FF928E"/>
</linearGradient>
<linearGradient id="paint26_linear_25_4248" x1="274.058" y1="308.166" x2="726.2" y2="1135.14" gradientUnits="userSpaceOnUse">
<stop stop-color="#FEBBBA"/>
<stop offset="1" stop-color="#FF928E"/>
</linearGradient>
<linearGradient id="paint27_linear_25_4248" x1="277.123" y1="312.171" x2="626.086" y2="312.171" gradientUnits="userSpaceOnUse">
<stop stop-color="#FF928E"/>
<stop offset="1" stop-color="#FE7062"/>
</linearGradient>
<linearGradient id="paint28_linear_25_4248" x1="302.093" y1="1289.47" x2="425.018" y2="326.14" gradientUnits="userSpaceOnUse">
<stop stop-color="#FEBBBA"/>
<stop offset="1" stop-color="#FF928E"/>
</linearGradient>
<linearGradient id="paint29_linear_25_4248" x1="307.777" y1="3640.92" x2="2057.43" y2="2297.92" gradientUnits="userSpaceOnUse">
<stop stop-color="#FEBBBA"/>
<stop offset="1" stop-color="#FF928E"/>
</linearGradient>
<linearGradient id="paint30_linear_25_4248" x1="296.145" y1="3285.61" x2="1910.1" y2="1651.86" gradientUnits="userSpaceOnUse">
<stop stop-color="#FEBBBA"/>
<stop offset="1" stop-color="#FF928E"/>
</linearGradient>
<linearGradient id="paint31_linear_25_4248" x1="312.676" y1="3212.51" x2="2496.34" y2="1313.83" gradientUnits="userSpaceOnUse">
<stop stop-color="#FEBBBA"/>
<stop offset="1" stop-color="#FF928E"/>
</linearGradient>
<linearGradient id="paint32_linear_25_4248" x1="1783.97" y1="328.423" x2="730.461" y2="1568.09" gradientUnits="userSpaceOnUse">
<stop stop-color="#FF928E"/>
<stop offset="1" stop-color="#FE7062"/>
</linearGradient>
<linearGradient id="paint33_linear_25_4248" x1="2771.85" y1="342.458" x2="110.731" y2="2360.19" gradientUnits="userSpaceOnUse">
<stop stop-color="#FF928E"/>
<stop offset="1" stop-color="#FE7062"/>
</linearGradient>
<linearGradient id="paint34_linear_25_4248" x1="295.909" y1="2263.36" x2="451.918" y2="308.382" gradientUnits="userSpaceOnUse">
<stop stop-color="#FEBBBA"/>
<stop offset="1" stop-color="#FF928E"/>
</linearGradient>
<linearGradient id="paint35_linear_25_4248" x1="294.724" y1="863.968" x2="372.14" y2="319.253" gradientUnits="userSpaceOnUse">
<stop stop-color="#FEBBBA"/>
<stop offset="1" stop-color="#FF928E"/>
</linearGradient>
<linearGradient id="paint36_linear_25_4248" x1="309.329" y1="781.063" x2="343.983" y2="315.721" gradientUnits="userSpaceOnUse">
<stop stop-color="#FEBBBA"/>
<stop offset="1" stop-color="#FF928E"/>
</linearGradient>
<linearGradient id="paint37_linear_25_4248" x1="209.446" y1="389.934" x2="98.2876" y2="1098.06" gradientUnits="userSpaceOnUse">
<stop stop-color="#FEBBBA"/>
<stop offset="1" stop-color="#FF928E"/>
</linearGradient>
<linearGradient id="paint38_linear_25_4248" x1="233.369" y1="388.934" x2="100.609" y2="1128.5" gradientUnits="userSpaceOnUse">
<stop stop-color="#FEBBBA"/>
<stop offset="1" stop-color="#FF928E"/>
</linearGradient>
<linearGradient id="paint39_linear_25_4248" x1="155.12" y1="227.122" x2="1350.79" y2="227.122" gradientUnits="userSpaceOnUse">
<stop stop-color="#FEBBBA"/>
<stop offset="1" stop-color="#FF928E"/>
</linearGradient>
<linearGradient id="paint40_linear_25_4248" x1="156.433" y1="678.78" x2="1619.19" y2="412.299" gradientUnits="userSpaceOnUse">
<stop stop-color="#FEBBBA"/>
<stop offset="1" stop-color="#FF928E"/>
</linearGradient>
<linearGradient id="paint41_linear_25_4248" x1="154.153" y1="377.042" x2="649.339" y2="283.882" gradientUnits="userSpaceOnUse">
<stop stop-color="#FEBBBA"/>
<stop offset="1" stop-color="#FF928E"/>
</linearGradient>
<linearGradient id="paint42_linear_25_4248" x1="1070.12" y1="298.227" x2="670.764" y2="989.81" gradientUnits="userSpaceOnUse">
<stop stop-color="#FEBBBA"/>
<stop offset="1" stop-color="#FF928E"/>
</linearGradient>
<linearGradient id="paint43_linear_25_4248" x1="215.902" y1="752.152" x2="1857.34" y2="94.5383" gradientUnits="userSpaceOnUse">
<stop stop-color="#FEBBBA"/>
<stop offset="1" stop-color="#FF928E"/>
</linearGradient>
<linearGradient id="paint44_linear_25_4248" x1="228.423" y1="638.206" x2="1765.36" y2="-178.226" gradientUnits="userSpaceOnUse">
<stop stop-color="#FEBBBA"/>
<stop offset="1" stop-color="#FF928E"/>
</linearGradient>
</defs>
</svg>
