<svg width="105" height="53" viewBox="0 0 105 53" fill="none" xmlns="http://www.w3.org/2000/svg">
<g clip-path="url(#clip0_25_4420)">
<path fill-rule="evenodd" clip-rule="evenodd" d="M0.0274197 42.2609V22.5729C0.0274197 20.7745 -0.0212789 18.9603 0.0111235 17.1619C0.0273248 16.6886 0.173262 16.1049 0.464885 15.7578C1.35595 14.6851 2.34416 13.707 3.31624 12.6974C3.51065 12.4923 3.78614 12.3818 4.11016 12.1768V50.0383C3.80234 49.9594 3.60792 49.9594 3.46211 49.8806" fill="white"/>
<path fill-rule="evenodd" clip-rule="evenodd" d="M32.203 6.45006C32.1868 6.71825 32.1544 12.9654 32.1544 13.2336C32.1544 21.2318 32.1707 29.2301 32.1383 37.2284C32.1267 37.8727 31.9054 38.4969 31.5064 39.011C30.5505 40.1942 29.4326 41.2669 28.3957 42.3712C28.295 42.3192 28.1976 42.2612 28.1041 42.1977V4.36768C28.9952 4.84095 31.4577 5.94524 32.203 6.45006Z" fill="white"/>
<path fill-rule="evenodd" clip-rule="evenodd" d="M9.37551 12.1609H13.5068C13.523 8.73761 13.523 5.33007 13.523 1.90675C13.523 0.83401 13.4258 0.692027 12.3727 0.928662L9.34308 5.91377C9.35928 6.0873 9.35922 6.26084 9.35922 6.43437C9.37542 8.34322 9.37551 10.2521 9.37551 12.1609Z" fill="white"/>
<path fill-rule="evenodd" clip-rule="evenodd" d="M22.8711 2.22206C22.8711 1.70147 22.6604 1.44905 22.1581 1.3544C21.3481 1.19664 20.5219 1.03889 19.7118 0.881131C18.9342 0.723374 18.7073 1.02311 18.7073 1.78035C18.7559 5.03013 18.7397 8.26414 18.7235 11.5139C18.7235 14.1327 18.6912 16.7514 18.6912 19.3544C18.6912 19.9066 18.6264 20.2852 17.8811 20.2379C16.7759 20.1537 15.6659 20.1485 14.5599 20.2221C13.685 20.301 13.4581 20.0643 13.4581 19.2124C13.4743 18.187 13.4743 17.1774 13.4743 16.152H9.35917C9.35917 18.5341 9.34294 20.9004 9.32674 23.2826C9.32674 24.0871 9.56975 24.308 10.3798 24.2922C14.2357 24.2449 18.1078 24.2607 21.9637 24.2764C22.5955 24.2764 22.8386 24.1187 22.8386 23.4719C22.8548 16.4202 22.8549 9.32111 22.8711 2.22206Z" fill="white"/>
<path fill-rule="evenodd" clip-rule="evenodd" d="M18.7884 34.4675C18.7722 36.2659 18.7723 38.0644 18.7723 39.8628H22.8226C22.8388 37.0389 22.855 34.2151 22.8712 31.407C22.8874 29.4351 22.9036 29.4351 20.927 29.2931C20.684 29.2773 20.441 29.2773 20.198 29.2773C16.9739 29.2773 13.7337 29.3089 10.5097 29.2773C9.40798 29.2615 9.31065 29.2931 9.32685 30.3185L9.42415 48.5394C9.42415 49.4386 9.35925 50.3378 9.40785 51.237C9.42405 51.5683 9.6347 52.1362 9.84532 52.1836C10.9956 52.4675 12.1783 52.6095 13.4906 52.8304V51.5841C13.4744 45.8418 13.4906 40.0994 13.442 34.3571C13.442 33.5368 13.7012 33.3159 14.4951 33.3632C15.5418 33.4263 16.5915 33.4263 17.6382 33.3632C18.5455 33.3001 18.7884 33.5999 18.7884 34.4675Z" fill="white"/>
<path fill-rule="evenodd" clip-rule="evenodd" d="M22.8062 44.8638H18.7884V52.0575C18.7884 52.6885 18.9828 52.8305 19.5984 52.7358L22.8387 48.0031C22.8063 47.5141 22.7901 47.2301 22.7901 46.9304C22.7901 46.2363 22.79 45.5579 22.8062 44.8638Z" fill="white"/>
<path fill-rule="evenodd" clip-rule="evenodd" d="M48.5063 23.2655C48.4214 23.782 48.2284 24.276 47.9392 24.7168C47.6578 25.1195 47.3071 25.4717 46.9024 25.758C46.4935 26.0399 46.039 26.2532 45.5578 26.389C45.0685 26.5288 44.5608 26.5979 44.0509 26.5941C43.4836 26.591 42.9205 26.5005 42.3822 26.3259C41.8543 26.155 41.365 25.8872 40.9404 25.5372C40.5096 25.1753 40.1617 24.7291 39.9196 24.2278C39.651 23.665 39.5181 23.0498 39.5309 22.4294V18.5959H42.1068V22.4294C42.0973 22.6857 42.1529 22.9404 42.2688 23.1708C42.3739 23.3689 42.5234 23.5414 42.7063 23.6756C42.8883 23.8155 43.0978 23.9175 43.3219 23.9754C43.5539 24.0388 43.7938 24.0706 44.0348 24.07C44.281 24.0696 44.5261 24.0378 44.7639 23.9754C44.9853 23.9109 45.1936 23.8095 45.3795 23.6756C45.5587 23.5377 45.7075 23.366 45.8169 23.1708C45.9328 22.9404 45.9884 22.6857 45.9789 22.4294V10.9604H48.5711V20.7571H50.4181V23.2655H48.5063Z" fill="white"/>
<path d="M55.2135 20.7573H50.1912V23.2668H55.2135V20.7573Z" fill="white"/>
<path d="M60.074 20.7573H55.0516V23.2668H60.074V20.7573Z" fill="white"/>
<path d="M64.9181 20.7573H59.8958V23.2668H64.9181V20.7573Z" fill="white"/>
<path d="M69.7785 20.7573H64.7561V23.2668H69.7785V20.7573Z" fill="white"/>
<path d="M74.6389 20.7573H69.6165V23.2668H74.6389V20.7573Z" fill="white"/>
<path fill-rule="evenodd" clip-rule="evenodd" d="M76.3723 20.757V14.7622H78.9484V20.757H80.7954V23.2653H74.3311V20.757H76.3723ZM74.6226 25.9787C74.6205 25.8007 74.6536 25.624 74.7199 25.4581C74.7873 25.2988 74.8864 25.154 75.0115 25.0322C75.1367 24.9103 75.2854 24.8138 75.449 24.7482C75.7936 24.622 76.1736 24.622 76.5182 24.7482C76.6819 24.8138 76.8306 24.9103 76.9557 25.0322C77.0808 25.154 77.1799 25.2988 77.2473 25.4581C77.322 25.622 77.3607 25.7994 77.3607 25.9787C77.3607 26.158 77.322 26.3354 77.2473 26.4993C77.1692 26.6528 77.0712 26.796 76.9557 26.9252C76.8314 27.048 76.6824 27.1447 76.5182 27.2092C76.3499 27.282 76.1678 27.3196 75.9836 27.3196C75.7994 27.3196 75.6173 27.282 75.449 27.2092C75.288 27.1389 75.1401 27.0429 75.0115 26.9252C74.8854 26.8042 74.7862 26.6592 74.7199 26.4993C74.6564 26.3327 74.6234 26.1564 74.6226 25.9787ZM77.7172 25.9787C77.715 25.8007 77.748 25.624 77.8143 25.4581C77.8817 25.2988 77.9808 25.154 78.1059 25.0322C78.231 24.9103 78.3797 24.8138 78.5434 24.7482C78.888 24.622 79.2679 24.622 79.6126 24.7482C79.7762 24.8138 79.9249 24.9103 80.0501 25.0322C80.1752 25.154 80.2743 25.2988 80.3416 25.4581C80.4164 25.622 80.4551 25.7994 80.4551 25.9787C80.4551 26.158 80.4164 26.3354 80.3416 26.4993C80.2694 26.6561 80.1709 26.8 80.0501 26.9252C79.9257 27.048 79.7768 27.1447 79.6126 27.2092C79.4443 27.282 79.2622 27.3196 79.078 27.3196C78.8938 27.3196 78.7117 27.282 78.5434 27.2092C78.3824 27.1389 78.2345 27.0429 78.1059 26.9252C77.9798 26.8042 77.8806 26.6592 77.8143 26.4993C77.7585 26.3307 77.7259 26.1556 77.7172 25.9787Z" fill="white"/>
<path fill-rule="evenodd" clip-rule="evenodd" d="M80.5524 23.2656V20.7572H82.2858V14.5416H84.8618V15.6617C85.1776 15.2857 85.5763 14.9837 86.0284 14.7783C86.541 14.547 87.0996 14.4285 87.6646 14.4312L91.6664 14.4785C91.8385 14.4779 92.0091 14.51 92.1685 14.5732C92.4735 14.7019 92.7168 14.9388 92.849 15.2358C92.9138 15.391 92.947 15.5572 92.9463 15.7248V20.7572H94.4206V23.2656H80.5524ZM87.616 16.9395C87.2772 16.9416 86.9398 16.984 86.6115 17.0657C86.3005 17.1519 86.0054 17.2849 85.7368 17.4601C85.4743 17.6356 85.2571 17.8679 85.1025 18.1389C84.9479 18.41 84.86 18.7122 84.8457 19.0219V20.7572H90.3541V16.9711C89.4144 16.9553 88.734 16.9553 88.2965 16.9395C87.8753 16.9553 87.6484 16.9395 87.616 16.9395Z" fill="white"/>
<path fill-rule="evenodd" clip-rule="evenodd" d="M95.3926 14.4629C95.5709 14.4787 95.7976 14.4944 96.0568 14.5102C96.3161 14.526 96.5429 14.5418 96.7373 14.5575C97.2234 14.5733 97.7257 14.6206 98.2603 14.668C98.793 14.726 99.3191 14.8316 99.8319 14.9835C100.356 15.1409 100.861 15.3524 101.339 15.6145C101.834 15.8928 102.268 16.2626 102.618 16.703C103.018 17.2072 103.331 17.7722 103.542 18.3753C103.807 19.1434 103.95 19.947 103.963 20.7574H104.887V23.2657H94.1937V20.7574H101.387C101.36 20.2209 101.239 19.6929 101.031 19.1956C100.868 18.808 100.637 18.4505 100.35 18.1386C100.087 17.8684 99.7737 17.6489 99.4268 17.4918C99.0868 17.3507 98.7343 17.2399 98.3737 17.1605C98.0097 17.0952 97.6416 17.053 97.2719 17.0343C96.8993 17.0185 96.5592 17.0185 96.2351 17.0028H95.7815C95.6195 17.0028 95.4251 16.987 95.1821 16.9712L95.3926 14.4629Z" fill="white"/>
<path fill-rule="evenodd" clip-rule="evenodd" d="M56.2505 18.6276H55.0192C54.9408 18.6287 54.8634 18.6125 54.7924 18.5802C54.7324 18.5527 54.6776 18.5154 54.6304 18.4698C54.5827 18.4214 54.5491 18.3615 54.5331 18.2963C54.5144 18.2293 54.5035 18.1605 54.5007 18.0912L54.4845 16.0719H53.7716C53.6808 16.0684 53.5909 16.0903 53.5125 16.135C53.4279 16.1671 53.3507 16.2154 53.2856 16.277C53.2189 16.3377 53.1689 16.4136 53.1399 16.4979C53.1082 16.5785 53.0917 16.664 53.0913 16.7503V17.6022C53.1399 17.6179 53.2046 17.6179 53.2856 17.6337C53.3666 17.6495 53.4477 17.6495 53.5449 17.6653C53.6307 17.6779 53.7174 17.6832 53.8041 17.681C53.8851 17.681 53.9499 17.6968 53.9985 17.6968V18.7222C53.8741 18.7242 53.7497 18.7189 53.6259 18.7065C53.4801 18.6907 53.3342 18.6749 53.2046 18.6591C53.0631 18.6458 52.9225 18.6247 52.7834 18.596C52.6676 18.5809 52.5537 18.5544 52.4433 18.5171H52.4594C52.3458 18.4907 52.2437 18.43 52.1678 18.3436C52.0899 18.2503 52.0496 18.1325 52.0544 18.0123V16.7345C52.0551 16.5077 52.099 16.2831 52.1839 16.0719C52.2696 15.8704 52.3963 15.6879 52.5565 15.5355C52.7202 15.3881 52.906 15.2657 53.1074 15.1727C53.3209 15.0775 53.5532 15.029 53.7879 15.0307H54.8896C54.973 15.0312 55.0555 15.0473 55.1326 15.0781C55.2083 15.1107 55.2791 15.1531 55.3432 15.2043C55.4019 15.2594 55.4512 15.3233 55.4891 15.3936C55.5207 15.4687 55.5372 15.549 55.5376 15.6302L55.5538 17.5864H56.2667V18.6276H56.2505ZM52.751 14.0526C52.7515 13.9766 52.768 13.9014 52.7996 13.8318C52.8277 13.7685 52.866 13.7099 52.913 13.6582C52.9618 13.6072 53.0232 13.5692 53.0913 13.5478C53.1571 13.5172 53.229 13.5011 53.3019 13.5005C53.38 13.501 53.4571 13.5171 53.5286 13.5478C53.5936 13.5752 53.6539 13.6125 53.7069 13.6582C53.7593 13.7057 53.7984 13.7655 53.8204 13.8318C53.8535 13.9009 53.8701 13.9764 53.8689 14.0526C53.8701 14.1238 53.8535 14.1942 53.8204 14.2577C53.7922 14.321 53.7539 14.3796 53.7069 14.4313C53.6582 14.4823 53.5967 14.5203 53.5286 14.5417C53.4577 14.574 53.3802 14.5901 53.3019 14.589C53.2288 14.5902 53.1565 14.5739 53.0913 14.5417C53.0263 14.5143 52.966 14.477 52.913 14.4313C52.8606 14.3838 52.8215 14.324 52.7996 14.2577C52.7664 14.1942 52.7498 14.1238 52.751 14.0526ZM54.0147 14.0526C54.0152 13.9766 54.0319 13.9014 54.0634 13.8318C54.0915 13.7685 54.1297 13.7099 54.1767 13.6582C54.2254 13.6072 54.2869 13.5692 54.355 13.5478C54.4208 13.5172 54.4926 13.5011 54.5656 13.5005C54.6437 13.501 54.7209 13.5171 54.7924 13.5478C54.8575 13.5752 54.9176 13.6125 54.9706 13.6582C55.023 13.7057 55.062 13.7655 55.084 13.8318C55.1172 13.9009 55.1338 13.9764 55.1326 14.0526C55.1338 14.1238 55.1172 14.1942 55.084 14.2577C55.0559 14.321 55.0176 14.3796 54.9706 14.4313C54.9218 14.4823 54.8605 14.5203 54.7924 14.5417C54.7215 14.574 54.6439 14.5901 54.5656 14.589C54.4924 14.5902 54.4202 14.5739 54.355 14.5417C54.2899 14.5143 54.2297 14.477 54.1767 14.4313C54.1243 14.3838 54.0854 14.324 54.0634 14.2577C54.0302 14.1942 54.0134 14.1238 54.0147 14.0526Z" fill="white"/>
<path d="M58.2108 17.6021H56.1694V18.6275H58.2108V17.6021Z" fill="white"/>
<path fill-rule="evenodd" clip-rule="evenodd" d="M58.9237 17.6018V15.1724H59.9768V17.6018H60.7381V18.6272H58.1137V17.6018H58.9237ZM58.2108 19.7315C58.2113 19.6554 58.2278 19.5803 58.2594 19.5107C58.2875 19.4473 58.3258 19.3888 58.3728 19.3371C58.4216 19.2861 58.4829 19.2481 58.551 19.2267C58.6168 19.1961 58.6888 19.18 58.7617 19.1794C58.8398 19.1799 58.9169 19.196 58.9884 19.2267C59.0535 19.2541 59.1137 19.2914 59.1667 19.3371C59.2191 19.3846 59.258 19.4444 59.28 19.5107C59.3132 19.5798 59.3299 19.6553 59.3288 19.7315C59.33 19.8027 59.3132 19.8731 59.28 19.9366C59.2519 19.9999 59.2137 20.0585 59.1667 20.1101C59.118 20.1612 59.0565 20.1992 58.9884 20.2206C58.9175 20.2529 58.84 20.269 58.7617 20.2679C58.6886 20.2691 58.6162 20.2528 58.551 20.2206C58.4859 20.1932 58.4258 20.1559 58.3728 20.1101C58.3204 20.0627 58.2814 20.0029 58.2594 19.9366C58.228 19.8725 58.2114 19.8025 58.2108 19.7315ZM59.4745 19.7315C59.475 19.6554 59.4915 19.5803 59.523 19.5107C59.5512 19.4473 59.5895 19.3888 59.6365 19.3371C59.6852 19.2861 59.7467 19.2481 59.8148 19.2267C59.8806 19.1961 59.9525 19.18 60.0254 19.1794C60.1035 19.1799 60.1806 19.196 60.2521 19.2267C60.3171 19.2541 60.3774 19.2914 60.4304 19.3371C60.4828 19.3846 60.5219 19.4444 60.5438 19.5107C60.577 19.5798 60.5936 19.6553 60.5924 19.7315C60.5936 19.8027 60.577 19.8731 60.5438 19.9366C60.5157 19.9999 60.4774 20.0585 60.4304 20.1101C60.3817 20.1612 60.3202 20.1992 60.2521 20.2206C60.1811 20.2529 60.1037 20.269 60.0254 20.2679C59.9523 20.2691 59.88 20.2528 59.8148 20.2206C59.7498 20.1932 59.6895 20.1559 59.6365 20.1101C59.5841 20.0627 59.545 20.0029 59.523 19.9366C59.4916 19.8725 59.4751 19.8025 59.4745 19.7315Z" fill="white"/>
<path fill-rule="evenodd" clip-rule="evenodd" d="M60.5924 17.6021H61.3862V13.6108H62.4393V18.0754C62.4538 18.1453 62.4424 18.218 62.407 18.2804C62.3789 18.3438 62.3405 18.4023 62.2935 18.454C62.2411 18.5047 62.1809 18.5473 62.1152 18.5802C62.0494 18.6107 61.9776 18.6269 61.9046 18.6275H60.5924V17.6021Z" fill="white"/>
<path fill-rule="evenodd" clip-rule="evenodd" d="M65.0964 18.6273H63.7679C63.6966 18.6258 63.6258 18.6152 63.5573 18.5958C63.436 18.5407 63.3384 18.4458 63.2818 18.3276C63.2487 18.2641 63.2321 18.1937 63.2333 18.1225V13.6265H64.2864V17.6019H65.0964V18.6273Z" fill="white"/>
<path fill-rule="evenodd" clip-rule="evenodd" d="M65.0153 18.6273V17.6019H65.6958V16.7027C65.7014 16.4969 65.7453 16.2938 65.8254 16.1032C65.9187 15.9011 66.0445 15.7147 66.198 15.5511C66.3604 15.3937 66.5461 15.2608 66.7489 15.1567C66.9623 15.0614 67.1946 15.013 67.4294 15.0147C67.64 15.0147 67.8506 15.0147 68.045 15.0305C68.2556 15.0305 68.4661 15.0305 68.6767 15.0462C68.7444 15.0469 68.8111 15.0632 68.8712 15.0936C68.9925 15.1486 69.0901 15.2436 69.1466 15.3618C69.1779 15.4203 69.1945 15.4851 69.1952 15.5511V17.6019H69.8108V18.6273H65.0153ZM66.7489 17.6019H68.1584V16.0717H67.4131C67.3276 16.0702 67.2434 16.092 67.17 16.1348C67.0119 16.2046 66.8853 16.3279 66.8136 16.4818C66.7819 16.5569 66.7655 16.6373 66.765 16.7185V17.6019H66.7489Z" fill="white"/>
<path fill-rule="evenodd" clip-rule="evenodd" d="M69.7461 17.6021H70.5399V13.6108H71.593V18.0754C71.6075 18.1453 71.5961 18.218 71.5607 18.2804C71.5326 18.3438 71.4943 18.4023 71.4473 18.454C71.3949 18.5047 71.3347 18.5473 71.2689 18.5802C71.2031 18.6107 71.1313 18.6269 71.0584 18.6275H69.7461V17.6021Z" fill="white"/>
<path d="M73.5534 13.6089H72.5003V18.6128H73.5534V13.6089Z" fill="white"/>
<path fill-rule="evenodd" clip-rule="evenodd" d="M40.2435 44.7837V30.1123H43.3866V35.6022H49.2677V30.1123H52.4269V44.7837H49.2677V38.1421H43.3866V44.7837H40.2435Z" fill="white"/>
<path fill-rule="evenodd" clip-rule="evenodd" d="M57.9517 45.0677C56.9148 45.0677 56.0885 44.7838 55.4566 44.2001C54.8248 43.6321 54.517 42.8749 54.517 41.9284C54.517 40.9345 54.8086 40.1457 55.3756 39.5462C55.9426 38.9468 56.7689 38.5681 57.8544 38.4262L59.7985 38.158C60.2349 38.1125 60.6613 38.0007 61.0622 37.8267C61.1387 37.7909 61.2069 37.7402 61.2626 37.6778C61.3183 37.6154 61.3604 37.5426 61.3862 37.4639C61.4692 37.2974 61.4975 37.1101 61.4672 36.9275C61.4512 36.7797 61.3987 36.6379 61.3141 36.5142C61.2294 36.3906 61.1151 36.2888 60.9812 36.2176C60.6571 36.0125 60.1712 35.9021 59.5394 35.9021C58.9723 35.9021 58.5348 36.0283 58.227 36.2965C58.0664 36.4411 57.939 36.617 57.8525 36.8126C57.766 37.0082 57.7224 37.2193 57.7248 37.4323H54.8896C54.9544 36.1702 55.3918 35.2079 56.2342 34.5769C57.0605 33.9459 58.2757 33.6304 59.8634 33.6304C61.2567 33.6304 62.3421 33.9143 63.1522 34.4823C63.5357 34.7437 63.8461 35.0941 64.0554 35.5017C64.2648 35.9094 64.3665 36.3615 64.3512 36.8171V42.8907C64.3341 43.2372 64.3779 43.584 64.4807 43.9161C64.5271 44.0222 64.5957 44.1177 64.6821 44.1965C64.7686 44.2753 64.8711 44.3356 64.9829 44.3736V44.768H61.8075C61.6776 44.3515 61.5907 43.9234 61.5482 43.4902L61.5321 43.4744C60.6248 44.5313 59.426 45.0677 57.9517 45.0677ZM61.4996 40.7767V39.5305C61.0725 39.7461 60.6134 39.8952 60.1388 39.9722L59.0533 40.1615C58.6233 40.2191 58.2189 40.3941 57.8868 40.6663C57.7568 40.789 57.6538 40.9362 57.5841 41.099C57.5145 41.2617 57.4797 41.4366 57.4818 41.6128C57.4567 41.9871 57.5849 42.3558 57.8382 42.6383C57.9666 42.7642 58.1213 42.8617 58.2918 42.9243C58.4623 42.9869 58.6446 43.0131 58.8264 43.0011C59.7823 43.0011 60.5276 42.6856 61.0946 42.0388C61.2243 41.8692 61.318 41.6761 61.3701 41.4709C61.4536 41.2484 61.4974 41.0136 61.4996 40.7767Z" fill="white"/>
<path fill-rule="evenodd" clip-rule="evenodd" d="M73.278 37.1796C73.2832 36.9811 73.2369 36.7845 73.1435 36.6081C73.0501 36.4316 72.9124 36.2809 72.7434 36.1699C72.3869 35.9175 71.9171 35.7913 71.3177 35.7913C70.8567 35.7678 70.3977 35.8659 69.9892 36.0753C69.8435 36.1515 69.7225 36.2656 69.6395 36.4048C69.5566 36.5441 69.5149 36.7031 69.5193 36.864C69.5193 37.1007 69.6974 37.3058 70.0539 37.4793C70.4103 37.6528 71.0422 37.8264 71.9495 38.0314C73.764 38.4258 74.9628 38.8518 75.5623 39.3093C76.1779 39.7825 76.4858 40.5082 76.4858 41.5179C76.4981 42.0197 76.3833 42.5168 76.1516 42.9653C75.92 43.4137 75.5784 43.7998 75.1573 44.0893C74.2662 44.7361 73.0998 45.0516 71.6579 45.0516C69.9405 45.0516 68.6282 44.7361 67.7047 44.0893C66.7812 43.4583 66.2791 42.5117 66.2143 41.297H69.2115C69.2167 41.5313 69.2815 41.7606 69.4003 41.9644C69.5191 42.1682 69.688 42.34 69.8919 42.4644C70.3293 42.7484 70.9126 42.8904 71.6579 42.8904C72.2411 42.8904 72.7109 42.7957 73.035 42.5906C73.187 42.5108 73.3139 42.3924 73.4023 42.248C73.4908 42.1035 73.5373 41.9384 73.5371 41.7703C73.5371 41.5179 73.3751 41.3128 73.0511 41.1392C72.7271 40.9657 72.1601 40.808 71.3663 40.6344C69.4869 40.2243 68.2233 39.7825 67.5914 39.325C66.9596 38.8676 66.6355 38.1734 66.6355 37.2111C66.6355 36.1384 67.0404 35.2549 67.8667 34.6081C68.693 33.9456 69.7785 33.6143 71.1233 33.6143C72.6462 33.6143 73.8613 33.9455 74.801 34.5924C75.7244 35.2392 76.1942 36.1068 76.1942 37.1638H73.278V37.1796Z" fill="white"/>
<path fill-rule="evenodd" clip-rule="evenodd" d="M94.7284 45.0677C93.0273 45.0677 91.7312 44.5629 90.8077 43.5375C89.8842 42.5278 89.4306 41.0765 89.4306 39.1834C89.4306 37.4481 89.9005 36.0914 90.8401 35.0975C91.7798 34.1194 93.0758 33.6304 94.7446 33.6304C96.4457 33.6304 97.7418 34.1352 98.6653 35.1291C99.5888 36.1387 100.042 37.5585 100.042 39.4043C100.059 39.621 100.042 39.8389 99.9938 40.0511H92.3954C92.4602 40.9187 92.6546 41.5655 92.9786 41.9757C93.3836 42.5121 94.0641 42.7803 95.0362 42.7803C95.4738 42.7768 95.9013 42.6508 96.2676 42.4174C96.6402 42.165 96.8832 41.881 96.9642 41.5182H99.9614C99.7376 42.5744 99.1053 43.5063 98.1954 44.1212C97.2557 44.7522 96.1055 45.0677 94.7284 45.0677ZM96.9642 38.2369C96.934 37.6886 96.749 37.1591 96.4296 36.7066C96.0569 36.2176 95.4736 35.9809 94.6797 35.9809C94.3398 35.9652 94.0016 36.0354 93.6978 36.1847C93.3941 36.334 93.1352 36.5573 92.9463 36.8328C92.6752 37.2622 92.4935 37.7392 92.4115 38.2369H96.9642Z" fill="white"/>
<path fill-rule="evenodd" clip-rule="evenodd" d="M83.1282 45.0677C81.4271 45.0677 80.131 44.5629 79.2075 43.5375C78.284 42.5278 77.8304 41.0765 77.8304 39.1834C77.8304 37.4481 78.3003 36.0914 79.24 35.0975C80.1796 34.1194 81.4758 33.6304 83.1445 33.6304C84.8457 33.6304 86.1416 34.1352 87.0651 35.1291C87.9886 36.1387 88.4422 37.5585 88.4422 39.4043C88.4583 39.621 88.442 39.8389 88.3937 40.0511H80.7954C80.8602 40.9187 81.0545 41.5655 81.3785 41.9757C81.7836 42.5121 82.4641 42.7803 83.4361 42.7803C83.8738 42.7768 84.3012 42.6508 84.6674 42.4174C85.04 42.165 85.283 41.881 85.364 41.5182H88.3289C88.1051 42.5744 87.4728 43.5063 86.5629 44.1212C85.6395 44.7522 84.4892 45.0677 83.1282 45.0677ZM85.364 38.2369C85.3338 37.6886 85.1488 37.1591 84.8294 36.7066C84.4567 36.2176 83.8735 35.9809 83.0797 35.9809C82.7398 35.9652 82.4016 36.0354 82.0978 36.1847C81.794 36.334 81.535 36.5573 81.3461 36.8328C81.0751 37.2622 80.8934 37.7392 80.8115 38.2369H85.364Z" fill="white"/>
<path d="M105 30.1147H102.068V44.7861H105V30.1147Z" fill="white"/>
<path d="M79.8233 46.0776H78.3976V52.7034H79.8233V46.0776Z" fill="white"/>
<path fill-rule="evenodd" clip-rule="evenodd" d="M81.0384 52.7031V47.7968H82.302V48.5225C82.352 48.4324 82.4117 48.3478 82.4802 48.2701C82.8042 47.86 83.2902 47.6549 83.9059 47.6549C84.135 47.6423 84.3644 47.6766 84.5792 47.7553C84.794 47.8341 84.9896 47.9557 85.1534 48.1124C85.4612 48.4121 85.607 48.838 85.607 49.3902V52.6873H84.2786V49.6268C84.2985 49.3903 84.2294 49.1548 84.0842 48.9643C84.0036 48.8869 83.907 48.8272 83.8008 48.7891C83.6946 48.751 83.5814 48.7354 83.4685 48.7434C83.3194 48.7344 83.17 48.7565 83.0303 48.8082C82.8906 48.8598 82.7639 48.9399 82.6585 49.0431C82.4641 49.2482 82.383 49.5479 82.383 49.9266V52.6873H81.0384V52.7031Z" fill="white"/>
<path fill-rule="evenodd" clip-rule="evenodd" d="M86.32 47.7969H87.7942L88.8636 51.4568L89.9491 47.7969H91.3424L89.5278 52.7031H88.1345L86.32 47.7969Z" fill="white"/>
<path fill-rule="evenodd" clip-rule="evenodd" d="M94.0804 52.8134C93.3189 52.8134 92.7194 52.5768 92.3144 52.1193C91.8931 51.6618 91.6988 50.9992 91.6988 50.1631C91.6988 49.3743 91.9093 48.7591 92.3305 48.3174C92.7517 47.8756 93.3351 47.6548 94.0965 47.6548C94.858 47.6548 95.4575 47.8757 95.8625 48.3331C96.2837 48.7906 96.4781 49.4217 96.4781 50.2578C96.4808 50.3527 96.4753 50.4477 96.4618 50.5417H93.0273C93.03 50.8487 93.1196 51.1489 93.2865 51.4094C93.4647 51.646 93.7725 51.7722 94.21 51.7722C94.4058 51.776 94.5981 51.7209 94.7607 51.6145C94.8385 51.5708 94.9062 51.5117 94.9593 51.4411C95.0123 51.3704 95.0495 51.2898 95.0686 51.2043H96.4133C96.312 51.6781 96.0279 52.096 95.6195 52.3717C95.2145 52.6872 94.696 52.8134 94.0804 52.8134ZM95.0847 49.7372C95.069 49.4888 94.9851 49.2491 94.8417 49.0431C94.7462 48.9301 94.6243 48.8411 94.4862 48.7835C94.3481 48.7259 94.1978 48.7013 94.0479 48.7118C93.8958 48.7043 93.7442 48.7353 93.6079 48.8016C93.4717 48.8679 93.3555 48.9674 93.2703 49.0904C93.1455 49.2822 93.0628 49.497 93.0273 49.7214H95.0847V49.7372Z" fill="white"/>
<path fill-rule="evenodd" clip-rule="evenodd" d="M100.204 49.2639C100.207 49.1739 100.186 49.0848 100.143 49.0048C100.101 48.9248 100.038 48.8566 99.9615 48.8064C99.7694 48.6841 99.5428 48.6234 99.3134 48.6329C99.1058 48.6246 98.8995 48.668 98.7139 48.7591C98.6469 48.7937 98.5915 48.8463 98.5541 48.9106C98.5168 48.9749 98.4992 49.0482 98.5034 49.122C98.5117 49.187 98.5389 49.2483 98.582 49.2987C98.6251 49.349 98.6822 49.3862 98.7464 49.4059C99.0237 49.5164 99.3112 49.6009 99.605 49.6583C100.415 49.8319 100.966 50.0212 101.241 50.242C101.517 50.4471 101.663 50.7784 101.663 51.2359C101.669 51.4613 101.618 51.6847 101.513 51.8859C101.408 52.087 101.254 52.2594 101.063 52.3875C100.601 52.6943 100.05 52.8491 99.4916 52.8292C98.7139 52.8292 98.1307 52.6873 97.7094 52.4033C97.5007 52.2623 97.3309 52.0734 97.215 51.8533C97.0991 51.6331 97.0408 51.3886 97.0452 51.1412H98.3899C98.3941 51.2458 98.4243 51.3478 98.4779 51.4385C98.5315 51.5292 98.607 51.6058 98.6978 51.6618C98.9373 51.8003 99.2135 51.8662 99.4916 51.8511C99.7043 51.8592 99.9158 51.8159 100.107 51.7249C100.175 51.6896 100.232 51.6374 100.271 51.5736C100.311 51.5098 100.333 51.4368 100.334 51.3621C100.33 51.3002 100.308 51.2406 100.271 51.1904C100.234 51.1401 100.183 51.1012 100.123 51.0781C99.8822 50.9684 99.6256 50.8939 99.362 50.8573C98.5033 50.668 97.9363 50.4787 97.6609 50.2736C97.5128 50.1637 97.3953 50.0196 97.319 49.8543C97.2426 49.689 97.2097 49.5078 97.2234 49.327C97.2146 49.1017 97.2599 48.8775 97.3555 48.6722C97.4511 48.4668 97.5945 48.2859 97.7743 48.1439C98.1469 47.8441 98.6329 47.7021 99.2486 47.7021C99.929 47.7021 100.48 47.8441 100.901 48.1439C101.097 48.2691 101.257 48.4401 101.368 48.6413C101.478 48.8425 101.535 49.0674 101.533 49.2955H100.204V49.2639Z" fill="white"/>
<path fill-rule="evenodd" clip-rule="evenodd" d="M104.935 52.719C104.708 52.7348 104.433 52.7506 104.109 52.7506C103.639 52.7506 103.299 52.6717 103.088 52.5139C102.878 52.3562 102.78 52.088 102.78 51.7094V48.712H102.1V47.8128H102.797V46.5034H104.125V47.8128H104.935V48.712H104.125V51.5043C104.118 51.5481 104.125 51.593 104.145 51.6327C104.165 51.6723 104.198 51.7047 104.238 51.7252C104.38 51.7669 104.528 51.783 104.676 51.7725H104.951V52.719H104.935Z" fill="white"/>
</g>
<defs>
<clipPath id="clip0_25_4420">
<rect width="105" height="52" fill="white" transform="translate(0 0.830566)"/>
</clipPath>
</defs>
</svg>
