<svg width="105" height="52" viewBox="0 0 105 52" fill="none" xmlns="http://www.w3.org/2000/svg">
<g clip-path="url(#clip0_25_3916)">
<path fill-rule="evenodd" clip-rule="evenodd" d="M0.0274197 41.4303V21.7423C0.0274197 19.9439 -0.0212789 18.1297 0.0111235 16.3313C0.0273248 15.858 0.173262 15.2743 0.464885 14.9272C1.35595 13.8545 2.34416 12.8764 3.31624 11.8667C3.51065 11.6617 3.78614 11.5512 4.11016 11.3461V49.2077C3.80234 49.1288 3.60792 49.1288 3.46211 49.05" fill="#1F4280"/>
<path fill-rule="evenodd" clip-rule="evenodd" d="M32.203 5.61958C32.1868 5.88777 32.1544 12.1349 32.1544 12.4031C32.1544 20.4014 32.1707 28.3996 32.1383 36.3979C32.1267 37.0423 31.9054 37.6664 31.5064 38.1805C30.5505 39.3637 29.4326 40.4365 28.3957 41.5408C28.295 41.4887 28.1976 41.4308 28.1041 41.3672V3.5372C28.9952 4.01047 31.4577 5.11476 32.203 5.61958Z" fill="#1F4280"/>
<path fill-rule="evenodd" clip-rule="evenodd" d="M9.37551 11.3304H13.5068C13.523 7.90705 13.523 4.49951 13.523 1.07619C13.523 0.00344346 13.4258 -0.138539 12.3727 0.0980955L9.34308 5.0832C9.35928 5.25674 9.35922 5.43027 9.35922 5.6038C9.37542 7.51266 9.37551 9.42151 9.37551 11.3304Z" fill="#1F4280"/>
<path fill-rule="evenodd" clip-rule="evenodd" d="M22.8711 1.3917C22.8711 0.871101 22.6604 0.61869 22.1581 0.524036C21.3481 0.36628 20.5219 0.208523 19.7118 0.0507668C18.9342 -0.10699 18.7073 0.19275 18.7073 0.949981C18.7559 4.19977 18.7396 7.43377 18.7234 10.6836C18.7234 13.3023 18.6912 15.9211 18.6912 18.5241C18.6912 19.0762 18.6264 19.4548 17.8811 19.4075C16.7759 19.3234 15.6659 19.3181 14.5599 19.3917C13.685 19.4706 13.458 19.234 13.458 18.3821C13.4742 17.3567 13.4743 16.347 13.4743 15.3216H9.35916C9.35916 17.7037 9.34293 20.0701 9.32673 22.4522C9.32673 23.2568 9.56975 23.4776 10.3798 23.4618C14.2357 23.4145 18.1078 23.4303 21.9637 23.4461C22.5955 23.4461 22.8386 23.2883 22.8386 22.6415C22.8548 15.5898 22.8549 8.49074 22.8711 1.3917Z" fill="#1F4280"/>
<path fill-rule="evenodd" clip-rule="evenodd" d="M18.7884 33.6371C18.7722 35.4356 18.7723 37.234 18.7723 39.0324H22.8226C22.8388 36.2086 22.855 33.3847 22.8712 30.5767C22.8874 28.6047 22.9036 28.6047 20.927 28.4627C20.684 28.4469 20.441 28.447 20.198 28.447C16.9739 28.447 13.7337 28.4785 10.5097 28.447C9.40798 28.4312 9.31065 28.4627 9.32685 29.4881L9.42415 47.709C9.42415 48.6082 9.35925 49.5075 9.40785 50.4067C9.42405 50.738 9.6347 51.3059 9.84532 51.3532C10.9956 51.6372 12.1783 51.7791 13.4906 52V50.7537C13.4744 45.0114 13.4906 39.2691 13.442 33.5267C13.442 32.7064 13.7012 32.4855 14.4951 32.5328C15.5418 32.596 16.5915 32.596 17.6382 32.5328C18.5455 32.4697 18.7884 32.7695 18.7884 33.6371Z" fill="#1F4280"/>
<path fill-rule="evenodd" clip-rule="evenodd" d="M22.8062 44.0333H18.7884V51.227C18.7884 51.858 18.9828 52 19.5984 51.9053L22.8387 47.1726C22.8063 46.6836 22.7901 46.3996 22.7901 46.0999C22.7901 45.4058 22.79 44.7274 22.8062 44.0333Z" fill="#1F4280"/>
<path fill-rule="evenodd" clip-rule="evenodd" d="M48.5063 22.4347C48.4214 22.9512 48.2284 23.4453 47.9392 23.8861C47.6578 24.2887 47.3071 24.641 46.9024 24.9273C46.4935 25.2092 46.039 25.4225 45.5578 25.5583C45.0685 25.6981 44.5608 25.7672 44.0509 25.7634C43.4836 25.7603 42.9205 25.6698 42.3822 25.4952C41.8543 25.3242 41.365 25.0565 40.9404 24.7064C40.5096 24.3445 40.1617 23.8984 39.9196 23.397C39.651 22.8342 39.5181 22.2191 39.5309 21.5986V17.7651H42.1068V21.5986C42.0973 21.855 42.1529 22.1097 42.2688 22.3401C42.3739 22.5382 42.5234 22.7107 42.7063 22.8449C42.8883 22.9848 43.0978 23.0868 43.3219 23.1446C43.5539 23.208 43.7938 23.2399 44.0348 23.2393C44.281 23.2388 44.5261 23.207 44.7639 23.1446C44.9853 23.0802 45.1936 22.9787 45.3795 22.8449C45.5587 22.707 45.7075 22.5353 45.8169 22.3401C45.9328 22.1097 45.9884 21.855 45.9789 21.5986V10.1297H48.5711V19.9264H50.4181V22.4347H48.5063Z" fill="#1F4280"/>
<path d="M55.2135 19.9265H50.1912V22.436H55.2135V19.9265Z" fill="#1F4280"/>
<path d="M60.074 19.9265H55.0516V22.436H60.074V19.9265Z" fill="#1F4280"/>
<path d="M64.9181 19.9265H59.8958V22.436H64.9181V19.9265Z" fill="#1F4280"/>
<path d="M69.7785 19.9265H64.7561V22.436H69.7785V19.9265Z" fill="#1F4280"/>
<path d="M74.6389 19.9265H69.6165V22.436H74.6389V19.9265Z" fill="#1F4280"/>
<path fill-rule="evenodd" clip-rule="evenodd" d="M76.3723 19.9264V13.9316H78.9484V19.9264H80.7954V22.4347H74.3311V19.9264H76.3723ZM74.6226 25.1481C74.6205 24.9701 74.6536 24.7934 74.7199 24.6275C74.7873 24.4682 74.8864 24.3234 75.0115 24.2016C75.1367 24.0797 75.2854 23.9832 75.449 23.9176C75.7936 23.7914 76.1736 23.7914 76.5182 23.9176C76.6819 23.9832 76.8306 24.0797 76.9557 24.2016C77.0808 24.3234 77.1799 24.4682 77.2473 24.6275C77.322 24.7914 77.3607 24.9688 77.3607 25.1481C77.3607 25.3275 77.322 25.5048 77.2473 25.6687C77.1692 25.8222 77.0712 25.9654 76.9557 26.0947C76.8314 26.2174 76.6824 26.3141 76.5182 26.3786C76.3499 26.4514 76.1678 26.489 75.9836 26.489C75.7994 26.489 75.6173 26.4514 75.449 26.3786C75.288 26.3083 75.1401 26.2123 75.0115 26.0947C74.8854 25.9736 74.7862 25.8286 74.7199 25.6687C74.6564 25.5021 74.6234 25.3259 74.6226 25.1481ZM77.7172 25.1481C77.715 24.9701 77.748 24.7934 77.8143 24.6275C77.8817 24.4682 77.9808 24.3234 78.1059 24.2016C78.231 24.0797 78.3797 23.9832 78.5434 23.9176C78.888 23.7914 79.2679 23.7914 79.6126 23.9176C79.7762 23.9832 79.9249 24.0797 80.0501 24.2016C80.1752 24.3234 80.2743 24.4682 80.3416 24.6275C80.4164 24.7914 80.4551 24.9688 80.4551 25.1481C80.4551 25.3275 80.4164 25.5048 80.3416 25.6687C80.2694 25.8255 80.1709 25.9694 80.0501 26.0947C79.9257 26.2174 79.7768 26.3141 79.6126 26.3786C79.4443 26.4514 79.2622 26.489 79.078 26.489C78.8938 26.489 78.7117 26.4514 78.5434 26.3786C78.3824 26.3083 78.2345 26.2123 78.1059 26.0947C77.9798 25.9736 77.8806 25.8286 77.8143 25.6687C77.7585 25.5001 77.7259 25.3251 77.7172 25.1481Z" fill="#1F4280"/>
<path fill-rule="evenodd" clip-rule="evenodd" d="M80.5524 22.4347V19.9264H82.2858V13.7108H84.8618V14.8308C85.1776 14.4548 85.5763 14.1528 86.0284 13.9474C86.541 13.7161 87.0996 13.5976 87.6646 13.6003L91.6664 13.6476C91.8385 13.647 92.0091 13.6792 92.1685 13.7423C92.4735 13.871 92.7168 14.1079 92.849 14.4049C92.9138 14.5602 92.947 14.7263 92.9463 14.8939V19.9264H94.4206V22.4347H80.5524ZM87.616 16.1087C87.2772 16.1108 86.9398 16.1531 86.6115 16.2349C86.3005 16.321 86.0054 16.4541 85.7368 16.6293C85.4743 16.8047 85.2571 17.0371 85.1025 17.3081C84.9479 17.5791 84.86 17.8813 84.8457 18.191V19.9264H90.3541V16.1402C89.4144 16.1244 88.734 16.1244 88.2965 16.1087C87.8753 16.1244 87.6484 16.1087 87.616 16.1087Z" fill="#1F4280"/>
<path fill-rule="evenodd" clip-rule="evenodd" d="M95.3926 13.6319C95.5709 13.6477 95.7976 13.6634 96.0568 13.6792C96.3161 13.695 96.5429 13.7108 96.7373 13.7265C97.2234 13.7423 97.7257 13.7896 98.2603 13.837C98.793 13.895 99.3191 14.0006 99.8319 14.1525C100.356 14.3099 100.861 14.5215 101.339 14.7835C101.834 15.0618 102.268 15.4316 102.618 15.872C103.018 16.3762 103.331 16.9412 103.542 17.5443C103.807 18.3124 103.95 19.116 103.963 19.9264H104.887V22.4347H94.1937V19.9264H101.387C101.36 19.3899 101.239 18.8619 101.031 18.3646C100.868 17.977 100.637 17.6195 100.35 17.3076C100.087 17.0374 99.7737 16.8179 99.4268 16.6608C99.0868 16.5197 98.7343 16.4089 98.3737 16.3295C98.0097 16.2642 97.6416 16.222 97.2719 16.2033C96.8993 16.1875 96.5592 16.1875 96.2351 16.1718H95.7815C95.6195 16.1718 95.4251 16.156 95.1821 16.1402L95.3926 13.6319Z" fill="#1F4280"/>
<path fill-rule="evenodd" clip-rule="evenodd" d="M56.2505 17.7967H55.0192C54.9408 17.7978 54.8634 17.7816 54.7924 17.7493C54.7324 17.7218 54.6776 17.6845 54.6304 17.6389C54.5827 17.5905 54.5491 17.5306 54.5331 17.4654C54.5144 17.3984 54.5035 17.3296 54.5007 17.2603L54.4845 15.241H53.7716C53.6808 15.2375 53.5909 15.2594 53.5125 15.3041C53.4279 15.3362 53.3507 15.3845 53.2856 15.4461C53.2189 15.5068 53.1689 15.5827 53.1399 15.667C53.1082 15.7475 53.0917 15.8331 53.0913 15.9194V16.7712C53.1399 16.787 53.2046 16.787 53.2856 16.8028C53.3666 16.8186 53.4477 16.8186 53.5449 16.8344C53.6307 16.847 53.7174 16.8523 53.8041 16.8501C53.8851 16.8501 53.9499 16.8659 53.9985 16.8659V17.8913C53.8741 17.8933 53.7497 17.888 53.6259 17.8755C53.4801 17.8598 53.3342 17.844 53.2046 17.8282C53.0631 17.8149 52.9225 17.7938 52.7834 17.7651C52.6676 17.7499 52.5537 17.7235 52.4433 17.6862H52.4594C52.3458 17.6598 52.2437 17.5991 52.1678 17.5127C52.0899 17.4193 52.0496 17.3016 52.0544 17.1814V15.9036C52.0551 15.6768 52.099 15.4522 52.1839 15.241C52.2696 15.0395 52.3963 14.857 52.5565 14.7046C52.7202 14.5572 52.906 14.4348 53.1074 14.3418C53.3209 14.2466 53.5532 14.1981 53.7879 14.1998H54.8896C54.973 14.2003 55.0555 14.2163 55.1326 14.2471C55.2083 14.2798 55.2791 14.3222 55.3432 14.3733C55.4019 14.4284 55.4512 14.4924 55.4891 14.5627C55.5207 14.6378 55.5372 14.7181 55.5376 14.7993L55.5538 16.7555H56.2667V17.7967H56.2505ZM52.751 13.2217C52.7515 13.1456 52.768 13.0705 52.7996 13.0009C52.8277 12.9375 52.866 12.879 52.913 12.8273C52.9618 12.7763 53.0232 12.7383 53.0913 12.7169C53.1571 12.6863 53.229 12.6702 53.3019 12.6696C53.38 12.6701 53.4571 12.6862 53.5286 12.7169C53.5936 12.7443 53.6539 12.7816 53.7069 12.8273C53.7593 12.8748 53.7984 12.9346 53.8204 13.0009C53.8535 13.07 53.8701 13.1455 53.8689 13.2217C53.8701 13.2929 53.8535 13.3633 53.8204 13.4268C53.7922 13.4901 53.7539 13.5487 53.7069 13.6003C53.6582 13.6514 53.5967 13.6894 53.5286 13.7108C53.4577 13.7431 53.3802 13.7592 53.3019 13.7581C53.2288 13.7593 53.1565 13.743 53.0913 13.7108C53.0263 13.6834 52.966 13.6461 52.913 13.6003C52.8606 13.5529 52.8215 13.4931 52.7996 13.4268C52.7664 13.3633 52.7498 13.2929 52.751 13.2217ZM54.0147 13.2217C54.0152 13.1456 54.0319 13.0705 54.0634 13.0009C54.0915 12.9375 54.1297 12.879 54.1767 12.8273C54.2254 12.7763 54.2869 12.7383 54.355 12.7169C54.4208 12.6863 54.4926 12.6702 54.5656 12.6696C54.6437 12.6701 54.7209 12.6862 54.7924 12.7169C54.8575 12.7443 54.9176 12.7816 54.9706 12.8273C55.023 12.8748 55.062 12.9346 55.084 13.0009C55.1172 13.07 55.1338 13.1455 55.1326 13.2217C55.1338 13.2929 55.1172 13.3633 55.084 13.4268C55.0559 13.4901 55.0176 13.5487 54.9706 13.6003C54.9218 13.6514 54.8605 13.6894 54.7924 13.7108C54.7215 13.7431 54.6439 13.7592 54.5656 13.7581C54.4924 13.7593 54.4202 13.743 54.355 13.7108C54.2899 13.6834 54.2297 13.6461 54.1767 13.6003C54.1243 13.5529 54.0854 13.4931 54.0634 13.4268C54.0302 13.3633 54.0134 13.2929 54.0147 13.2217Z" fill="#1F4280"/>
<path d="M58.2108 16.7714H56.1694V17.7968H58.2108V16.7714Z" fill="#1F4280"/>
<path fill-rule="evenodd" clip-rule="evenodd" d="M58.9237 16.7712V14.3418H59.9768V16.7712H60.7381V17.7967H58.1137V16.7712H58.9237ZM58.2108 18.901C58.2113 18.8249 58.2278 18.7497 58.2594 18.6801C58.2875 18.6168 58.3258 18.5582 58.3728 18.5066C58.4216 18.4556 58.4829 18.4175 58.551 18.3961C58.6168 18.3656 58.6888 18.3494 58.7617 18.3488C58.8398 18.3493 58.9169 18.3654 58.9884 18.3961C59.0535 18.4235 59.1137 18.4608 59.1667 18.5066C59.2191 18.554 59.258 18.6138 59.28 18.6801C59.3132 18.7492 59.3299 18.8247 59.3288 18.901C59.33 18.9722 59.3132 19.0426 59.28 19.106C59.2519 19.1694 59.2137 19.2279 59.1667 19.2796C59.118 19.3306 59.0565 19.3686 58.9884 19.39C58.9175 19.4223 58.84 19.4385 58.7617 19.4373C58.6886 19.4385 58.6162 19.4223 58.551 19.39C58.4859 19.3626 58.4258 19.3253 58.3728 19.2796C58.3204 19.2321 58.2814 19.1724 58.2594 19.106C58.228 19.042 58.2114 18.972 58.2108 18.901ZM59.4745 18.901C59.475 18.8249 59.4915 18.7497 59.523 18.6801C59.5512 18.6168 59.5895 18.5582 59.6365 18.5066C59.6852 18.4556 59.7467 18.4175 59.8148 18.3961C59.8806 18.3656 59.9525 18.3494 60.0254 18.3488C60.1035 18.3493 60.1806 18.3654 60.2521 18.3961C60.3171 18.4235 60.3774 18.4608 60.4304 18.5066C60.4828 18.554 60.5219 18.6138 60.5438 18.6801C60.577 18.7492 60.5936 18.8247 60.5924 18.901C60.5936 18.9722 60.577 19.0426 60.5438 19.106C60.5157 19.1694 60.4774 19.2279 60.4304 19.2796C60.3817 19.3306 60.3202 19.3686 60.2521 19.39C60.1811 19.4223 60.1037 19.4385 60.0254 19.4373C59.9523 19.4385 59.88 19.4223 59.8148 19.39C59.7498 19.3626 59.6895 19.3253 59.6365 19.2796C59.5841 19.2321 59.545 19.1724 59.523 19.106C59.4916 19.042 59.4751 18.972 59.4745 18.901Z" fill="#1F4280"/>
<path fill-rule="evenodd" clip-rule="evenodd" d="M60.5924 16.7713H61.3862V12.78H62.4393V17.2445C62.4538 17.3145 62.4424 17.3872 62.407 17.4496C62.3789 17.5129 62.3405 17.5715 62.2935 17.6231C62.2411 17.6739 62.1809 17.7164 62.1152 17.7493C62.0494 17.7799 61.9776 17.7961 61.9046 17.7967H60.5924V16.7713Z" fill="#1F4280"/>
<path fill-rule="evenodd" clip-rule="evenodd" d="M65.0964 17.7966H63.7679C63.6966 17.7951 63.6258 17.7845 63.5573 17.7651C63.436 17.71 63.3384 17.6151 63.2818 17.4969C63.2487 17.4334 63.2321 17.363 63.2333 17.2918V12.7958H64.2864V16.7712H65.0964V17.7966Z" fill="#1F4280"/>
<path fill-rule="evenodd" clip-rule="evenodd" d="M65.0153 17.7967V16.7712H65.6958V15.872C65.7014 15.6662 65.7453 15.4631 65.8254 15.2726C65.9187 15.0704 66.0445 14.8841 66.198 14.7204C66.3604 14.563 66.5461 14.4301 66.7489 14.326C66.9623 14.2308 67.1946 14.1823 67.4294 14.184C67.64 14.184 67.8506 14.184 68.045 14.1998C68.2556 14.1998 68.4661 14.1998 68.6767 14.2156C68.7444 14.2163 68.8111 14.2325 68.8712 14.2629C68.9925 14.318 69.0901 14.4129 69.1466 14.5311C69.1779 14.5896 69.1945 14.6545 69.1952 14.7204V16.7712H69.8108V17.7967H65.0153ZM66.7489 16.7712H68.1584V15.241H67.4131C67.3276 15.2395 67.2434 15.2614 67.17 15.3041C67.0119 15.3739 66.8853 15.4972 66.8136 15.6512C66.7819 15.7263 66.7655 15.8066 66.765 15.8878V16.7712H66.7489Z" fill="#1F4280"/>
<path fill-rule="evenodd" clip-rule="evenodd" d="M69.7461 16.7713H70.5399V12.78H71.593V17.2445C71.6075 17.3145 71.5961 17.3872 71.5607 17.4496C71.5326 17.5129 71.4943 17.5715 71.4473 17.6231C71.3949 17.6739 71.3347 17.7164 71.2689 17.7493C71.2031 17.7799 71.1313 17.7961 71.0584 17.7967H69.7461V16.7713Z" fill="#1F4280"/>
<path d="M73.5534 12.7783H72.5003V17.7821H73.5534V12.7783Z" fill="#1F4280"/>
<path fill-rule="evenodd" clip-rule="evenodd" d="M40.2435 43.9527V29.2813H43.3866V34.7712H49.2677V29.2813H52.4269V43.9527H49.2677V37.3111H43.3866V43.9527H40.2435Z" fill="#1F4280"/>
<path fill-rule="evenodd" clip-rule="evenodd" d="M57.9517 44.2367C56.9148 44.2367 56.0885 43.9527 55.4566 43.369C54.8248 42.8011 54.517 42.0438 54.517 41.0973C54.517 40.1034 54.8086 39.3147 55.3756 38.7152C55.9426 38.1157 56.7689 37.7371 57.8544 37.5951L59.7985 37.3269C60.2349 37.2815 60.6613 37.1697 61.0622 36.9956C61.1387 36.9598 61.2069 36.9092 61.2626 36.8468C61.3183 36.7844 61.3604 36.7116 61.3862 36.6328C61.4692 36.4664 61.4975 36.2791 61.4672 36.0964C61.4512 35.9486 61.3987 35.8068 61.3141 35.6832C61.2294 35.5595 61.1151 35.4577 60.9812 35.3865C60.6571 35.1814 60.1712 35.071 59.5394 35.071C58.9723 35.071 58.5348 35.1972 58.227 35.4654C58.0664 35.6101 57.939 35.7859 57.8525 35.9815C57.766 36.1772 57.7224 36.3883 57.7248 36.6012H54.8896C54.9544 35.3392 55.3918 34.3769 56.2342 33.7458C57.0605 33.1148 58.2757 32.7993 59.8634 32.7993C61.2567 32.7993 62.3421 33.0833 63.1522 33.6512C63.5357 33.9126 63.8461 34.263 64.0554 34.6707C64.2648 35.0784 64.3665 35.5304 64.3512 35.986V42.0596C64.3341 42.4061 64.3779 42.7529 64.4807 43.085C64.5271 43.1911 64.5957 43.2866 64.6821 43.3654C64.7686 43.4442 64.8711 43.5045 64.9829 43.5425V43.9369H61.8075C61.6776 43.5204 61.5907 43.0924 61.5482 42.6591L61.5321 42.6433C60.6248 43.7003 59.426 44.2367 57.9517 44.2367ZM61.4996 39.9457V38.6994C61.0725 38.915 60.6134 39.0641 60.1388 39.1411L59.0533 39.3304C58.6233 39.3881 58.2189 39.5631 57.8868 39.8352C57.7568 39.9579 57.6538 40.1052 57.5841 40.2679C57.5145 40.4306 57.4797 40.6055 57.4818 40.7818C57.4567 41.156 57.5849 41.5247 57.8382 41.8072C57.9666 41.9331 58.1213 42.0307 58.2918 42.0933C58.4623 42.1559 58.6446 42.182 58.8264 42.17C59.7823 42.17 60.5276 41.8545 61.0946 41.2077C61.2243 41.0382 61.318 40.8451 61.3701 40.6398C61.4536 40.4173 61.4974 40.1826 61.4996 39.9457Z" fill="#1F4280"/>
<path fill-rule="evenodd" clip-rule="evenodd" d="M73.278 36.3488C73.2832 36.1503 73.2369 35.9538 73.1435 35.7773C73.0501 35.6008 72.9124 35.4502 72.7434 35.3392C72.3869 35.0868 71.9171 34.9606 71.3177 34.9606C70.8567 34.9371 70.3977 35.0352 69.9892 35.2445C69.8435 35.3207 69.7225 35.4348 69.6395 35.5741C69.5566 35.7134 69.5149 35.8724 69.5193 36.0333C69.5193 36.2699 69.6974 36.475 70.0539 36.6486C70.4103 36.8221 71.0422 36.9956 71.9495 37.2007C73.764 37.5951 74.9628 38.021 75.5623 38.4785C76.1779 38.9518 76.4858 39.6775 76.4858 40.6871C76.4981 41.189 76.3833 41.6861 76.1516 42.1345C75.92 42.583 75.5784 42.969 75.1573 43.2586C74.2662 43.9054 73.0998 44.2209 71.6579 44.2209C69.9405 44.2209 68.6282 43.9054 67.7047 43.2586C66.7812 42.6275 66.2791 41.681 66.2143 40.4663H69.2115C69.2167 40.7005 69.2815 40.9299 69.4003 41.1336C69.5191 41.3374 69.688 41.5092 69.8919 41.6337C70.3293 41.9176 70.9126 42.0596 71.6579 42.0596C72.2411 42.0596 72.7109 41.965 73.035 41.7599C73.187 41.6801 73.3139 41.5617 73.4023 41.4172C73.4908 41.2728 73.5373 41.1077 73.5371 40.9395C73.5371 40.6871 73.3751 40.482 73.0511 40.3085C72.7271 40.135 72.1601 39.9772 71.3663 39.8037C69.4869 39.3935 68.2233 38.9518 67.5914 38.4943C66.9596 38.0368 66.6355 37.3427 66.6355 36.3804C66.6355 35.3076 67.0404 34.4242 67.8667 33.7774C68.693 33.1148 69.7785 32.7835 71.1233 32.7835C72.6462 32.7835 73.8613 33.1148 74.801 33.7616C75.7244 34.4084 76.1942 35.2761 76.1942 36.333H73.278V36.3488Z" fill="#1F4280"/>
<path fill-rule="evenodd" clip-rule="evenodd" d="M94.7284 44.2367C93.0273 44.2367 91.7312 43.7318 90.8077 42.7064C89.8842 41.6968 89.4306 40.2454 89.4306 38.3523C89.4306 36.617 89.9005 35.2603 90.8401 34.2664C91.7798 33.2884 93.0758 32.7993 94.7446 32.7993C96.4457 32.7993 97.7418 33.3041 98.6653 34.298C99.5888 35.3076 100.042 36.7274 100.042 38.5732C100.059 38.7899 100.042 39.0078 99.9938 39.22H92.3954C92.4602 40.0877 92.6546 40.7345 92.9786 41.1446C93.3836 41.681 94.0641 41.9492 95.0362 41.9492C95.4738 41.9457 95.9013 41.8198 96.2676 41.5863C96.6402 41.3339 96.8832 41.05 96.9642 40.6871H99.9614C99.7376 41.7433 99.1053 42.6752 98.1954 43.2901C97.2557 43.9211 96.1055 44.2367 94.7284 44.2367ZM96.9642 37.4058C96.934 36.8575 96.749 36.328 96.4296 35.8756C96.0569 35.3865 95.4736 35.1499 94.6797 35.1499C94.3398 35.1342 94.0016 35.2044 93.6978 35.3536C93.3941 35.5029 93.1352 35.7262 92.9463 36.0018C92.6752 36.4311 92.4935 36.9082 92.4115 37.4058H96.9642Z" fill="#1F4280"/>
<path fill-rule="evenodd" clip-rule="evenodd" d="M83.1282 44.2367C81.4271 44.2367 80.131 43.7318 79.2075 42.7064C78.284 41.6968 77.8304 40.2454 77.8304 38.3523C77.8304 36.617 78.3003 35.2603 79.24 34.2664C80.1796 33.2884 81.4758 32.7993 83.1445 32.7993C84.8457 32.7993 86.1416 33.3041 87.0651 34.298C87.9886 35.3076 88.4422 36.7274 88.4422 38.5732C88.4583 38.7899 88.442 39.0078 88.3937 39.22H80.7954C80.8602 40.0877 81.0545 40.7345 81.3785 41.1446C81.7836 41.681 82.4641 41.9492 83.4361 41.9492C83.8738 41.9457 84.3012 41.8198 84.6674 41.5863C85.04 41.3339 85.283 41.05 85.364 40.6871H88.3289C88.1051 41.7433 87.4728 42.6752 86.5629 43.2901C85.6395 43.9211 84.4892 44.2367 83.1282 44.2367ZM85.364 37.4058C85.3338 36.8575 85.1488 36.328 84.8294 35.8756C84.4567 35.3865 83.8735 35.1499 83.0797 35.1499C82.7398 35.1342 82.4016 35.2044 82.0978 35.3536C81.794 35.5029 81.535 35.7262 81.3461 36.0018C81.0751 36.4311 80.8934 36.9082 80.8115 37.4058H85.364Z" fill="#1F4280"/>
<path d="M105 29.2836H102.068V43.9549H105V29.2836Z" fill="#1F4280"/>
<path d="M79.8233 45.2465H78.3976V51.8723H79.8233V45.2465Z" fill="#1F4280"/>
<path fill-rule="evenodd" clip-rule="evenodd" d="M81.0384 51.8721V46.9658H82.302V47.6915C82.352 47.6014 82.4117 47.5168 82.4802 47.4391C82.8042 47.0289 83.2902 46.8239 83.9059 46.8239C84.135 46.8113 84.3644 46.8456 84.5792 46.9243C84.794 47.0031 84.9896 47.1247 85.1534 47.2813C85.4612 47.5811 85.607 48.007 85.607 48.5592V51.8563H84.2786V48.7958C84.2985 48.5593 84.2294 48.3238 84.0842 48.1332C84.0036 48.0559 83.907 47.9961 83.8008 47.9581C83.6946 47.92 83.5814 47.9044 83.4685 47.9124C83.3194 47.9034 83.17 47.9255 83.0303 47.9771C82.8906 48.0288 82.7639 48.1089 82.6585 48.2121C82.4641 48.4172 82.383 48.7169 82.383 49.0956V51.8563H81.0384V51.8721Z" fill="#1F4280"/>
<path fill-rule="evenodd" clip-rule="evenodd" d="M86.32 46.9659H87.7942L88.8636 50.6258L89.9491 46.9659H91.3424L89.5278 51.8721H88.1345L86.32 46.9659Z" fill="#1F4280"/>
<path fill-rule="evenodd" clip-rule="evenodd" d="M94.0804 51.9825C93.3189 51.9825 92.7194 51.7459 92.3144 51.2884C91.8931 50.8309 91.6988 50.1683 91.6988 49.3322C91.6988 48.5434 91.9093 47.9281 92.3305 47.4864C92.7517 47.0447 93.3351 46.8238 94.0965 46.8238C94.858 46.8238 95.4575 47.0447 95.8625 47.5022C96.2837 47.9597 96.4781 48.5907 96.4781 49.4268C96.4808 49.5218 96.4753 49.6167 96.4618 49.7108H93.0273C93.03 50.0177 93.1196 50.318 93.2865 50.5785C93.4647 50.8151 93.7725 50.9413 94.21 50.9413C94.4058 50.9451 94.5981 50.89 94.7607 50.7835C94.8385 50.7398 94.9062 50.6808 94.9593 50.6101C95.0123 50.5395 95.0495 50.4588 95.0686 50.3734H96.4133C96.312 50.8472 96.0279 51.265 95.6195 51.5408C95.2145 51.8563 94.696 51.9825 94.0804 51.9825ZM95.0847 48.9062C95.069 48.6578 94.9851 48.4181 94.8417 48.2121C94.7462 48.0992 94.6243 48.0102 94.4862 47.9525C94.3481 47.8949 94.1978 47.8703 94.0479 47.8808C93.8958 47.8734 93.7442 47.9043 93.6079 47.9707C93.4717 48.037 93.3555 48.1365 93.2703 48.2594C93.1455 48.4512 93.0628 48.6661 93.0273 48.8905H95.0847V48.9062Z" fill="#1F4280"/>
<path fill-rule="evenodd" clip-rule="evenodd" d="M100.204 48.433C100.207 48.343 100.186 48.2538 100.143 48.1739C100.101 48.0939 100.038 48.0257 99.9615 47.9755C99.7694 47.8531 99.5427 47.7924 99.3134 47.802C99.1058 47.7936 98.8994 47.8371 98.7139 47.9282C98.6469 47.9628 98.5915 48.0153 98.5541 48.0796C98.5168 48.1439 98.4992 48.2173 98.5033 48.291C98.5117 48.356 98.5389 48.4174 98.582 48.4677C98.6251 48.5181 98.6822 48.5553 98.7464 48.575C99.0237 48.6855 99.3112 48.77 99.605 48.8274C100.415 49.0009 100.966 49.1902 101.241 49.4111C101.517 49.6162 101.663 49.9475 101.663 50.4049C101.669 50.6303 101.618 50.8538 101.513 51.0549C101.408 51.256 101.254 51.4285 101.063 51.5566C100.601 51.8634 100.05 52.0182 99.4916 51.9983C98.7139 51.9983 98.1307 51.8563 97.7094 51.5724C97.5006 51.4314 97.3309 51.2425 97.215 51.0224C97.0991 50.8022 97.0408 50.5576 97.0452 50.3103H98.3899C98.394 50.4149 98.4242 50.5169 98.4779 50.6076C98.5315 50.6983 98.607 50.7749 98.6978 50.8309C98.9373 50.9693 99.2135 51.0352 99.4916 51.0202C99.7043 51.0283 99.9158 50.9849 100.107 50.894C100.175 50.8587 100.232 50.8064 100.271 50.7426C100.311 50.6788 100.333 50.6058 100.334 50.5312C100.33 50.4693 100.308 50.4097 100.271 50.3594C100.234 50.3092 100.183 50.2702 100.123 50.2472C99.8822 50.1374 99.6256 50.063 99.362 50.0263C98.5033 49.837 97.9363 49.6477 97.6608 49.4426C97.5128 49.3327 97.3953 49.1886 97.3189 49.0234C97.2426 48.8581 97.2097 48.6769 97.2234 48.4961C97.2146 48.2708 97.2599 48.0466 97.3555 47.8412C97.4511 47.6359 97.5945 47.455 97.7743 47.3129C98.1469 47.0132 98.6329 46.8712 99.2485 46.8712C99.929 46.8712 100.48 47.0132 100.901 47.3129C101.097 47.4381 101.257 47.6091 101.368 47.8103C101.478 48.0115 101.535 48.2365 101.533 48.4645H100.204V48.433Z" fill="#1F4280"/>
<path fill-rule="evenodd" clip-rule="evenodd" d="M104.935 51.8878C104.708 51.9036 104.433 51.9194 104.109 51.9194C103.639 51.9194 103.299 51.8405 103.088 51.6828C102.878 51.525 102.78 51.2568 102.78 50.8782V47.8808H102.1V46.9816H102.797V45.6722H104.125V46.9816H104.935V47.8808H104.125V50.6731C104.118 50.7169 104.125 50.7618 104.145 50.8015C104.165 50.8411 104.198 50.8735 104.238 50.894C104.38 50.9357 104.528 50.9518 104.676 50.9413H104.951V51.8878H104.935Z" fill="#1F4280"/>
</g>
<defs>
<clipPath id="clip0_25_3916">
<rect width="105" height="52" fill="white"/>
</clipPath>
</defs>
</svg>
