<svg width="209" height="164" viewBox="0 0 209 164" fill="none" xmlns="http://www.w3.org/2000/svg">
<path d="M94.9329 160C138.928 160 174.592 124.183 174.592 80C174.592 35.8172 138.928 0 94.9329 0C50.9382 0 15.2734 35.8172 15.2734 80C15.2734 124.183 50.9382 160 94.9329 160Z" fill="url(#paint0_linear_104_12932)"/>
<g filter="url(#filter0_d_104_12932)">
<rect x="54.4375" y="23.0376" width="82.6713" height="103.353" rx="16" fill="white"/>
</g>
<rect x="61.7402" y="36.3711" width="50" height="1.73333" rx="0.866666" fill="#0D3671"/>
<rect x="61.7402" y="56.1045" width="66.3829" height="1.73333" rx="0.866666" fill="#D5D5D5"/>
<rect x="61.7402" y="75.8379" width="66.3829" height="1.73333" rx="0.866666" fill="#D5D5D5"/>
<rect x="61.7402" y="95.5713" width="66.3829" height="1.73333" rx="0.866666" fill="#D5D5D5"/>
<rect x="61.7402" y="115.304" width="66.3829" height="1.73333" rx="0.866666" fill="#D5D5D5"/>
<g filter="url(#filter1_d_104_12932)">
<path d="M186.639 11.6162H146.756C144.897 11.6162 143.391 13.2085 143.391 15.1728V34.9856C143.391 36.9498 144.897 38.5421 146.756 38.5421H186.639C188.497 38.5421 190.004 36.9498 190.004 34.9856V15.1728C190.004 13.2085 188.497 11.6162 186.639 11.6162Z" fill="white"/>
</g>
<path d="M153.346 29.3335C155.546 29.3335 157.329 27.5426 157.329 25.3335C157.329 23.1244 155.546 21.3335 153.346 21.3335C151.147 21.3335 149.363 23.1244 149.363 25.3335C149.363 27.5426 151.147 29.3335 153.346 29.3335Z" fill="#CCC6D9"/>
<rect x="162.641" y="21.3335" width="21.2425" height="8" rx="4" fill="#D5D5D5"/>
<g filter="url(#filter2_b_104_12932)">
<path d="M118.497 125.334C138.478 125.334 154.676 109.216 154.676 89.3335C154.676 69.4512 138.478 53.3335 118.497 53.3335C98.5161 53.3335 82.3184 69.4512 82.3184 89.3335C82.3184 109.216 98.5161 125.334 118.497 125.334Z" fill="white" fill-opacity="0.3"/>
</g>
<path d="M118.004 72.75C115.035 72.75 112.327 73.4792 109.879 74.9375C107.431 76.3438 105.452 78.3229 103.941 80.875C102.483 83.4271 101.754 86.1354 101.754 89C101.754 91.8646 102.483 94.5729 103.941 97.125C105.452 99.6771 107.431 101.656 109.879 103.062C112.327 104.521 115.035 105.25 118.004 105.25C120.973 105.25 123.681 104.521 126.129 103.062C128.577 101.656 130.556 99.6771 132.066 97.125C133.525 94.5729 134.254 91.8646 134.254 89C134.254 86.1354 133.525 83.4271 132.066 80.875C130.556 78.3229 128.577 76.3438 126.129 74.9375C123.681 73.4792 120.973 72.75 118.004 72.75ZM118.004 109C114.358 108.948 111.025 108.062 108.004 106.344C104.983 104.573 102.535 102.125 100.66 99C98.8893 95.8229 98.0039 92.4896 98.0039 89C98.0039 85.5104 98.8893 82.1771 100.66 79C102.535 75.875 104.983 73.4271 108.004 71.6562C111.025 69.9375 114.358 69.0521 118.004 69C121.65 69.0521 124.983 69.9375 128.004 71.6562C131.025 73.4271 133.473 75.875 135.348 79C137.118 82.1771 138.004 85.5104 138.004 89C138.004 92.4896 137.118 95.8229 135.348 99C133.473 102.125 131.025 104.573 128.004 106.344C124.983 108.062 121.65 108.948 118.004 109ZM111.676 82.6719C112.561 81.9427 113.447 81.9427 114.332 82.6719L118.004 86.3438L121.676 82.6719C122.561 81.9427 123.447 81.9427 124.332 82.6719C125.061 83.5573 125.061 84.4427 124.332 85.3281L120.66 89L124.332 92.6719C125.061 93.5573 125.061 94.4427 124.332 95.3281C123.447 96.0573 122.561 96.0573 121.676 95.3281L118.004 91.6562L114.332 95.3281C113.447 96.0573 112.561 96.0573 111.676 95.3281C110.947 94.4427 110.947 93.5573 111.676 92.6719L115.348 89L111.676 85.3281C110.947 84.4427 110.947 83.5573 111.676 82.6719Z" fill="#EF4444"/>
<path fill-rule="evenodd" clip-rule="evenodd" d="M32.7402 41.4476C32.7277 40.4969 32.609 39.538 32.3715 38.5726C31.5386 35.1846 27.8226 33.0094 23.8675 32.498C19.9139 31.9866 15.8026 33.1504 14.218 36.0975C13.3117 37.7825 13.1867 39.2348 13.557 40.4592C13.9258 41.6771 14.8008 42.6868 15.9885 43.4735C19.2997 45.665 25.0989 46.1125 27.7444 45.1963C28.968 44.7717 30.1634 44.2604 31.3276 43.6752C30.6619 47.5058 28.1819 51.1348 24.8722 54.4048C17.6793 61.512 6.51719 66.9063 0.438423 68.8897C0.111827 68.9962 -0.0694576 69.3601 0.0321155 69.7027C0.133689 70.0452 0.480594 70.237 0.807191 70.1305C7.00628 68.1078 18.3856 62.5988 25.7208 55.3506C29.5102 51.6069 32.2105 47.3927 32.6715 42.9622C41.238 38.1612 48.2731 29.4509 54.2878 22.1208C54.5113 21.8504 54.4816 21.4389 54.2222 21.2045C53.9628 20.9718 53.5721 21.0013 53.3486 21.2734C47.5793 28.3035 40.8833 36.6663 32.7402 41.4476ZM31.4948 42.1442C31.5417 41.0755 31.4417 39.9904 31.1713 38.8955C30.4509 35.9631 27.1397 34.229 23.7159 33.7864C21.6172 33.5159 19.4592 33.7389 17.7668 34.5322C16.7027 35.0305 15.826 35.7533 15.2978 36.7368C14.6039 38.0268 14.4539 39.1299 14.7383 40.0659C15.0227 41.0083 15.7291 41.7656 16.6495 42.3737C19.667 44.3718 24.9472 44.7963 27.3553 43.962C28.7758 43.4703 30.1541 42.8573 31.4948 42.1442Z" fill="#0D3671"/>
<ellipse cx="184.547" cy="103.333" rx="3.98297" ry="4" fill="#2364C0"/>
<path fill-rule="evenodd" clip-rule="evenodd" d="M34.1135 130.929C34.8243 130.661 35.5723 130.306 36.1491 129.791C36.8342 129.179 37.1128 128.391 37.2999 127.561C37.5401 126.496 37.6361 125.361 37.9274 124.293C38.0352 123.897 38.2428 123.747 38.3318 123.681C38.5569 123.513 38.7844 123.468 38.9985 123.485C39.2522 123.504 39.6006 123.606 39.8298 124.055C39.8625 124.119 39.905 124.217 39.9336 124.352C39.9544 124.45 39.9679 124.758 39.9899 124.885C40.0451 125.198 40.0912 125.51 40.1346 125.824C40.2788 126.871 40.3617 127.759 40.8172 128.72C41.4353 130.025 42.0546 130.823 42.8945 131.177C43.7066 131.519 44.6776 131.455 45.9182 131.186C46.0363 131.156 46.1531 131.13 46.2687 131.109C46.8157 131.008 47.3386 131.388 47.4461 131.964C47.5535 132.539 47.2059 133.1 46.6638 133.226C46.5506 133.253 46.4391 133.278 46.3288 133.301C44.6523 133.739 42.7114 135.305 41.5835 136.676C41.2359 137.098 40.7269 138.28 40.2077 139.034C39.8245 139.59 39.3939 139.957 39.0324 140.086C38.7901 140.173 38.5859 140.16 38.4172 140.116C38.1721 140.052 37.9686 139.912 37.8126 139.688C37.7276 139.566 37.6488 139.403 37.6112 139.194C37.5932 139.093 37.5912 138.838 37.5916 138.722C37.4858 138.337 37.3563 137.961 37.2619 137.573C37.0368 136.647 36.5952 136.061 36.0707 135.286C35.5801 134.561 35.0531 134.106 34.2806 133.742C34.1801 133.716 33.3692 133.507 33.0829 133.386C32.6646 133.21 32.4652 132.914 32.3929 132.755C32.2699 132.484 32.2573 132.248 32.2818 132.051C32.3181 131.761 32.4415 131.512 32.6605 131.311C32.7961 131.186 32.9987 131.065 33.27 131.006C33.4795 130.96 34.0355 130.933 34.1135 130.929ZM38.8706 129.42C38.9082 129.508 38.9482 129.597 38.9907 129.687C39.896 131.598 40.9083 132.665 42.1387 133.182L42.18 133.199C41.3568 133.845 40.6117 134.567 40.0422 135.259C39.8077 135.544 39.4973 136.136 39.1619 136.743C38.8571 135.696 38.3588 134.956 37.7321 134.03C37.2533 133.323 36.7517 132.791 36.1352 132.358C36.6136 132.098 37.0699 131.794 37.4674 131.439C38.1292 130.848 38.5667 130.164 38.8706 129.42Z" fill="#2364C0"/>
<defs>
<filter id="filter0_d_104_12932" x="24.4375" y="13.0376" width="142.672" height="163.353" filterUnits="userSpaceOnUse" color-interpolation-filters="sRGB">
<feFlood flood-opacity="0" result="BackgroundImageFix"/>
<feColorMatrix in="SourceAlpha" type="matrix" values="0 0 0 0 0 0 0 0 0 0 0 0 0 0 0 0 0 0 127 0" result="hardAlpha"/>
<feOffset dy="20"/>
<feGaussianBlur stdDeviation="15"/>
<feComposite in2="hardAlpha" operator="out"/>
<feColorMatrix type="matrix" values="0 0 0 0 0.570833 0 0 0 0 0.570833 0 0 0 0 0.570833 0 0 0 0.19 0"/>
<feBlend mode="normal" in2="BackgroundImageFix" result="effect1_dropShadow_104_12932"/>
<feBlend mode="normal" in="SourceGraphic" in2="effect1_dropShadow_104_12932" result="shape"/>
</filter>
<filter id="filter1_d_104_12932" x="136.391" y="2.61621" width="72.6133" height="52.9258" filterUnits="userSpaceOnUse" color-interpolation-filters="sRGB">
<feFlood flood-opacity="0" result="BackgroundImageFix"/>
<feColorMatrix in="SourceAlpha" type="matrix" values="0 0 0 0 0 0 0 0 0 0 0 0 0 0 0 0 0 0 127 0" result="hardAlpha"/>
<feOffset dx="6" dy="4"/>
<feGaussianBlur stdDeviation="6.5"/>
<feComposite in2="hardAlpha" operator="out"/>
<feColorMatrix type="matrix" values="0 0 0 0 0.104618 0 0 0 0 0.465612 0 0 0 0 0.545833 0 0 0 0.09 0"/>
<feBlend mode="normal" in2="BackgroundImageFix" result="effect1_dropShadow_104_12932"/>
<feBlend mode="normal" in="SourceGraphic" in2="effect1_dropShadow_104_12932" result="shape"/>
</filter>
<filter id="filter2_b_104_12932" x="74.3184" y="45.3335" width="88.3574" height="88" filterUnits="userSpaceOnUse" color-interpolation-filters="sRGB">
<feFlood flood-opacity="0" result="BackgroundImageFix"/>
<feGaussianBlur in="BackgroundImageFix" stdDeviation="4"/>
<feComposite in2="SourceAlpha" operator="in" result="effect1_backgroundBlur_104_12932"/>
<feBlend mode="normal" in="SourceGraphic" in2="effect1_backgroundBlur_104_12932" result="shape"/>
</filter>
<linearGradient id="paint0_linear_104_12932" x1="94.3188" y1="-26.05" x2="95.9646" y2="254.898" gradientUnits="userSpaceOnUse">
<stop stop-color="#F2F2F2"/>
<stop offset="1" stop-color="#EFEFEF"/>
</linearGradient>
</defs>
</svg>
